<svg width="18" height="18" viewBox="0 0 20 20" fill="none" xmlns="http://www.w3.org/2000/svg">
<path d="M13.7667 4.7085L11.1833 2.7085C10.85 2.37516 10.1 2.2085 9.60001 2.2085H6.43334C5.43334 2.2085 4.35001 2.9585 4.10001 3.9585L2.10001 10.0418C1.68334 11.2085 2.43334 12.2085 3.68334 12.2085H7.01668C7.51668 12.2085 7.93334 12.6252 7.85001 13.2085L7.43334 15.8752C7.26668 16.6252 7.76668 17.4585 8.51668 17.7085C9.18334 17.9585 10.0167 17.6252 10.35 17.1252L13.7667 12.0418" stroke="#707070" stroke-width="1.25" stroke-miterlimit="10"/>
<path d="M18.0167 4.70833V12.875C18.0167 14.0417 17.5167 14.4583 16.35 14.4583H15.5167C14.35 14.4583 13.85 14.0417 13.85 12.875V4.70833C13.85 3.54167 14.35 3.125 15.5167 3.125H16.35C17.5167 3.125 18.0167 3.54167 18.0167 4.70833Z" stroke="#707070" stroke-width="1.25" stroke-linecap="round" stroke-linejoin="round"/>
</svg>
