<svg width="359" height="314" viewBox="0 0 359 314" fill="none" xmlns="http://www.w3.org/2000/svg">
<g clip-path="url(#clip0_1795_7480)">
<path d="M134.167 121.742C134.167 121.742 129.858 113.769 129.211 108.249C128.579 102.714 129.035 101.98 130.711 100.497C131.417 99.8657 131.726 97.7369 133.755 97.3111C135.785 96.8853 137.52 102.127 137.52 102.127C137.52 102.127 138.094 98.3388 139.8 98.9114C141.506 99.484 142.271 106.414 142.271 106.414C142.271 106.414 144.035 101.628 145.359 102.068C146.682 102.494 147.477 110.642 146.638 112.977C145.815 115.311 143.521 118.189 143.521 118.189L134.153 121.742H134.167Z" fill="#F48462"/>
<path d="M139.167 116.368C139.006 116.368 138.873 116.236 138.873 116.074C138.873 108.249 142.903 106.355 143.065 106.282C143.212 106.223 143.388 106.282 143.447 106.428C143.521 106.575 143.447 106.751 143.3 106.81C143.256 106.825 139.432 108.66 139.447 116.074C139.447 116.236 139.314 116.368 139.153 116.368H139.167Z" fill="black"/>
<path d="M222.833 121.742C222.833 121.742 227.142 113.769 227.789 108.249C228.421 102.714 227.965 101.98 226.289 100.497C225.583 99.8657 225.274 97.7369 223.244 97.3111C221.2 96.8853 219.48 102.127 219.48 102.127C219.48 102.127 218.906 98.3388 217.2 98.9114C215.494 99.484 214.729 106.414 214.729 106.414C214.729 106.414 212.965 101.628 211.641 102.068C210.317 102.494 209.523 110.642 210.362 112.977C211.185 115.311 213.479 118.189 213.479 118.189L222.847 121.742H222.833Z" fill="#F48462"/>
<path d="M217.832 116.368C217.671 116.368 217.538 116.236 217.538 116.074C217.538 108.66 213.729 106.84 213.685 106.81C213.538 106.737 213.479 106.575 213.538 106.428C213.597 106.282 213.773 106.223 213.921 106.282C214.097 106.355 218.127 108.264 218.112 116.074C218.112 116.236 217.98 116.368 217.818 116.368H217.832Z" fill="black"/>
<path d="M170.11 147.963C170.11 147.963 161.301 142.56 162.389 139.419C163.477 136.291 170.125 132.518 176.963 132.518C183.802 132.518 191.346 135.924 191.537 139.345C191.714 142.751 170.125 147.963 170.125 147.963H170.11Z" fill="#5C69A5"/>
<path d="M150.991 296.22C150.874 296.22 150.756 296.147 150.712 296.029C149.918 293.842 147.418 287.984 145.506 287.176C145.256 287.074 145.035 287.059 144.829 287.147C144.624 287.235 144.506 287.382 144.447 287.602C144.05 289.261 147.388 293.813 148.844 295.604C148.903 295.677 148.947 295.721 148.962 295.736C149.065 295.868 149.05 296.044 148.918 296.147C148.785 296.25 148.609 296.235 148.506 296.103C148.477 296.059 148.418 296 148.359 295.927C147.08 294.385 143.903 291.008 142.138 291.008C142.094 291.008 142.035 291.008 141.991 291.008C141.623 291.052 141.359 291.258 141.168 291.654C140.918 292.153 140.918 292.594 141.138 293.005C141.962 294.459 145.682 295.09 147.035 295.222C147.197 295.222 147.315 295.383 147.3 295.545C147.3 295.706 147.153 295.839 146.977 295.809C146.771 295.795 141.756 295.325 140.609 293.299C140.285 292.726 140.285 292.08 140.609 291.405C140.903 290.817 141.329 290.494 141.903 290.421C142.976 290.304 144.462 291.273 145.771 292.418C144.594 290.612 143.565 288.586 143.844 287.426C143.947 287.03 144.182 286.736 144.565 286.56C144.918 286.398 145.3 286.413 145.712 286.589C148.241 287.676 151.109 295.457 151.227 295.78C151.286 295.927 151.212 296.103 151.05 296.162C151.021 296.162 150.977 296.176 150.947 296.176L150.991 296.22Z" fill="#A37B90"/>
<path d="M205.42 292.932C205.258 292.932 205.097 292.917 204.935 292.888C204.288 292.741 203.817 292.315 203.523 291.61C203.273 291.008 203.317 290.465 203.655 289.995C204.288 289.1 205.994 288.659 207.729 288.439C205.597 288.116 203.405 287.543 202.714 286.56C202.479 286.222 202.42 285.84 202.552 285.459C202.67 285.092 202.935 284.813 203.332 284.622C205.817 283.462 213.553 286.501 213.876 286.633C214.023 286.692 214.097 286.868 214.038 287.015C213.979 287.162 213.803 287.235 213.656 287.176C211.494 286.325 205.45 284.284 203.567 285.15C203.317 285.268 203.17 285.429 203.097 285.635C203.023 285.855 203.052 286.031 203.185 286.222C204.17 287.631 209.788 288.16 212.097 288.263C212.185 288.263 212.259 288.263 212.273 288.263C212.435 288.263 212.567 288.41 212.553 288.571C212.553 288.733 212.42 288.85 212.259 288.85C212.2 288.85 212.112 288.85 212.009 288.85C209.95 288.777 205.126 288.909 204.111 290.318C203.905 290.612 203.876 290.964 204.052 291.361C204.258 291.875 204.582 292.183 205.038 292.271C206.7 292.638 209.626 290.289 210.612 289.349C210.729 289.232 210.92 289.246 211.023 289.349C211.141 289.467 211.126 289.658 211.023 289.76C210.876 289.892 207.67 292.873 205.391 292.873L205.42 292.932Z" fill="#A37B90"/>
<path d="M176.257 309.83C176.272 310.197 175.993 310.52 175.625 310.55L132.711 314C132.329 314.029 132.005 313.75 131.976 313.369L131.652 309.463C131.652 309.082 131.888 308.773 132.226 308.729C132.461 308.685 132.653 308.553 132.741 308.347C132.785 308.245 132.814 308.113 132.8 307.98C132.667 306.835 132.579 304.354 133.932 302.269C135.77 299.45 145.447 296.338 149.712 294.414C152.492 293.166 153.903 289.878 154.55 287.749C154.903 286.574 155.948 285.737 157.183 285.679C162.051 285.488 173.537 285.018 174.272 285.15C175.213 285.326 176.257 293.886 175.919 297.248C175.595 300.61 174.89 304.545 174.89 304.545L176.007 304.339L176.243 309.83H176.257Z" fill="#F7B369"/>
<path d="M176.257 309.83C176.272 310.197 175.993 310.52 175.625 310.55L132.711 314C132.329 314.029 132.005 313.75 131.976 313.369L131.652 309.463C131.652 309.082 131.888 308.773 132.226 308.729C132.461 308.685 132.653 308.553 132.741 308.348C144.815 307.54 174.89 304.545 174.89 304.545L176.007 304.339L176.243 309.83H176.257Z" fill="#F7B369"/>
<path d="M241.333 280.188C241.598 280.437 241.613 280.863 241.363 281.142L212.391 312.928C212.141 313.207 211.7 313.222 211.42 312.972L208.509 310.344C208.244 310.065 208.214 309.684 208.42 309.405C208.567 309.214 208.611 308.979 208.538 308.773C208.509 308.67 208.435 308.553 208.332 308.465C207.45 307.716 205.7 305.969 205.258 303.517C204.67 300.199 209.612 291.331 211.42 287.015C212.597 284.211 211.376 280.848 210.391 278.852C209.847 277.751 210.038 276.429 210.891 275.548C214.318 272.083 222.377 263.92 223.009 263.509C223.803 262.995 230.436 268.545 232.495 271.232C234.554 273.904 236.73 277.251 236.73 277.251L237.407 276.341L241.348 280.188H241.333Z" fill="#F7B369"/>
<path d="M241.333 280.188C241.598 280.437 241.613 280.863 241.363 281.142L212.391 312.928C212.141 313.207 211.7 313.222 211.42 312.972L208.509 310.344C208.244 310.065 208.214 309.684 208.42 309.405C208.567 309.214 208.611 308.979 208.538 308.773C216.803 299.964 236.716 277.251 236.716 277.251L237.392 276.341L241.333 280.188Z" fill="#F7B369"/>
<path d="M154.83 185.475C154.83 185.475 143.476 214.927 140.388 235.071C137.3 255.229 147.962 287.954 147.962 287.954L180.757 287.529C180.757 287.529 174.595 255.082 173.463 245.216C172.625 234.351 178.507 187.325 178.507 187.325L154.815 185.461L154.83 185.475Z" fill="#68B6D8"/>
<path d="M192.964 184.903C192.964 184.903 199.126 211.198 211.465 233.221C223.803 255.229 229.686 261.527 229.686 261.527L203.935 283.667C203.935 283.667 174.463 250.956 170.816 228.655C167.169 206.353 167.448 186.342 167.448 186.342L192.964 184.918V184.903Z" fill="#68B6D8"/>
<path d="M190.802 197.749C185.728 197.749 183.39 192.596 183.36 192.537C183.302 192.391 183.36 192.214 183.508 192.156C183.655 192.097 183.831 192.156 183.89 192.302C184.008 192.567 186.758 198.572 192.89 196.868C193.052 196.824 193.214 196.913 193.258 197.074C193.302 197.236 193.214 197.397 193.052 197.441C192.243 197.661 191.493 197.764 190.787 197.764L190.802 197.749Z" fill="#40507F"/>
<path d="M204.214 231.885C203.979 231.885 203.773 231.811 203.582 231.679C202.979 231.239 202.92 230.769 202.964 230.446C203.214 228.831 207.244 227.421 207.7 227.26C207.817 227.23 207.935 227.26 208.023 227.348C208.097 227.436 208.111 227.568 208.067 227.671C207.861 228.067 206.038 231.503 204.494 231.855C204.405 231.87 204.317 231.885 204.229 231.885H204.214ZM207.155 228.082C205.597 228.699 203.67 229.712 203.552 230.534C203.552 230.622 203.494 230.872 203.935 231.209C204.052 231.297 204.185 231.327 204.347 231.283C205.229 231.077 206.45 229.286 207.155 228.097V228.082Z" fill="#40507F"/>
<path d="M203.258 275.607C203.17 275.607 203.096 275.578 203.038 275.504C202.935 275.387 202.949 275.196 203.082 275.093L225.436 256.653C225.568 256.55 225.744 256.565 225.847 256.697C225.95 256.829 225.936 257.005 225.803 257.108L203.449 275.548C203.449 275.548 203.332 275.622 203.258 275.622V275.607Z" fill="#40507F"/>
<path d="M173.051 238.095C172.934 238.095 172.831 238.036 172.786 237.919C168.875 229.462 167.58 203.402 167.448 200.598L158.006 197.735C157.845 197.691 157.756 197.529 157.815 197.368C157.859 197.206 158.036 197.133 158.183 197.177L167.83 200.098C167.948 200.128 168.036 200.245 168.036 200.363C168.036 200.642 169.33 229.022 173.331 237.669C173.404 237.816 173.331 237.992 173.184 238.066C173.139 238.08 173.095 238.095 173.066 238.095H173.051Z" fill="#40507F"/>
<path d="M150.991 281.671C150.83 281.671 150.697 281.539 150.697 281.377C150.697 281.216 150.83 281.083 150.991 281.083L178.978 280.54C179.154 280.57 179.272 280.672 179.272 280.834C179.272 280.995 179.14 281.127 178.978 281.127L150.991 281.671Z" fill="#40507F"/>
<path d="M132.741 308.641C132.594 308.641 132.461 308.524 132.447 308.377C132.447 308.215 132.55 308.069 132.711 308.054L174.86 304.251C175.037 304.237 175.169 304.354 175.184 304.516C175.184 304.677 175.081 304.824 174.919 304.839L132.77 308.641C132.77 308.641 132.755 308.641 132.741 308.641Z" fill="#A37B90"/>
<path d="M208.538 309.067C208.538 309.067 208.406 309.038 208.347 308.994C208.229 308.891 208.214 308.7 208.317 308.582L236.51 277.061C236.613 276.943 236.804 276.928 236.921 277.031C237.039 277.134 237.054 277.325 236.951 277.442L208.759 308.964C208.759 308.964 208.626 309.067 208.538 309.067Z" fill="#A37B90"/>
<path d="M147.58 115.722C147.58 115.722 143.447 129.905 150.153 135.675C156.859 141.445 166.874 138.89 169.066 138.714C171.257 138.538 177.522 137.98 181.831 138.802C186.155 139.624 196.346 139.374 202.861 130.653C209.376 121.932 209.656 115.472 209.656 115.472L228.671 115.722C228.671 115.722 230.23 138.743 219.494 150.547C211.935 158.857 197.082 161.911 197.082 161.911C197.082 161.911 196.537 170.896 196.17 175.58C195.802 180.249 193.773 186.356 193.773 186.356C193.773 186.356 183.096 188.603 171.816 188.412C160.536 188.236 153.683 186.885 153.683 186.885C153.683 186.885 153.094 184.11 153.006 177.547C152.918 170.984 153.918 162.175 153.918 162.175C153.918 162.175 132.432 161.265 127.093 146.95C121.755 132.636 129.211 114.988 129.211 114.988L147.58 115.707V115.722Z" fill="#F7B369"/>
<path d="M181.493 129.934L180.713 140.652C180.713 140.652 179.066 143.544 174.389 143.441C170.904 143.368 169.772 142.149 169.772 142.149L170.639 136.79L171.492 131.564L180.037 130.184L181.478 129.949L181.493 129.934Z" fill="#F48462"/>
<path d="M180.051 131.843C180.007 132.063 179.904 132.298 179.743 132.577C177.581 136.35 172.654 136.732 170.639 136.717L171.492 131.534L180.037 131.828L180.051 131.843Z" fill="black"/>
<path d="M172.183 115.223C172.183 115.223 167.61 124.384 168.58 129.846C169.566 135.308 174.139 134.867 176.919 134.074C179.698 133.281 181.096 131.608 181.096 131.608C181.096 131.608 183.552 132.753 185.434 130.375C187.316 127.996 186.493 125.001 185.11 124.208C183.713 123.415 181.919 124.384 181.919 124.384L183.478 121.742C183.478 121.742 178.904 107.207 172.183 115.223Z" fill="#F48462"/>
<path d="M162.404 139.418C162.404 139.418 161.742 142.355 165.58 144.616C169.419 146.877 174.301 147.949 174.301 147.949C174.301 147.949 182.404 145.967 187.581 143.427C191.537 141.489 192.625 139.374 190.934 137.73C189.228 136.071 183.287 136.071 183.287 136.071C183.287 136.071 179.375 137.334 177.463 138.508C175.551 139.683 174.316 140.226 174.316 140.226C174.316 140.226 171.066 137.833 168.58 137.304C166.095 136.761 165.595 137.539 165.595 137.539L162.418 139.418H162.404Z" fill="#5C69A5"/>
<path d="M168.669 154.717C168.669 154.717 168.61 154.717 168.58 154.717C168.419 154.673 168.345 154.497 168.389 154.35L170.257 148.58C170.301 148.418 170.478 148.345 170.625 148.389C170.786 148.433 170.86 148.609 170.816 148.756L168.948 154.526C168.904 154.644 168.786 154.732 168.669 154.732V154.717Z" fill="#5C69A5"/>
<path d="M181.493 155.084C181.36 155.084 181.243 154.996 181.213 154.864L179.772 148.727C179.728 148.565 179.831 148.418 179.993 148.374C180.154 148.345 180.316 148.433 180.346 148.595L181.787 154.732C181.831 154.893 181.728 155.04 181.566 155.084C181.537 155.084 181.522 155.084 181.493 155.084Z" fill="#5C69A5"/>
<path d="M142.785 137.128C142.55 137.128 142.241 137.04 142.021 136.658C141.844 136.35 141.8 136.012 141.918 135.645C142.491 133.766 147.124 131.564 147.33 131.461C147.447 131.402 147.594 131.432 147.683 131.534C147.771 131.637 147.785 131.769 147.712 131.887C147.168 132.768 144.374 137.128 142.8 137.128H142.785ZM146.609 132.489C145.065 133.311 142.815 134.735 142.476 135.821C142.418 136.027 142.432 136.203 142.521 136.365C142.609 136.526 142.697 136.512 142.785 136.541C143.609 136.541 145.374 134.339 146.609 132.489Z" fill="#5C69A5"/>
<path d="M204.891 138.171C202.758 138.171 200.008 134.5 199.67 134.03C199.596 133.928 199.596 133.781 199.67 133.678C199.743 133.575 199.89 133.531 200.008 133.575C201.42 134.089 206.053 135.895 206.155 137.231C206.155 137.451 206.097 137.745 205.67 137.98C205.435 138.112 205.17 138.171 204.905 138.171H204.891ZM200.788 134.515C202.038 136.012 204.17 138.112 205.376 137.466C205.464 137.422 205.567 137.348 205.552 137.275C205.508 136.702 203.199 135.469 200.788 134.515Z" fill="#5C69A5"/>
<path d="M141.109 109.614C141.109 109.614 141.02 109.614 140.976 109.585C139.741 109.013 140.329 106.84 140.403 106.59C140.447 106.429 140.623 106.34 140.77 106.384C140.932 106.429 141.02 106.605 140.976 106.766C140.829 107.265 140.579 108.734 141.226 109.042C141.373 109.115 141.447 109.291 141.373 109.438C141.315 109.556 141.212 109.614 141.094 109.614H141.109Z" fill="black"/>
<path d="M180.243 1.54157L198.243 33.1956C198.361 33.4011 198.567 33.5479 198.802 33.6067L234.627 41.0063C236.892 41.3293 237.789 44.1041 236.157 45.7045L211.009 72.1905C210.832 72.3813 210.744 72.6456 210.788 72.9099L217.082 109.835C217.465 112.081 215.097 113.799 213.082 112.742L178.154 95.006C177.919 94.8885 177.625 94.8885 177.39 95.006L143.168 112.742C141.138 113.799 138.785 112.096 139.167 109.835L144.962 72.998C145.006 72.7484 144.918 72.4841 144.741 72.2932L119.373 45.7192C117.74 44.1335 118.637 41.3587 120.902 41.021L156.992 33.636C157.227 33.592 157.433 33.4452 157.551 33.2249L175.287 1.54157C176.301 -0.499207 179.228 -0.499207 180.228 1.54157H180.243Z" fill="#FFB655"/>
<path d="M136.05 43.3554C135.711 43.3554 135.403 43.1205 135.329 42.7681C135.241 42.3717 135.506 41.9753 135.903 41.9019L157.271 37.468C157.668 37.3946 158.065 37.6442 158.139 38.0406C158.227 38.437 157.962 38.8334 157.565 38.9068L136.197 43.3407C136.197 43.3407 136.094 43.3554 136.05 43.3554Z" fill="#FFDD92"/>
<path d="M221.744 103.228C221.744 103.228 227.348 99.1463 225.995 103.947C224.98 107.588 220.171 112.448 218.788 111.45C217.391 110.451 218.612 106.913 218.612 106.913C218.612 106.913 216.494 108.719 215.141 106.986C213.906 105.415 215.524 102.655 215.524 102.655C215.524 102.655 213.479 105.166 212.141 103.316C210.17 100.6 216.832 94.8445 218.818 94.8445C221.45 94.8445 219.112 98.2801 219.112 98.2801C219.112 98.2801 223.244 95.6374 223.906 98.2361C224.568 100.835 221.744 103.228 221.744 103.228Z" fill="#F48462"/>
<path d="M219.494 111.817C219.141 111.817 218.744 111.714 218.332 111.42C217.7 110.95 217.465 110.07 217.656 108.88C217.832 107.794 218.347 106.737 219.127 105.827L221.509 103.037C221.612 102.905 221.803 102.89 221.921 103.008C222.038 103.11 222.053 103.301 221.95 103.419L219.568 106.208C218.862 107.045 218.406 107.999 218.229 108.983C218.068 109.952 218.215 110.613 218.671 110.95C219.538 111.582 220.215 111.009 220.288 110.95C220.406 110.848 220.597 110.848 220.7 110.965C220.803 111.083 220.803 111.273 220.685 111.376C220.465 111.582 220.009 111.831 219.48 111.831L219.494 111.817Z" fill="black"/>
<path d="M216.715 107.911C216.126 107.911 215.509 107.721 214.935 107.207C213.112 105.577 215.185 102.611 215.274 102.494L218.877 98.1039C218.98 97.9718 219.171 97.9571 219.288 98.0599C219.406 98.1626 219.435 98.3535 219.333 98.471L215.744 102.846C215.744 102.846 213.891 105.489 215.332 106.766C216.774 108.044 218.347 106.752 218.421 106.693C218.538 106.59 218.73 106.605 218.832 106.722C218.935 106.84 218.921 107.03 218.803 107.133C218.391 107.486 217.597 107.911 216.729 107.911H216.715Z" fill="black"/>
<path d="M135.27 103.228C135.27 103.228 129.667 99.1463 131.02 103.947C132.035 107.588 136.844 112.448 138.226 111.45C139.623 110.451 138.403 106.913 138.403 106.913C138.403 106.913 140.52 108.719 141.873 106.986C143.109 105.415 141.491 102.655 141.491 102.655C141.491 102.655 143.535 105.166 144.874 103.316C146.844 100.6 140.182 94.8445 138.197 94.8445C135.564 94.8445 137.903 98.2801 137.903 98.2801C137.903 98.2801 133.77 95.6374 133.108 98.2361C132.447 100.835 135.27 103.228 135.27 103.228Z" fill="#F48462"/>
<path d="M137.52 111.817C136.976 111.817 136.535 111.567 136.314 111.362C136.197 111.259 136.182 111.068 136.3 110.95C136.417 110.833 136.594 110.818 136.712 110.936C136.785 110.995 137.476 111.567 138.329 110.936C138.785 110.598 138.932 109.937 138.77 108.968C138.609 107.985 138.138 107.03 137.432 106.194L135.05 103.404C134.947 103.287 134.961 103.096 135.079 102.993C135.211 102.89 135.388 102.905 135.491 103.022L137.873 105.812C138.653 106.722 139.153 107.779 139.344 108.866C139.55 110.07 139.315 110.921 138.667 111.406C138.27 111.699 137.873 111.802 137.506 111.802L137.52 111.817Z" fill="black"/>
<path d="M140.3 107.911C139.432 107.911 138.653 107.486 138.226 107.133C138.109 107.03 138.094 106.84 138.197 106.722C138.3 106.605 138.491 106.59 138.609 106.693C138.667 106.752 140.256 108.058 141.697 106.766C143.124 105.489 141.285 102.861 141.271 102.831L137.697 98.471C137.594 98.3388 137.609 98.1626 137.741 98.0599C137.859 97.9571 138.05 97.9718 138.153 98.1039L141.741 102.479C141.844 102.626 143.918 105.592 142.094 107.207C141.506 107.721 140.888 107.911 140.3 107.911Z" fill="black"/>
<path d="M181.919 124.384L180.449 125.515L181.831 122.153C181.831 122.153 178.051 120.009 177.022 118.159C175.993 116.309 175.419 115.619 175.419 115.619L172.198 115.223C172.198 115.223 168.448 108.205 172.86 107.853C177.272 107.5 183.934 114.181 185.258 116.676C186.596 119.187 185.258 121.257 185.258 121.257C185.258 121.257 186.89 121.375 187.184 122.608C187.478 123.856 186.184 125.5 186.184 125.5C186.184 125.5 184.669 123.371 181.919 124.37V124.384Z" fill="black"/>
<path d="M157.609 72.4988C157.609 72.4988 176.404 55.8202 195.199 73.7908" stroke="white" stroke-miterlimit="10"/>
<path d="M60.9584 101.745H10.7358C4.52962 101.745 -0.5 106.766 -0.5 112.962V128.363C-0.5 134.559 4.52962 139.58 10.7358 139.58H47.0608L59.0465 151.546V139.58H60.9584C67.1645 139.58 72.1941 134.559 72.1941 128.363V112.962C72.1941 106.766 67.1645 101.745 60.9584 101.745Z" fill="#599BFF"/>
<path d="M17.1625 125.089C19.6073 125.089 21.5891 123.111 21.5891 120.67C21.5891 118.229 19.6073 116.251 17.1625 116.251C14.7177 116.251 12.7358 118.229 12.7358 120.67C12.7358 123.111 14.7177 125.089 17.1625 125.089Z" fill="white"/>
<path d="M35.8544 125.089C38.2992 125.089 40.2811 123.111 40.2811 120.67C40.2811 118.229 38.2992 116.251 35.8544 116.251C33.4096 116.251 31.4278 118.229 31.4278 120.67C31.4278 123.111 33.4096 125.089 35.8544 125.089Z" fill="white"/>
<path d="M54.5316 125.089C56.9764 125.089 58.9583 123.111 58.9583 120.67C58.9583 118.229 56.9764 116.251 54.5316 116.251C52.0869 116.251 50.105 118.229 50.105 120.67C50.105 123.111 52.0869 125.089 54.5316 125.089Z" fill="white"/>
<path d="M65.6056 205.384H115.828C122.034 205.384 127.064 200.362 127.064 194.167V178.766C127.064 172.571 122.034 167.549 115.828 167.549H65.6056C59.4003 167.549 54.3699 172.571 54.3699 178.766V194.167C54.3699 200.362 59.4003 205.384 65.6056 205.384Z" fill="#FF5970"/>
<path d="M109.387 190.878C111.832 190.878 113.813 188.9 113.813 186.459C113.813 184.018 111.832 182.04 109.387 182.04C106.942 182.04 104.96 184.018 104.96 186.459C104.96 188.9 106.942 190.878 109.387 190.878Z" fill="white"/>
<path d="M90.7096 190.878C93.1544 190.878 95.1363 188.9 95.1363 186.459C95.1363 184.018 93.1544 182.04 90.7096 182.04C88.2648 182.04 86.283 184.018 86.283 186.459C86.283 188.9 88.2648 190.878 90.7096 190.878Z" fill="white"/>
<path d="M72.0324 190.878C74.4771 190.878 76.459 188.9 76.459 186.459C76.459 184.018 74.4771 182.04 72.0324 182.04C69.5876 182.04 67.6057 184.018 67.6057 186.459C67.6057 188.9 69.5876 190.878 72.0324 190.878Z" fill="white"/>
<path d="M67.5028 198.439V217.35L82.974 201.904C82.974 201.904 66.9292 199.012 67.5028 198.425V198.439Z" fill="#FF5970"/>
<path d="M343.108 159H232.544C227.544 159 223.5 163.038 223.5 168.029V214.996C223.5 219.988 227.544 224.026 232.544 224.026H275.076L282.694 231.631L290.312 224.026H343.108C348.108 224.026 352.152 219.988 352.152 214.996V168.029C352.152 163.038 348.108 159 343.108 159Z" fill="white" stroke="#BBABF8" stroke-width="0.29" stroke-miterlimit="10"/>
<path d="M247.84 186.591C252.645 184.57 254.9 179.043 252.876 174.245C250.852 169.448 245.316 167.197 240.51 169.217C235.705 171.238 233.45 176.765 235.474 181.563C237.498 186.36 243.034 188.611 247.84 186.591Z" fill="#DAE0FF"/>
<path d="M262.938 172.255C263.232 171.334 264.533 171.325 264.84 172.242L265.375 173.844C265.512 174.255 265.898 174.531 266.331 174.528L267.986 174.514C268.956 174.506 269.368 175.745 268.587 176.32L267.25 177.303C266.901 177.56 266.757 178.013 266.894 178.425L267.423 180.01C267.73 180.929 266.681 181.703 265.893 181.14L264.533 180.167C264.181 179.916 263.707 179.919 263.359 180.175L262.011 181.166C261.231 181.74 260.172 180.979 260.466 180.056L260.971 178.473C261.103 178.059 260.953 177.607 260.599 177.355L259.233 176.382C258.444 175.819 258.836 174.575 259.805 174.567L261.483 174.554C261.915 174.55 262.296 174.27 262.428 173.858L262.938 172.255Z" fill="#FAAF3B"/>
<path d="M280.395 172.255C280.689 171.334 281.99 171.325 282.296 172.242L282.831 173.844C282.968 174.255 283.355 174.531 283.788 174.528L285.451 174.514C286.42 174.506 286.833 175.743 286.053 176.319L284.718 177.303C284.37 177.56 284.227 178.012 284.363 178.422L284.892 180.02C285.196 180.939 284.148 181.71 283.361 181.148L281.989 180.167C281.637 179.916 281.164 179.919 280.815 180.175L279.468 181.166C278.688 181.74 277.629 180.979 277.923 180.056L278.428 178.472C278.56 178.058 278.41 177.607 278.057 177.355L276.695 176.381C275.907 175.817 276.3 174.575 277.269 174.567L278.939 174.554C279.372 174.55 279.753 174.27 279.884 173.858L280.395 172.255Z" fill="#FAAF3B"/>
<path d="M297.852 172.255C298.145 171.334 299.446 171.325 299.753 172.242L300.288 173.844C300.425 174.255 300.811 174.531 301.244 174.528L302.914 174.514C303.884 174.506 304.296 175.745 303.514 176.32L302.178 177.303C301.828 177.56 301.685 178.013 301.822 178.425L302.354 180.017C302.66 180.936 301.613 181.71 300.825 181.149L299.447 180.166C299.094 179.915 298.62 179.919 298.272 180.176L296.932 181.165C296.153 181.74 295.093 180.982 295.385 180.059L295.887 178.47C296.018 178.058 295.867 177.608 295.515 177.356L294.152 176.381C293.364 175.817 293.757 174.575 294.725 174.567L296.396 174.554C296.828 174.55 297.209 174.27 297.341 173.858L297.852 172.255Z" fill="#FAAF3B"/>
<path d="M315.312 172.27C315.604 171.347 316.907 171.336 317.214 172.255L317.744 173.844C317.882 174.255 318.268 174.531 318.701 174.528L320.371 174.514C321.34 174.506 321.752 175.745 320.971 176.32L319.635 177.303C319.285 177.56 319.141 178.013 319.279 178.425L319.808 180.01C320.115 180.929 319.066 181.703 318.278 181.14L316.917 180.167C316.565 179.916 316.092 179.919 315.743 180.175L314.385 181.174C313.606 181.747 312.548 180.989 312.839 180.067L313.344 178.47C313.474 178.058 313.324 177.608 312.972 177.356L311.608 176.381C310.82 175.818 311.213 174.575 312.182 174.567L313.865 174.554C314.299 174.55 314.68 174.268 314.811 173.855L315.312 172.27Z" fill="#E8ECFF"/>
<path d="M332.768 172.27C333.06 171.347 334.364 171.336 334.67 172.255L335.201 173.844C335.338 174.255 335.724 174.531 336.157 174.528L337.827 174.514C338.797 174.506 339.209 175.745 338.428 176.32L337.091 177.303C336.742 177.56 336.598 178.013 336.735 178.425L337.264 180.01C337.571 180.929 336.523 181.703 335.734 181.14L334.374 180.167C334.022 179.916 333.548 179.919 333.2 180.175L331.842 181.174C331.062 181.747 330.004 180.989 330.296 180.067L330.8 178.47C330.931 178.058 330.781 177.608 330.428 177.356L329.065 176.381C328.277 175.818 328.67 174.575 329.638 174.567L331.322 174.554C331.755 174.55 332.137 174.268 332.267 173.855L332.768 172.27Z" fill="#E8ECFF"/>
<path d="M242.56 191.55H234.221V193.781H242.56V191.55Z" fill="#BBABF8"/>
<path d="M257.148 191.55H244.633V193.781H257.148V191.55Z" fill="#BBABF8"/>
<path d="M252.222 198.156H234.221V200.388H252.222V198.156Z" fill="#E6DFFC"/>
<path d="M301.68 198.156H259.56V200.388H301.68V198.156Z" fill="#E6DFFC"/>
<path d="M341.417 198.156H309.003V200.388H341.417V198.156Z" fill="#E6DFFC"/>
<path d="M274.458 205.248H234.221V207.479H274.458V205.248Z" fill="#E6DFFC"/>
<path d="M341.402 205.248H321.298V207.479H341.402V205.248Z" fill="#E6DFFC"/>
<path d="M316.577 205.248H281.326V207.479H316.577V205.248Z" fill="#E6DFFC"/>
<path d="M285.576 212.324H234.221V214.556H285.576V212.324Z" fill="#E6DFFC"/>
</g>
<defs>
<clipPath id="clip0_1795_7480">
<rect width="361" height="314" fill="white" transform="translate(-0.5)"/>
</clipPath>
</defs>
</svg>
