<svg width="20" height="21" viewBox="0 0 20 21" fill="none" xmlns="http://www.w3.org/2000/svg">
<path d="M14.1667 15.8583H10.8334L7.12501 18.3249C6.57501 18.6916 5.83335 18.3 5.83335 17.6333V15.8583C3.33335 15.8583 1.66669 14.1916 1.66669 11.6916V6.69157C1.66669 4.19157 3.33335 2.5249 5.83335 2.5249H14.1667C16.6667 2.5249 18.3334 4.19157 18.3334 6.69157V11.6916C18.3334 14.1916 16.6667 15.8583 14.1667 15.8583Z" stroke="#303030" stroke-width="1.5" stroke-miterlimit="10" stroke-linecap="round" stroke-linejoin="round"/>
<path d="M9.99983 9.9668V9.79183C9.99983 9.22516 10.3498 8.92515 10.6998 8.68348C11.0415 8.45015 11.3831 8.15016 11.3831 7.60016C11.3831 6.83349 10.7665 6.2168 9.99983 6.2168C9.23316 6.2168 8.61652 6.83349 8.61652 7.60016" stroke="#303030" stroke-width="1.5" stroke-linecap="round" stroke-linejoin="round"/>
<path d="M9.99623 11.9582H10.0037" stroke="#303030" stroke-width="1.5" stroke-linecap="round" stroke-linejoin="round"/>
</svg>
