<svg width="358" height="316" viewBox="0 0 358 316" fill="none" xmlns="http://www.w3.org/2000/svg">
<g clip-path="url(#clip0_286_1593)">
<g clip-path="url(#clip1_286_1593)">
<path d="M133.667 122.741C133.667 122.741 129.358 114.769 128.711 109.249C128.079 103.714 128.535 102.98 130.211 101.497C130.917 100.865 131.226 98.7365 133.255 98.3107C135.285 97.885 137.02 103.126 137.02 103.126C137.02 103.126 137.594 99.3385 139.3 99.9111C141.006 100.484 141.771 107.413 141.771 107.413C141.771 107.413 143.535 102.627 144.859 103.068C146.182 103.493 146.977 111.642 146.138 113.976C145.315 116.311 143.021 119.188 143.021 119.188L133.653 122.741H133.667Z" fill="#F48462"/>
<path d="M138.667 117.368C138.506 117.368 138.373 117.236 138.373 117.074C138.373 109.249 142.403 107.355 142.565 107.281C142.712 107.223 142.888 107.281 142.947 107.428C143.021 107.575 142.947 107.751 142.8 107.81C142.756 107.825 138.932 109.66 138.947 117.074C138.947 117.236 138.814 117.368 138.653 117.368H138.667Z" fill="black"/>
<path d="M222.333 122.741C222.333 122.741 226.642 114.769 227.289 109.249C227.921 103.714 227.465 102.98 225.789 101.497C225.083 100.865 224.774 98.7365 222.744 98.3107C220.7 97.885 218.98 103.126 218.98 103.126C218.98 103.126 218.406 99.3385 216.7 99.9111C214.994 100.484 214.229 107.413 214.229 107.413C214.229 107.413 212.465 102.627 211.141 103.068C209.817 103.493 209.023 111.642 209.862 113.976C210.685 116.311 212.979 119.188 212.979 119.188L222.347 122.741H222.333Z" fill="#F48462"/>
<path d="M217.332 117.368C217.171 117.368 217.038 117.236 217.038 117.074C217.038 109.66 213.229 107.839 213.185 107.81C213.038 107.736 212.979 107.575 213.038 107.428C213.097 107.281 213.273 107.223 213.421 107.281C213.597 107.355 217.627 109.263 217.612 117.074C217.612 117.236 217.48 117.368 217.318 117.368H217.332Z" fill="black"/>
<path d="M169.61 148.964C169.61 148.964 160.801 143.561 161.889 140.419C162.977 137.292 169.625 133.519 176.463 133.519C183.302 133.519 190.846 136.925 191.037 140.346C191.214 143.752 169.625 148.964 169.625 148.964H169.61Z" fill="#5C69A5"/>
<path d="M150.491 297.22C150.374 297.22 150.256 297.147 150.212 297.03C149.418 294.842 146.918 288.984 145.006 288.176C144.756 288.074 144.535 288.059 144.329 288.147C144.123 288.235 144.006 288.382 143.947 288.602C143.55 290.261 146.888 294.813 148.344 296.604C148.403 296.677 148.447 296.721 148.462 296.736C148.565 296.868 148.55 297.044 148.418 297.147C148.285 297.25 148.109 297.235 148.006 297.103C147.977 297.059 147.918 297 147.859 296.927C146.579 295.385 143.403 292.008 141.638 292.008C141.594 292.008 141.535 292.008 141.491 292.008C141.123 292.052 140.859 292.258 140.667 292.654C140.417 293.154 140.417 293.594 140.638 294.005C141.462 295.459 145.182 296.09 146.535 296.222C146.697 296.222 146.815 296.384 146.8 296.545C146.8 296.707 146.653 296.839 146.477 296.809C146.271 296.795 141.256 296.325 140.109 294.299C139.785 293.726 139.785 293.08 140.109 292.405C140.403 291.817 140.829 291.494 141.403 291.421C142.476 291.304 143.962 292.273 145.271 293.418C144.094 291.612 143.065 289.586 143.344 288.426C143.447 288.03 143.682 287.736 144.065 287.56C144.418 287.398 144.8 287.413 145.212 287.589C147.741 288.676 150.609 296.457 150.727 296.78C150.786 296.927 150.712 297.103 150.55 297.162C150.521 297.162 150.477 297.176 150.447 297.176L150.491 297.22Z" fill="#A37B90"/>
<path d="M204.92 293.932C204.758 293.932 204.597 293.917 204.435 293.888C203.788 293.741 203.317 293.315 203.023 292.61C202.773 292.008 202.817 291.465 203.155 290.995C203.788 290.1 205.494 289.659 207.229 289.439C205.097 289.116 202.905 288.543 202.214 287.56C201.979 287.222 201.92 286.84 202.052 286.459C202.17 286.092 202.435 285.813 202.832 285.622C205.317 284.462 213.053 287.501 213.376 287.633C213.523 287.692 213.597 287.868 213.538 288.015C213.479 288.162 213.303 288.235 213.156 288.176C210.994 287.325 204.95 285.284 203.067 286.15C202.817 286.268 202.67 286.429 202.597 286.635C202.523 286.855 202.552 287.031 202.685 287.222C203.67 288.632 209.288 289.16 211.597 289.263C211.685 289.263 211.759 289.263 211.773 289.263C211.935 289.263 212.067 289.41 212.053 289.571C212.053 289.733 211.92 289.85 211.759 289.85C211.7 289.85 211.612 289.85 211.509 289.85C209.45 289.777 204.626 289.909 203.611 291.318C203.405 291.612 203.376 291.964 203.552 292.361C203.758 292.875 204.082 293.183 204.538 293.271C206.2 293.638 209.126 291.289 210.112 290.349C210.229 290.232 210.42 290.247 210.523 290.349C210.641 290.467 210.626 290.658 210.523 290.76C210.376 290.893 207.17 293.873 204.891 293.873L204.92 293.932Z" fill="#A37B90"/>
<path d="M175.757 310.83C175.772 311.197 175.493 311.52 175.125 311.55L132.211 315C131.829 315.029 131.505 314.75 131.476 314.368L131.152 310.463C131.152 310.081 131.388 309.773 131.726 309.729C131.961 309.685 132.153 309.553 132.241 309.347C132.285 309.245 132.314 309.112 132.3 308.98C132.167 307.835 132.079 305.354 133.432 303.269C135.27 300.45 144.947 297.338 149.212 295.414C151.992 294.166 153.403 290.878 154.05 288.749C154.403 287.574 155.448 286.737 156.683 286.679C161.551 286.488 173.037 286.018 173.772 286.15C174.713 286.326 175.757 294.886 175.419 298.248C175.095 301.61 174.39 305.545 174.39 305.545L175.507 305.339L175.743 310.83H175.757Z" fill="#F7B369"/>
<path d="M175.757 310.831C175.772 311.198 175.493 311.521 175.125 311.55L132.211 315C131.829 315.03 131.505 314.751 131.476 314.369L131.152 310.464C131.152 310.082 131.388 309.774 131.726 309.73C131.961 309.686 132.153 309.554 132.241 309.348C144.315 308.54 174.39 305.545 174.39 305.545L175.507 305.34L175.743 310.831H175.757Z" fill="#F7B369"/>
<path d="M240.833 281.188C241.098 281.437 241.113 281.863 240.863 282.142L211.891 313.928C211.641 314.207 211.2 314.222 210.92 313.972L208.009 311.344C207.744 311.065 207.714 310.683 207.92 310.404C208.067 310.213 208.111 309.979 208.038 309.773C208.009 309.67 207.935 309.553 207.832 309.465C206.95 308.716 205.2 306.969 204.758 304.517C204.17 301.199 209.112 292.331 210.92 288.015C212.097 285.21 210.876 281.848 209.891 279.851C209.347 278.75 209.538 277.429 210.391 276.548C213.818 273.083 221.877 264.92 222.509 264.509C223.303 263.995 229.936 269.545 231.995 272.232C234.054 274.904 236.23 278.251 236.23 278.251L236.907 277.341L240.848 281.188H240.833Z" fill="#F7B369"/>
<path d="M240.833 281.187C241.098 281.437 241.113 281.863 240.863 282.142L211.891 313.928C211.641 314.207 211.2 314.222 210.92 313.972L208.009 311.344C207.744 311.065 207.714 310.683 207.92 310.404C208.067 310.213 208.111 309.978 208.038 309.773C216.303 300.964 236.216 278.251 236.216 278.251L236.892 277.341L240.833 281.187Z" fill="#F7B369"/>
<path d="M154.33 186.476C154.33 186.476 142.976 215.927 139.888 236.071C136.8 256.229 147.462 288.955 147.462 288.955L180.257 288.529C180.257 288.529 174.095 256.082 172.963 246.216C172.125 235.351 178.007 188.326 178.007 188.326L154.315 186.461L154.33 186.476Z" fill="#68B6D8"/>
<path d="M192.464 185.902C192.464 185.902 198.626 212.197 210.965 234.22C223.303 256.228 229.186 262.527 229.186 262.527L203.435 284.667C203.435 284.667 173.963 251.956 170.316 229.654C166.669 207.352 166.948 187.341 166.948 187.341L192.464 185.917V185.902Z" fill="#68B6D8"/>
<path d="M190.302 198.749C185.228 198.749 182.89 193.596 182.86 193.537C182.802 193.39 182.86 193.214 183.008 193.155C183.155 193.097 183.331 193.155 183.39 193.302C183.508 193.566 186.258 199.571 192.39 197.868C192.552 197.824 192.714 197.912 192.758 198.074C192.802 198.235 192.714 198.397 192.552 198.441C191.743 198.661 190.993 198.764 190.287 198.764L190.302 198.749Z" fill="#40507F"/>
<path d="M203.714 232.885C203.479 232.885 203.273 232.811 203.082 232.679C202.479 232.239 202.42 231.769 202.464 231.446C202.714 229.831 206.744 228.422 207.2 228.26C207.317 228.231 207.435 228.26 207.523 228.348C207.597 228.436 207.611 228.568 207.567 228.671C207.361 229.068 205.538 232.503 203.994 232.855C203.905 232.87 203.817 232.885 203.729 232.885H203.714ZM206.656 229.082C205.097 229.699 203.17 230.712 203.052 231.534C203.052 231.622 202.994 231.872 203.435 232.209C203.552 232.298 203.685 232.327 203.847 232.283C204.729 232.077 205.95 230.286 206.656 229.097V229.082Z" fill="#40507F"/>
<path d="M202.758 276.607C202.67 276.607 202.596 276.577 202.538 276.504C202.435 276.386 202.449 276.196 202.582 276.093L224.936 257.652C225.068 257.55 225.244 257.564 225.347 257.696C225.45 257.829 225.436 258.005 225.303 258.108L202.949 276.548C202.949 276.548 202.832 276.621 202.758 276.621V276.607Z" fill="#40507F"/>
<path d="M172.551 239.095C172.434 239.095 172.331 239.036 172.286 238.919C168.375 230.462 167.08 204.402 166.948 201.598L157.506 198.735C157.345 198.691 157.256 198.529 157.315 198.368C157.359 198.206 157.536 198.133 157.683 198.177L167.33 201.098C167.448 201.128 167.536 201.245 167.536 201.363C167.536 201.642 168.83 230.022 172.831 238.669C172.904 238.816 172.831 238.992 172.684 239.065C172.639 239.08 172.595 239.095 172.566 239.095H172.551Z" fill="#40507F"/>
<path d="M150.491 282.671C150.33 282.671 150.197 282.538 150.197 282.377C150.197 282.215 150.33 282.083 150.491 282.083L178.478 281.54C178.654 281.569 178.772 281.672 178.772 281.834C178.772 281.995 178.64 282.127 178.478 282.127L150.491 282.671Z" fill="#40507F"/>
<path d="M132.241 309.641C132.094 309.641 131.961 309.524 131.947 309.377C131.947 309.215 132.049 309.069 132.211 309.054L174.36 305.251C174.536 305.237 174.669 305.354 174.684 305.516C174.684 305.677 174.581 305.824 174.419 305.839L132.27 309.641C132.27 309.641 132.255 309.641 132.241 309.641Z" fill="#A37B90"/>
<path d="M208.038 310.067C208.038 310.067 207.906 310.038 207.847 309.994C207.729 309.891 207.714 309.7 207.817 309.583L236.01 278.061C236.113 277.944 236.304 277.929 236.421 278.032C236.539 278.134 236.554 278.325 236.451 278.443L208.259 309.965C208.259 309.965 208.126 310.067 208.038 310.067Z" fill="#A37B90"/>
<path d="M147.08 116.722C147.08 116.722 142.947 130.905 149.653 136.675C156.359 142.445 166.374 139.89 168.566 139.714C170.757 139.538 177.022 138.98 181.331 139.802C185.655 140.624 195.846 140.375 202.361 131.654C208.876 122.933 209.156 116.473 209.156 116.473L228.171 116.722C228.171 116.722 229.73 139.743 218.994 151.548C211.435 159.858 196.582 162.911 196.582 162.911C196.582 162.911 196.037 171.897 195.67 176.58C195.302 181.249 193.273 187.357 193.273 187.357C193.273 187.357 182.596 189.603 171.316 189.412C160.036 189.236 153.183 187.885 153.183 187.885C153.183 187.885 152.594 185.11 152.506 178.548C152.418 171.985 153.418 163.176 153.418 163.176C153.418 163.176 131.932 162.265 126.593 147.951C121.255 133.636 128.711 115.988 128.711 115.988L147.08 116.708V116.722Z" fill="#F7B369"/>
<path d="M180.993 130.934L180.213 141.651C180.213 141.651 178.566 144.544 173.889 144.441C170.404 144.367 169.272 143.149 169.272 143.149L170.139 137.79L170.992 132.563L179.537 131.183L180.978 130.948L180.993 130.934Z" fill="#F48462"/>
<path d="M179.551 132.843C179.507 133.063 179.404 133.298 179.243 133.577C177.081 137.35 172.154 137.732 170.139 137.717L170.992 132.534L179.537 132.828L179.551 132.843Z" fill="black"/>
<path d="M171.683 116.223C171.683 116.223 167.11 125.385 168.08 130.846C169.066 136.308 173.639 135.868 176.419 135.075C179.198 134.282 180.596 132.608 180.596 132.608C180.596 132.608 183.052 133.753 184.934 131.375C186.816 128.997 185.993 126.001 184.61 125.209C183.213 124.416 181.419 125.385 181.419 125.385L182.978 122.742C182.978 122.742 178.404 108.207 171.683 116.223Z" fill="#F48462"/>
<path d="M161.904 140.419C161.904 140.419 161.242 143.355 165.08 145.616C168.919 147.877 173.801 148.949 173.801 148.949C173.801 148.949 181.905 146.967 187.081 144.427C191.037 142.489 192.126 140.375 190.434 138.73C188.728 137.071 182.787 137.071 182.787 137.071C182.787 137.071 178.875 138.334 176.963 139.508C175.051 140.683 173.816 141.226 173.816 141.226C173.816 141.226 170.566 138.833 168.08 138.305C165.595 137.761 165.095 138.539 165.095 138.539L161.918 140.419H161.904Z" fill="#5C69A5"/>
<path d="M168.169 155.717C168.169 155.717 168.11 155.717 168.08 155.717C167.919 155.673 167.845 155.497 167.889 155.35L169.757 149.58C169.801 149.419 169.978 149.345 170.125 149.39C170.286 149.434 170.36 149.61 170.316 149.757L168.448 155.527C168.404 155.644 168.286 155.732 168.169 155.732V155.717Z" fill="#5C69A5"/>
<path d="M180.993 156.084C180.86 156.084 180.743 155.996 180.713 155.864L179.272 149.727C179.228 149.566 179.331 149.419 179.493 149.375C179.654 149.345 179.816 149.433 179.846 149.595L181.287 155.732C181.331 155.893 181.228 156.04 181.066 156.084C181.037 156.084 181.022 156.084 180.993 156.084Z" fill="#5C69A5"/>
<path d="M142.285 138.128C142.05 138.128 141.741 138.04 141.521 137.658C141.344 137.35 141.3 137.012 141.418 136.645C141.991 134.766 146.624 132.563 146.83 132.461C146.947 132.402 147.094 132.431 147.183 132.534C147.271 132.637 147.285 132.769 147.212 132.886C146.668 133.767 143.874 138.128 142.3 138.128H142.285ZM146.109 133.488C144.565 134.311 142.315 135.735 141.976 136.821C141.918 137.027 141.932 137.203 142.021 137.364C142.109 137.526 142.197 137.511 142.285 137.541C143.109 137.541 144.874 135.338 146.109 133.488Z" fill="#5C69A5"/>
<path d="M204.391 139.171C202.258 139.171 199.508 135.501 199.17 135.031C199.096 134.928 199.096 134.781 199.17 134.678C199.243 134.576 199.39 134.532 199.508 134.576C200.92 135.089 205.553 136.895 205.655 138.231C205.655 138.452 205.597 138.745 205.17 138.98C204.935 139.112 204.67 139.171 204.405 139.171H204.391ZM200.288 135.515C201.538 137.013 203.67 139.112 204.876 138.466C204.964 138.422 205.067 138.349 205.052 138.275C205.008 137.703 202.699 136.47 200.288 135.515Z" fill="#5C69A5"/>
<path d="M140.609 110.614C140.609 110.614 140.52 110.614 140.476 110.585C139.241 110.012 139.829 107.839 139.903 107.59C139.947 107.428 140.123 107.34 140.27 107.384C140.432 107.428 140.52 107.605 140.476 107.766C140.329 108.265 140.079 109.733 140.726 110.042C140.873 110.115 140.947 110.291 140.873 110.438C140.815 110.556 140.712 110.614 140.594 110.614H140.609Z" fill="black"/>
<path d="M179.743 2.54132L197.743 34.1953C197.861 34.4009 198.067 34.5477 198.302 34.6064L234.127 42.006C236.392 42.329 237.289 45.1039 235.657 46.7042L210.509 73.1902C210.332 73.3811 210.244 73.6454 210.288 73.9096L216.582 110.834C216.965 113.081 214.597 114.798 212.582 113.741L177.654 96.0058C177.419 95.8883 177.125 95.8883 176.89 96.0058L142.668 113.741C140.638 114.798 138.285 113.095 138.668 110.834L144.462 73.9977C144.506 73.7481 144.418 73.4839 144.241 73.293L118.873 46.7189C117.24 45.1333 118.137 42.3584 120.402 42.0207L156.492 34.6358C156.727 34.5917 156.933 34.4449 157.051 34.2247L174.787 2.54132C175.801 0.500549 178.728 0.500549 179.728 2.54132H179.743Z" fill="#FFB655"/>
<path d="M135.55 44.3553C135.212 44.3553 134.903 44.1204 134.829 43.768C134.741 43.3716 135.006 42.9752 135.403 42.9018L156.771 38.4679C157.168 38.3945 157.565 38.644 157.639 39.0405C157.727 39.4369 157.462 39.8333 157.065 39.9067L135.697 44.3406C135.697 44.3406 135.594 44.3553 135.55 44.3553Z" fill="#FFDD92"/>
<path d="M221.244 104.228C221.244 104.228 226.848 100.147 225.495 104.947C224.48 108.589 219.671 113.448 218.288 112.45C216.891 111.452 218.112 107.913 218.112 107.913C218.112 107.913 215.994 109.719 214.641 107.987C213.406 106.416 215.024 103.655 215.024 103.655C215.024 103.655 212.979 106.166 211.641 104.316C209.67 101.6 216.332 95.8447 218.318 95.8447C220.95 95.8447 218.612 99.2803 218.612 99.2803C218.612 99.2803 222.744 96.6376 223.406 99.2362C224.068 101.835 221.244 104.228 221.244 104.228Z" fill="#F48462"/>
<path d="M218.994 112.816C218.641 112.816 218.244 112.714 217.832 112.42C217.2 111.95 216.965 111.069 217.156 109.88C217.332 108.794 217.847 107.737 218.627 106.826L221.009 104.037C221.112 103.905 221.303 103.89 221.421 104.007C221.538 104.11 221.553 104.301 221.45 104.418L219.068 107.208C218.362 108.045 217.906 108.999 217.729 109.983C217.568 110.952 217.715 111.613 218.171 111.95C219.038 112.582 219.715 112.009 219.788 111.95C219.906 111.847 220.097 111.847 220.2 111.965C220.303 112.082 220.303 112.273 220.185 112.376C219.965 112.582 219.509 112.831 218.98 112.831L218.994 112.816Z" fill="black"/>
<path d="M216.215 108.911C215.626 108.911 215.009 108.72 214.435 108.206C212.612 106.577 214.685 103.611 214.774 103.494L218.377 99.1037C218.48 98.9715 218.671 98.9569 218.788 99.0596C218.906 99.1624 218.935 99.3533 218.833 99.4707L215.244 103.846C215.244 103.846 213.391 106.489 214.832 107.766C216.274 109.043 217.847 107.751 217.921 107.693C218.038 107.59 218.23 107.604 218.332 107.722C218.435 107.839 218.421 108.03 218.303 108.133C217.891 108.485 217.097 108.911 216.229 108.911H216.215Z" fill="black"/>
<path d="M134.77 104.228C134.77 104.228 129.167 100.147 130.52 104.947C131.535 108.589 136.344 113.448 137.726 112.45C139.123 111.452 137.903 107.913 137.903 107.913C137.903 107.913 140.02 109.719 141.373 107.987C142.609 106.416 140.991 103.655 140.991 103.655C140.991 103.655 143.035 106.166 144.374 104.316C146.344 101.6 139.682 95.8447 137.697 95.8447C135.064 95.8447 137.403 99.2803 137.403 99.2803C137.403 99.2803 133.27 96.6376 132.608 99.2362C131.947 101.835 134.77 104.228 134.77 104.228Z" fill="#F48462"/>
<path d="M137.02 112.816C136.476 112.816 136.035 112.567 135.814 112.361C135.697 112.258 135.682 112.068 135.8 111.95C135.917 111.833 136.094 111.818 136.212 111.935C136.285 111.994 136.976 112.567 137.829 111.935C138.285 111.598 138.432 110.937 138.27 109.968C138.109 108.984 137.638 108.03 136.932 107.193L134.55 104.404C134.447 104.286 134.461 104.095 134.579 103.993C134.711 103.89 134.888 103.904 134.991 104.022L137.373 106.811C138.153 107.722 138.653 108.779 138.844 109.865C139.05 111.069 138.815 111.921 138.167 112.405C137.77 112.699 137.373 112.802 137.006 112.802L137.02 112.816Z" fill="black"/>
<path d="M139.8 108.911C138.932 108.911 138.153 108.485 137.726 108.133C137.609 108.03 137.594 107.839 137.697 107.722C137.8 107.604 137.991 107.59 138.109 107.693C138.167 107.751 139.756 109.058 141.197 107.766C142.624 106.489 140.785 103.861 140.771 103.831L137.197 99.4707C137.094 99.3386 137.109 99.1624 137.241 99.0596C137.359 98.9569 137.55 98.9715 137.653 99.1037L141.241 103.479C141.344 103.626 143.418 106.591 141.594 108.206C141.006 108.72 140.388 108.911 139.8 108.911Z" fill="black"/>
<path d="M181.419 125.384L179.949 126.515L181.331 123.152C181.331 123.152 177.551 121.009 176.522 119.159C175.493 117.309 174.919 116.619 174.919 116.619L171.698 116.223C171.698 116.223 167.948 109.205 172.36 108.852C176.772 108.5 183.434 115.18 184.758 117.676C186.096 120.187 184.758 122.257 184.758 122.257C184.758 122.257 186.39 122.374 186.684 123.608C186.978 124.855 185.684 126.5 185.684 126.5C185.684 126.5 184.169 124.371 181.419 125.369V125.384Z" fill="black"/>
<path d="M157.109 73.4993C157.109 73.4993 175.904 56.8207 194.699 74.7913" stroke="white" stroke-miterlimit="10"/>
<path d="M60.4584 102.745H10.2358C4.02962 102.745 -1 107.766 -1 113.962V129.363C-1 135.559 4.02962 140.58 10.2358 140.58H46.5608L58.5465 152.546V140.58H60.4584C66.6645 140.58 71.6941 135.559 71.6941 129.363V113.962C71.6941 107.766 66.6645 102.745 60.4584 102.745Z" fill="#599BFF"/>
<path d="M16.6625 126.089C19.1073 126.089 21.0891 124.111 21.0891 121.67C21.0891 119.23 19.1073 117.251 16.6625 117.251C14.2177 117.251 12.2358 119.23 12.2358 121.67C12.2358 124.111 14.2177 126.089 16.6625 126.089Z" fill="white"/>
<path d="M35.3544 126.089C37.7992 126.089 39.781 124.111 39.781 121.67C39.781 119.23 37.7992 117.251 35.3544 117.251C32.9096 117.251 30.9277 119.23 30.9277 121.67C30.9277 124.111 32.9096 126.089 35.3544 126.089Z" fill="white"/>
<path d="M54.0316 126.089C56.4764 126.089 58.4583 124.111 58.4583 121.67C58.4583 119.23 56.4764 117.251 54.0316 117.251C51.5869 117.251 49.605 119.23 49.605 121.67C49.605 124.111 51.5869 126.089 54.0316 126.089Z" fill="white"/>
<path d="M65.1056 206.384H115.328C121.534 206.384 126.564 201.362 126.564 195.167V179.766C126.564 173.571 121.534 168.549 115.328 168.549H65.1056C58.9002 168.549 53.8698 173.571 53.8698 179.766V195.167C53.8698 201.362 58.9002 206.384 65.1056 206.384Z" fill="#FF5970"/>
<path d="M108.887 191.878C111.332 191.878 113.314 189.9 113.314 187.459C113.314 185.019 111.332 183.04 108.887 183.04C106.442 183.04 104.46 185.019 104.46 187.459C104.46 189.9 106.442 191.878 108.887 191.878Z" fill="white"/>
<path d="M90.2096 191.878C92.6544 191.878 94.6363 189.9 94.6363 187.459C94.6363 185.019 92.6544 183.04 90.2096 183.04C87.7648 183.04 85.783 185.019 85.783 187.459C85.783 189.9 87.7648 191.878 90.2096 191.878Z" fill="white"/>
<path d="M71.5324 191.878C73.9771 191.878 75.959 189.9 75.959 187.459C75.959 185.019 73.9771 183.04 71.5324 183.04C69.0876 183.04 67.1057 185.019 67.1057 187.459C67.1057 189.9 69.0876 191.878 71.5324 191.878Z" fill="white"/>
<path d="M67.0028 199.44V218.35L82.474 202.904C82.474 202.904 66.4293 200.012 67.0028 199.425V199.44Z" fill="#FF5970"/>
<path d="M342.608 160H232.044C227.044 160 223 164.038 223 169.029V215.996C223 220.988 227.044 225.026 232.044 225.026H274.576L282.194 232.631L289.812 225.026H342.608C347.608 225.026 351.652 220.988 351.652 215.996V169.029C351.652 164.038 347.608 160 342.608 160Z" fill="white" stroke="#BBABF8" stroke-width="0.29" stroke-miterlimit="10"/>
<path d="M247.34 187.591C252.145 185.57 254.4 180.043 252.376 175.245C250.352 170.448 244.816 168.197 240.01 170.217C235.205 172.238 232.95 177.765 234.974 182.563C236.998 187.36 242.534 189.611 247.34 187.591Z" fill="#DAE0FF"/>
<path d="M262.438 173.255C262.732 172.334 264.033 172.325 264.34 173.242L264.875 174.844C265.012 175.255 265.398 175.531 265.831 175.527L267.486 175.514C268.456 175.506 268.868 176.745 268.087 177.32L266.75 178.302C266.401 178.56 266.257 179.013 266.394 179.425L266.923 181.01C267.23 181.929 266.181 182.703 265.393 182.14L264.033 181.167C263.681 180.916 263.207 180.919 262.859 181.175L261.511 182.166C260.731 182.74 259.672 181.979 259.966 181.056L260.471 179.473C260.603 179.059 260.453 178.607 260.099 178.355L258.733 177.382C257.944 176.819 258.336 175.575 259.305 175.567L260.983 175.554C261.415 175.55 261.796 175.269 261.928 174.858L262.438 173.255Z" fill="#FF8301"/>
<path d="M279.895 173.255C280.189 172.334 281.49 172.325 281.796 173.242L282.331 174.844C282.468 175.255 282.855 175.531 283.288 175.527L284.951 175.514C285.92 175.506 286.333 176.743 285.553 177.319L284.218 178.303C283.87 178.56 283.727 179.012 283.863 179.422L284.392 181.02C284.696 181.938 283.648 182.71 282.861 182.148L281.489 181.167C281.137 180.916 280.664 180.919 280.315 181.175L278.968 182.166C278.188 182.74 277.129 181.979 277.423 181.056L277.928 179.472C278.06 179.058 277.91 178.607 277.557 178.354L276.195 177.381C275.407 176.817 275.8 175.575 276.769 175.567L278.439 175.554C278.872 175.55 279.253 175.269 279.384 174.858L279.895 173.255Z" fill="#FF8301"/>
<path d="M297.352 173.255C297.645 172.334 298.946 172.325 299.253 173.242L299.788 174.844C299.925 175.255 300.311 175.531 300.744 175.527L302.414 175.514C303.384 175.506 303.796 176.745 303.014 177.32L301.678 178.302C301.328 178.56 301.185 179.013 301.322 179.425L301.854 181.017C302.16 181.936 301.113 182.71 300.325 182.148L298.947 181.166C298.594 180.915 298.12 180.919 297.772 181.176L296.432 182.165C295.653 182.74 294.593 181.982 294.885 181.059L295.387 179.47C295.518 179.057 295.367 178.607 295.015 178.356L293.652 177.381C292.864 176.817 293.257 175.575 294.225 175.567L295.896 175.554C296.328 175.55 296.709 175.269 296.841 174.858L297.352 173.255Z" fill="#FF8301"/>
<path d="M314.812 173.27C315.104 172.347 316.407 172.336 316.714 173.255L317.244 174.844C317.382 175.255 317.768 175.531 318.201 175.527L319.871 175.514C320.84 175.506 321.252 176.745 320.471 177.32L319.135 178.302C318.785 178.56 318.641 179.013 318.779 179.425L319.308 181.01C319.615 181.929 318.566 182.703 317.778 182.14L316.417 181.167C316.065 180.916 315.592 180.919 315.243 181.175L313.885 182.174C313.106 182.747 312.048 181.989 312.339 181.067L312.844 179.47C312.974 179.057 312.824 178.607 312.472 178.356L311.108 177.381C310.32 176.817 310.713 175.575 311.682 175.567L313.365 175.554C313.799 175.55 314.18 175.268 314.311 174.855L314.812 173.27Z" fill="#E8ECFF"/>
<path d="M332.268 173.27C332.56 172.347 333.864 172.336 334.17 173.255L334.701 174.844C334.838 175.255 335.224 175.531 335.657 175.527L337.327 175.514C338.297 175.506 338.709 176.745 337.928 177.32L336.591 178.302C336.242 178.56 336.098 179.013 336.235 179.425L336.764 181.01C337.071 181.929 336.023 182.703 335.234 182.14L333.874 181.167C333.522 180.916 333.048 180.919 332.7 181.175L331.342 182.174C330.562 182.747 329.504 181.989 329.796 181.067L330.3 179.47C330.431 179.057 330.281 178.607 329.928 178.356L328.565 177.381C327.777 176.817 328.17 175.575 329.138 175.567L330.822 175.554C331.255 175.55 331.637 175.268 331.767 174.855L332.268 173.27Z" fill="#E8ECFF"/>
<path d="M242.06 192.55H233.721V194.781H242.06V192.55Z" fill="#BBABF8"/>
<path d="M256.648 192.55H244.133V194.781H256.648V192.55Z" fill="#BBABF8"/>
<path d="M251.722 199.156H233.721V201.388H251.722V199.156Z" fill="#E6DFFC"/>
<path d="M301.18 199.156H259.06V201.388H301.18V199.156Z" fill="#E6DFFC"/>
<path d="M340.916 199.156H308.503V201.388H340.916V199.156Z" fill="#E6DFFC"/>
<path d="M273.958 206.248H233.721V208.48H273.958V206.248Z" fill="#E6DFFC"/>
<path d="M340.902 206.248H320.798V208.48H340.902V206.248Z" fill="#E6DFFC"/>
<path d="M316.077 206.248H280.826V208.48H316.077V206.248Z" fill="#E6DFFC"/>
<path d="M285.076 213.324H233.721V215.556H285.076V213.324Z" fill="#E6DFFC"/>
</g>
</g>
<defs>
<clipPath id="clip0_286_1593">
<rect width="358" height="316" fill="white"/>
</clipPath>
<clipPath id="clip1_286_1593">
<rect width="361" height="314" fill="white" transform="translate(-1 1)"/>
</clipPath>
</defs>
</svg>
