<svg width="358" height="314" viewBox="0 0 358 314" fill="none" xmlns="http://www.w3.org/2000/svg">
<g clip-path="url(#clip0_286_1743)">
<path d="M133.667 121.741C133.667 121.741 129.358 113.769 128.711 108.249C128.079 102.714 128.535 101.98 130.211 100.497C130.917 99.8654 131.226 97.7365 133.255 97.3107C135.285 96.885 137.02 102.126 137.02 102.126C137.02 102.126 137.594 98.3385 139.3 98.9111C141.006 99.4837 141.771 106.413 141.771 106.413C141.771 106.413 143.535 101.627 144.859 102.068C146.182 102.493 146.977 110.642 146.138 112.976C145.315 115.311 143.021 118.188 143.021 118.188L133.653 121.741H133.667Z" fill="#F48462"/>
<path d="M138.667 116.368C138.506 116.368 138.373 116.236 138.373 116.074C138.373 108.249 142.403 106.355 142.565 106.281C142.712 106.223 142.888 106.281 142.947 106.428C143.021 106.575 142.947 106.751 142.8 106.81C142.756 106.825 138.932 108.66 138.947 116.074C138.947 116.236 138.814 116.368 138.653 116.368H138.667Z" fill="black"/>
<path d="M222.333 121.741C222.333 121.741 226.642 113.769 227.289 108.249C227.921 102.714 227.465 101.98 225.789 100.497C225.083 99.8654 224.774 97.7365 222.744 97.3107C220.7 96.885 218.98 102.126 218.98 102.126C218.98 102.126 218.406 98.3385 216.7 98.9111C214.994 99.4837 214.229 106.413 214.229 106.413C214.229 106.413 212.465 101.627 211.141 102.068C209.817 102.493 209.023 110.642 209.862 112.976C210.685 115.311 212.979 118.188 212.979 118.188L222.347 121.741H222.333Z" fill="#F48462"/>
<path d="M217.332 116.368C217.171 116.368 217.038 116.236 217.038 116.074C217.038 108.66 213.229 106.839 213.185 106.81C213.038 106.736 212.979 106.575 213.038 106.428C213.097 106.281 213.273 106.223 213.421 106.281C213.597 106.355 217.627 108.263 217.612 116.074C217.612 116.236 217.48 116.368 217.318 116.368H217.332Z" fill="black"/>
<path d="M169.61 147.964C169.61 147.964 160.801 142.561 161.889 139.419C162.977 136.292 169.625 132.519 176.463 132.519C183.302 132.519 190.846 135.925 191.037 139.346C191.214 142.752 169.625 147.964 169.625 147.964H169.61Z" fill="#5C69A5"/>
<path d="M150.491 296.22C150.374 296.22 150.256 296.147 150.212 296.03C149.418 293.842 146.918 287.984 145.006 287.176C144.756 287.074 144.535 287.059 144.329 287.147C144.123 287.235 144.006 287.382 143.947 287.602C143.55 289.261 146.888 293.813 148.344 295.604C148.403 295.677 148.447 295.721 148.462 295.736C148.565 295.868 148.55 296.044 148.418 296.147C148.285 296.25 148.109 296.235 148.006 296.103C147.977 296.059 147.918 296 147.859 295.927C146.579 294.385 143.403 291.008 141.638 291.008C141.594 291.008 141.535 291.008 141.491 291.008C141.123 291.052 140.859 291.258 140.667 291.654C140.417 292.154 140.417 292.594 140.638 293.005C141.462 294.459 145.182 295.09 146.535 295.222C146.697 295.222 146.815 295.384 146.8 295.545C146.8 295.707 146.653 295.839 146.477 295.809C146.271 295.795 141.256 295.325 140.109 293.299C139.785 292.726 139.785 292.08 140.109 291.405C140.403 290.817 140.829 290.494 141.403 290.421C142.476 290.304 143.962 291.273 145.271 292.418C144.094 290.612 143.065 288.586 143.344 287.426C143.447 287.03 143.682 286.736 144.065 286.56C144.418 286.398 144.8 286.413 145.212 286.589C147.741 287.676 150.609 295.457 150.727 295.78C150.786 295.927 150.712 296.103 150.55 296.162C150.521 296.162 150.477 296.176 150.447 296.176L150.491 296.22Z" fill="#A37B90"/>
<path d="M204.92 292.932C204.758 292.932 204.597 292.917 204.435 292.888C203.788 292.741 203.317 292.315 203.023 291.61C202.773 291.008 202.817 290.465 203.155 289.995C203.788 289.1 205.494 288.659 207.229 288.439C205.097 288.116 202.905 287.543 202.214 286.56C201.979 286.222 201.92 285.84 202.052 285.459C202.17 285.092 202.435 284.813 202.832 284.622C205.317 283.462 213.053 286.501 213.376 286.633C213.523 286.692 213.597 286.868 213.538 287.015C213.479 287.162 213.303 287.235 213.156 287.176C210.994 286.325 204.95 284.284 203.067 285.15C202.817 285.268 202.67 285.429 202.597 285.635C202.523 285.855 202.552 286.031 202.685 286.222C203.67 287.632 209.288 288.16 211.597 288.263C211.685 288.263 211.759 288.263 211.773 288.263C211.935 288.263 212.067 288.41 212.053 288.571C212.053 288.733 211.92 288.85 211.759 288.85C211.7 288.85 211.612 288.85 211.509 288.85C209.45 288.777 204.626 288.909 203.611 290.318C203.405 290.612 203.376 290.964 203.552 291.361C203.758 291.875 204.082 292.183 204.538 292.271C206.2 292.638 209.126 290.289 210.112 289.349C210.229 289.232 210.42 289.247 210.523 289.349C210.641 289.467 210.626 289.658 210.523 289.76C210.376 289.893 207.17 292.873 204.891 292.873L204.92 292.932Z" fill="#A37B90"/>
<path d="M175.757 309.83C175.772 310.197 175.493 310.52 175.125 310.55L132.211 314C131.829 314.029 131.505 313.75 131.476 313.368L131.152 309.463C131.152 309.081 131.388 308.773 131.726 308.729C131.961 308.685 132.153 308.553 132.241 308.347C132.285 308.245 132.314 308.112 132.3 307.98C132.167 306.835 132.079 304.354 133.432 302.269C135.27 299.45 144.947 296.338 149.212 294.414C151.992 293.166 153.403 289.878 154.05 287.749C154.403 286.574 155.448 285.737 156.683 285.679C161.551 285.488 173.037 285.018 173.772 285.15C174.713 285.326 175.757 293.886 175.419 297.248C175.095 300.61 174.39 304.545 174.39 304.545L175.507 304.339L175.743 309.83H175.757Z" fill="#F7B369"/>
<path d="M175.757 309.831C175.772 310.198 175.493 310.521 175.125 310.55L132.211 314C131.829 314.03 131.505 313.751 131.476 313.369L131.152 309.464C131.152 309.082 131.388 308.774 131.726 308.73C131.961 308.686 132.153 308.554 132.241 308.348C144.315 307.54 174.39 304.545 174.39 304.545L175.507 304.34L175.743 309.831H175.757Z" fill="#F7B369"/>
<path d="M240.833 280.188C241.098 280.437 241.113 280.863 240.863 281.142L211.891 312.928C211.641 313.207 211.2 313.222 210.92 312.972L208.009 310.344C207.744 310.065 207.714 309.683 207.92 309.404C208.067 309.213 208.111 308.979 208.038 308.773C208.009 308.67 207.935 308.553 207.832 308.465C206.95 307.716 205.2 305.969 204.758 303.517C204.17 300.199 209.112 291.331 210.92 287.015C212.097 284.21 210.876 280.848 209.891 278.851C209.347 277.75 209.538 276.429 210.391 275.548C213.818 272.083 221.877 263.92 222.509 263.509C223.303 262.995 229.936 268.545 231.995 271.232C234.054 273.904 236.23 277.251 236.23 277.251L236.907 276.341L240.848 280.188H240.833Z" fill="#F7B369"/>
<path d="M240.833 280.187C241.098 280.437 241.113 280.863 240.863 281.142L211.891 312.928C211.641 313.207 211.2 313.222 210.92 312.972L208.009 310.344C207.744 310.065 207.714 309.683 207.92 309.404C208.067 309.213 208.111 308.978 208.038 308.773C216.303 299.964 236.216 277.251 236.216 277.251L236.892 276.341L240.833 280.187Z" fill="#F7B369"/>
<path d="M154.33 185.476C154.33 185.476 142.976 214.927 139.888 235.071C136.8 255.229 147.462 287.955 147.462 287.955L180.257 287.529C180.257 287.529 174.095 255.082 172.963 245.216C172.125 234.351 178.007 187.326 178.007 187.326L154.315 185.461L154.33 185.476Z" fill="#68B6D8"/>
<path d="M192.464 184.902C192.464 184.902 198.626 211.197 210.965 233.22C223.303 255.228 229.186 261.527 229.186 261.527L203.435 283.667C203.435 283.667 173.963 250.956 170.316 228.654C166.669 206.352 166.948 186.341 166.948 186.341L192.464 184.917V184.902Z" fill="#68B6D8"/>
<path d="M190.302 197.749C185.228 197.749 182.89 192.596 182.86 192.537C182.802 192.39 182.86 192.214 183.008 192.155C183.155 192.097 183.331 192.155 183.39 192.302C183.508 192.566 186.258 198.571 192.39 196.868C192.552 196.824 192.714 196.912 192.758 197.074C192.802 197.235 192.714 197.397 192.552 197.441C191.743 197.661 190.993 197.764 190.287 197.764L190.302 197.749Z" fill="#40507F"/>
<path d="M203.714 231.885C203.479 231.885 203.273 231.811 203.082 231.679C202.479 231.239 202.42 230.769 202.464 230.446C202.714 228.831 206.744 227.422 207.2 227.26C207.317 227.231 207.435 227.26 207.523 227.348C207.597 227.436 207.611 227.568 207.567 227.671C207.361 228.068 205.538 231.503 203.994 231.855C203.905 231.87 203.817 231.885 203.729 231.885H203.714ZM206.656 228.082C205.097 228.699 203.17 229.712 203.052 230.534C203.052 230.622 202.994 230.872 203.435 231.209C203.552 231.298 203.685 231.327 203.847 231.283C204.729 231.077 205.95 229.286 206.656 228.097V228.082Z" fill="#40507F"/>
<path d="M202.758 275.607C202.67 275.607 202.596 275.577 202.538 275.504C202.435 275.386 202.449 275.196 202.582 275.093L224.936 256.652C225.068 256.55 225.244 256.564 225.347 256.696C225.45 256.829 225.436 257.005 225.303 257.108L202.949 275.548C202.949 275.548 202.832 275.621 202.758 275.621V275.607Z" fill="#40507F"/>
<path d="M172.551 238.095C172.434 238.095 172.331 238.036 172.286 237.919C168.375 229.462 167.08 203.402 166.948 200.598L157.506 197.735C157.345 197.691 157.256 197.529 157.315 197.368C157.359 197.206 157.536 197.133 157.683 197.177L167.33 200.098C167.448 200.128 167.536 200.245 167.536 200.363C167.536 200.642 168.83 229.022 172.831 237.669C172.904 237.816 172.831 237.992 172.684 238.065C172.639 238.08 172.595 238.095 172.566 238.095H172.551Z" fill="#40507F"/>
<path d="M150.491 281.671C150.33 281.671 150.197 281.538 150.197 281.377C150.197 281.215 150.33 281.083 150.491 281.083L178.478 280.54C178.654 280.569 178.772 280.672 178.772 280.834C178.772 280.995 178.64 281.127 178.478 281.127L150.491 281.671Z" fill="#40507F"/>
<path d="M132.241 308.641C132.094 308.641 131.961 308.524 131.947 308.377C131.947 308.215 132.049 308.069 132.211 308.054L174.36 304.251C174.536 304.237 174.669 304.354 174.684 304.516C174.684 304.677 174.581 304.824 174.419 304.839L132.27 308.641C132.27 308.641 132.255 308.641 132.241 308.641Z" fill="#A37B90"/>
<path d="M208.038 309.067C208.038 309.067 207.906 309.038 207.847 308.994C207.729 308.891 207.714 308.7 207.817 308.583L236.01 277.061C236.113 276.944 236.304 276.929 236.421 277.032C236.539 277.134 236.554 277.325 236.451 277.443L208.259 308.965C208.259 308.965 208.126 309.067 208.038 309.067Z" fill="#A37B90"/>
<path d="M147.08 115.722C147.08 115.722 142.947 129.905 149.653 135.675C156.359 141.445 166.374 138.89 168.566 138.714C170.757 138.538 177.022 137.98 181.331 138.802C185.655 139.624 195.846 139.375 202.361 130.654C208.876 121.933 209.156 115.473 209.156 115.473L228.171 115.722C228.171 115.722 229.73 138.743 218.994 150.548C211.435 158.858 196.582 161.911 196.582 161.911C196.582 161.911 196.037 170.897 195.67 175.58C195.302 180.249 193.273 186.357 193.273 186.357C193.273 186.357 182.596 188.603 171.316 188.412C160.036 188.236 153.183 186.885 153.183 186.885C153.183 186.885 152.594 184.11 152.506 177.548C152.418 170.985 153.418 162.176 153.418 162.176C153.418 162.176 131.932 161.265 126.593 146.951C121.255 132.636 128.711 114.988 128.711 114.988L147.08 115.708V115.722Z" fill="#F7B369"/>
<path d="M180.993 129.934L180.213 140.651C180.213 140.651 178.566 143.544 173.889 143.441C170.404 143.367 169.272 142.149 169.272 142.149L170.139 136.79L170.992 131.563L179.537 130.183L180.978 129.948L180.993 129.934Z" fill="#F48462"/>
<path d="M179.551 131.843C179.507 132.063 179.404 132.298 179.243 132.577C177.081 136.35 172.154 136.732 170.139 136.717L170.992 131.534L179.537 131.828L179.551 131.843Z" fill="black"/>
<path d="M171.683 115.223C171.683 115.223 167.11 124.385 168.08 129.846C169.066 135.308 173.639 134.868 176.419 134.075C179.198 133.282 180.596 131.608 180.596 131.608C180.596 131.608 183.052 132.753 184.934 130.375C186.816 127.997 185.993 125.001 184.61 124.209C183.213 123.416 181.419 124.385 181.419 124.385L182.978 121.742C182.978 121.742 178.404 107.207 171.683 115.223Z" fill="#F48462"/>
<path d="M161.904 139.419C161.904 139.419 161.242 142.355 165.08 144.616C168.919 146.877 173.801 147.949 173.801 147.949C173.801 147.949 181.905 145.967 187.081 143.427C191.037 141.489 192.126 139.375 190.434 137.73C188.728 136.071 182.787 136.071 182.787 136.071C182.787 136.071 178.875 137.334 176.963 138.508C175.051 139.683 173.816 140.226 173.816 140.226C173.816 140.226 170.566 137.833 168.08 137.305C165.595 136.761 165.095 137.539 165.095 137.539L161.918 139.419H161.904Z" fill="#5C69A5"/>
<path d="M168.169 154.717C168.169 154.717 168.11 154.717 168.08 154.717C167.919 154.673 167.845 154.497 167.889 154.35L169.757 148.58C169.801 148.419 169.978 148.345 170.125 148.39C170.286 148.434 170.36 148.61 170.316 148.757L168.448 154.527C168.404 154.644 168.286 154.732 168.169 154.732V154.717Z" fill="#5C69A5"/>
<path d="M180.993 155.084C180.86 155.084 180.743 154.996 180.713 154.864L179.272 148.727C179.228 148.566 179.331 148.419 179.493 148.375C179.654 148.345 179.816 148.433 179.846 148.595L181.287 154.732C181.331 154.893 181.228 155.04 181.066 155.084C181.037 155.084 181.022 155.084 180.993 155.084Z" fill="#5C69A5"/>
<path d="M142.285 137.128C142.05 137.128 141.741 137.04 141.521 136.658C141.344 136.35 141.3 136.012 141.418 135.645C141.991 133.766 146.624 131.563 146.83 131.461C146.947 131.402 147.094 131.431 147.183 131.534C147.271 131.637 147.285 131.769 147.212 131.886C146.668 132.767 143.874 137.128 142.3 137.128H142.285ZM146.109 132.488C144.565 133.311 142.315 134.735 141.976 135.821C141.918 136.027 141.932 136.203 142.021 136.364C142.109 136.526 142.197 136.511 142.285 136.541C143.109 136.541 144.874 134.338 146.109 132.488Z" fill="#5C69A5"/>
<path d="M204.391 138.171C202.258 138.171 199.508 134.501 199.17 134.031C199.096 133.928 199.096 133.781 199.17 133.678C199.243 133.576 199.39 133.532 199.508 133.576C200.92 134.089 205.553 135.895 205.655 137.231C205.655 137.452 205.597 137.745 205.17 137.98C204.935 138.112 204.67 138.171 204.405 138.171H204.391ZM200.288 134.515C201.538 136.013 203.67 138.112 204.876 137.466C204.964 137.422 205.067 137.349 205.052 137.275C205.008 136.703 202.699 135.47 200.288 134.515Z" fill="#5C69A5"/>
<path d="M140.609 109.614C140.609 109.614 140.52 109.614 140.476 109.585C139.241 109.012 139.829 106.839 139.903 106.59C139.947 106.428 140.123 106.34 140.27 106.384C140.432 106.428 140.52 106.605 140.476 106.766C140.329 107.265 140.079 108.733 140.726 109.042C140.873 109.115 140.947 109.291 140.873 109.438C140.815 109.556 140.712 109.614 140.594 109.614H140.609Z" fill="black"/>
<path d="M179.743 1.54132L197.743 33.1953C197.861 33.4009 198.067 33.5477 198.302 33.6064L234.127 41.006C236.392 41.329 237.289 44.1039 235.657 45.7042L210.509 72.1902C210.332 72.3811 210.244 72.6454 210.288 72.9096L216.582 109.834C216.965 112.081 214.597 113.798 212.582 112.741L177.654 95.0058C177.419 94.8883 177.125 94.8883 176.89 95.0058L142.668 112.741C140.638 113.798 138.285 112.095 138.668 109.834L144.462 72.9977C144.506 72.7481 144.418 72.4839 144.241 72.293L118.873 45.7189C117.24 44.1333 118.137 41.3584 120.402 41.0207L156.492 33.6358C156.727 33.5917 156.933 33.4449 157.051 33.2247L174.787 1.54132C175.801 -0.499451 178.728 -0.499451 179.728 1.54132H179.743Z" fill="#FFB655"/>
<path d="M135.55 43.3553C135.212 43.3553 134.903 43.1204 134.829 42.768C134.741 42.3716 135.006 41.9752 135.403 41.9018L156.771 37.4679C157.168 37.3945 157.565 37.644 157.639 38.0405C157.727 38.4369 157.462 38.8333 157.065 38.9067L135.697 43.3406C135.697 43.3406 135.594 43.3553 135.55 43.3553Z" fill="#FFDD92"/>
<path d="M221.244 103.228C221.244 103.228 226.848 99.1465 225.495 103.947C224.48 107.589 219.671 112.448 218.288 111.45C216.891 110.452 218.112 106.913 218.112 106.913C218.112 106.913 215.994 108.719 214.641 106.987C213.406 105.416 215.024 102.655 215.024 102.655C215.024 102.655 212.979 105.166 211.641 103.316C209.67 100.6 216.332 94.8447 218.318 94.8447C220.95 94.8447 218.612 98.2803 218.612 98.2803C218.612 98.2803 222.744 95.6376 223.406 98.2362C224.068 100.835 221.244 103.228 221.244 103.228Z" fill="#F48462"/>
<path d="M218.994 111.816C218.641 111.816 218.244 111.714 217.832 111.42C217.2 110.95 216.965 110.069 217.156 108.88C217.332 107.794 217.847 106.737 218.627 105.826L221.009 103.037C221.112 102.905 221.303 102.89 221.421 103.007C221.538 103.11 221.553 103.301 221.45 103.418L219.068 106.208C218.362 107.045 217.906 107.999 217.729 108.983C217.568 109.952 217.715 110.613 218.171 110.95C219.038 111.582 219.715 111.009 219.788 110.95C219.906 110.847 220.097 110.847 220.2 110.965C220.303 111.082 220.303 111.273 220.185 111.376C219.965 111.582 219.509 111.831 218.98 111.831L218.994 111.816Z" fill="black"/>
<path d="M216.215 107.911C215.626 107.911 215.009 107.72 214.435 107.206C212.612 105.577 214.685 102.611 214.774 102.494L218.377 98.1037C218.48 97.9715 218.671 97.9569 218.788 98.0596C218.906 98.1624 218.935 98.3533 218.833 98.4707L215.244 102.846C215.244 102.846 213.391 105.489 214.832 106.766C216.274 108.043 217.847 106.751 217.921 106.693C218.038 106.59 218.23 106.604 218.332 106.722C218.435 106.839 218.421 107.03 218.303 107.133C217.891 107.485 217.097 107.911 216.229 107.911H216.215Z" fill="black"/>
<path d="M134.77 103.228C134.77 103.228 129.167 99.1465 130.52 103.947C131.535 107.589 136.344 112.448 137.726 111.45C139.123 110.452 137.903 106.913 137.903 106.913C137.903 106.913 140.02 108.719 141.373 106.987C142.609 105.416 140.991 102.655 140.991 102.655C140.991 102.655 143.035 105.166 144.374 103.316C146.344 100.6 139.682 94.8447 137.697 94.8447C135.064 94.8447 137.403 98.2803 137.403 98.2803C137.403 98.2803 133.27 95.6376 132.608 98.2362C131.947 100.835 134.77 103.228 134.77 103.228Z" fill="#F48462"/>
<path d="M137.02 111.816C136.476 111.816 136.035 111.567 135.814 111.361C135.697 111.258 135.682 111.068 135.8 110.95C135.917 110.833 136.094 110.818 136.212 110.935C136.285 110.994 136.976 111.567 137.829 110.935C138.285 110.598 138.432 109.937 138.27 108.968C138.109 107.984 137.638 107.03 136.932 106.193L134.55 103.404C134.447 103.286 134.461 103.095 134.579 102.993C134.711 102.89 134.888 102.904 134.991 103.022L137.373 105.811C138.153 106.722 138.653 107.779 138.844 108.865C139.05 110.069 138.815 110.921 138.167 111.405C137.77 111.699 137.373 111.802 137.006 111.802L137.02 111.816Z" fill="black"/>
<path d="M139.8 107.911C138.932 107.911 138.153 107.485 137.726 107.133C137.609 107.03 137.594 106.839 137.697 106.722C137.8 106.604 137.991 106.59 138.109 106.693C138.167 106.751 139.756 108.058 141.197 106.766C142.624 105.489 140.785 102.861 140.771 102.831L137.197 98.4707C137.094 98.3386 137.109 98.1624 137.241 98.0596C137.359 97.9569 137.55 97.9715 137.653 98.1037L141.241 102.479C141.344 102.626 143.418 105.591 141.594 107.206C141.006 107.72 140.388 107.911 139.8 107.911Z" fill="black"/>
<path d="M181.419 124.384L179.949 125.515L181.331 122.152C181.331 122.152 177.551 120.009 176.522 118.159C175.493 116.309 174.919 115.619 174.919 115.619L171.698 115.223C171.698 115.223 167.948 108.205 172.36 107.852C176.772 107.5 183.434 114.18 184.758 116.676C186.096 119.187 184.758 121.257 184.758 121.257C184.758 121.257 186.39 121.374 186.684 122.608C186.978 123.855 185.684 125.5 185.684 125.5C185.684 125.5 184.169 123.371 181.419 124.369V124.384Z" fill="black"/>
<path d="M157.109 72.4993C157.109 72.4993 175.904 55.8207 194.699 73.7913" stroke="white" stroke-miterlimit="10"/>
<path d="M60.4584 101.745H10.2358C4.02962 101.745 -1 106.766 -1 112.962V128.363C-1 134.559 4.02962 139.58 10.2358 139.58H46.5608L58.5465 151.546V139.58H60.4584C66.6645 139.58 71.6941 134.559 71.6941 128.363V112.962C71.6941 106.766 66.6645 101.745 60.4584 101.745Z" fill="#599BFF"/>
<path d="M16.6625 125.089C19.1073 125.089 21.0891 123.111 21.0891 120.67C21.0891 118.23 19.1073 116.251 16.6625 116.251C14.2177 116.251 12.2358 118.23 12.2358 120.67C12.2358 123.111 14.2177 125.089 16.6625 125.089Z" fill="white"/>
<path d="M35.3544 125.089C37.7992 125.089 39.781 123.111 39.781 120.67C39.781 118.23 37.7992 116.251 35.3544 116.251C32.9096 116.251 30.9277 118.23 30.9277 120.67C30.9277 123.111 32.9096 125.089 35.3544 125.089Z" fill="white"/>
<path d="M54.0316 125.089C56.4764 125.089 58.4583 123.111 58.4583 120.67C58.4583 118.23 56.4764 116.251 54.0316 116.251C51.5869 116.251 49.605 118.23 49.605 120.67C49.605 123.111 51.5869 125.089 54.0316 125.089Z" fill="white"/>
<path d="M65.1056 205.384H115.328C121.534 205.384 126.564 200.362 126.564 194.167V178.766C126.564 172.571 121.534 167.549 115.328 167.549H65.1056C58.9002 167.549 53.8698 172.571 53.8698 178.766V194.167C53.8698 200.362 58.9002 205.384 65.1056 205.384Z" fill="#FF5970"/>
<path d="M108.887 190.878C111.332 190.878 113.314 188.9 113.314 186.459C113.314 184.019 111.332 182.04 108.887 182.04C106.442 182.04 104.46 184.019 104.46 186.459C104.46 188.9 106.442 190.878 108.887 190.878Z" fill="white"/>
<path d="M90.2096 190.878C92.6544 190.878 94.6363 188.9 94.6363 186.459C94.6363 184.019 92.6544 182.04 90.2096 182.04C87.7648 182.04 85.783 184.019 85.783 186.459C85.783 188.9 87.7648 190.878 90.2096 190.878Z" fill="white"/>
<path d="M71.5324 190.878C73.9771 190.878 75.959 188.9 75.959 186.459C75.959 184.019 73.9771 182.04 71.5324 182.04C69.0876 182.04 67.1057 184.019 67.1057 186.459C67.1057 188.9 69.0876 190.878 71.5324 190.878Z" fill="white"/>
<path d="M67.0028 198.44V217.35L82.474 201.904C82.474 201.904 66.4293 199.012 67.0028 198.425V198.44Z" fill="#FF5970"/>
<path d="M342.608 159H232.044C227.044 159 223 163.038 223 168.029V214.996C223 219.988 227.044 224.026 232.044 224.026H274.576L282.194 231.631L289.812 224.026H342.608C347.608 224.026 351.652 219.988 351.652 214.996V168.029C351.652 163.038 347.608 159 342.608 159Z" fill="white" stroke="#BBABF8" stroke-width="0.29" stroke-miterlimit="10"/>
<path d="M247.34 186.591C252.145 184.57 254.4 179.043 252.376 174.245C250.352 169.448 244.816 167.197 240.01 169.217C235.205 171.238 232.95 176.765 234.974 181.563C236.998 186.36 242.534 188.611 247.34 186.591Z" fill="#DAE0FF"/>
<path d="M262.438 172.255C262.732 171.334 264.033 171.325 264.34 172.242L264.875 173.844C265.012 174.255 265.398 174.531 265.831 174.527L267.486 174.514C268.456 174.506 268.868 175.745 268.087 176.32L266.75 177.302C266.401 177.56 266.257 178.013 266.394 178.425L266.923 180.01C267.23 180.929 266.181 181.703 265.393 181.14L264.033 180.167C263.681 179.916 263.207 179.919 262.859 180.175L261.511 181.166C260.731 181.74 259.672 180.979 259.966 180.056L260.471 178.473C260.603 178.059 260.453 177.607 260.099 177.355L258.733 176.382C257.944 175.819 258.336 174.575 259.305 174.567L260.983 174.554C261.415 174.55 261.796 174.269 261.928 173.858L262.438 172.255Z" fill="#FF8301"/>
<path d="M279.895 172.255C280.189 171.334 281.49 171.325 281.796 172.242L282.331 173.844C282.468 174.255 282.855 174.531 283.288 174.527L284.951 174.514C285.92 174.506 286.333 175.743 285.553 176.319L284.218 177.303C283.87 177.56 283.727 178.012 283.863 178.422L284.392 180.02C284.696 180.938 283.648 181.71 282.861 181.148L281.489 180.167C281.137 179.916 280.664 179.919 280.315 180.175L278.968 181.166C278.188 181.74 277.129 180.979 277.423 180.056L277.928 178.472C278.06 178.058 277.91 177.607 277.557 177.354L276.195 176.381C275.407 175.817 275.8 174.575 276.769 174.567L278.439 174.554C278.872 174.55 279.253 174.269 279.384 173.858L279.895 172.255Z" fill="#FF8301"/>
<path d="M297.352 172.255C297.645 171.334 298.946 171.325 299.253 172.242L299.788 173.844C299.925 174.255 300.311 174.531 300.744 174.527L302.414 174.514C303.384 174.506 303.796 175.745 303.014 176.32L301.678 177.302C301.328 177.56 301.185 178.013 301.322 178.425L301.854 180.017C302.16 180.936 301.113 181.71 300.325 181.148L298.947 180.166C298.594 179.915 298.12 179.919 297.772 180.176L296.432 181.165C295.653 181.74 294.593 180.982 294.885 180.059L295.387 178.47C295.518 178.057 295.367 177.607 295.015 177.356L293.652 176.381C292.864 175.817 293.257 174.575 294.225 174.567L295.896 174.554C296.328 174.55 296.709 174.269 296.841 173.858L297.352 172.255Z" fill="#FF8301"/>
<path d="M314.812 172.27C315.104 171.347 316.407 171.336 316.714 172.255L317.244 173.844C317.382 174.255 317.768 174.531 318.201 174.527L319.871 174.514C320.84 174.506 321.252 175.745 320.471 176.32L319.135 177.302C318.785 177.56 318.641 178.013 318.779 178.425L319.308 180.01C319.615 180.929 318.566 181.703 317.778 181.14L316.417 180.167C316.065 179.916 315.592 179.919 315.243 180.175L313.885 181.174C313.106 181.747 312.048 180.989 312.339 180.067L312.844 178.47C312.974 178.057 312.824 177.607 312.472 177.356L311.108 176.381C310.32 175.817 310.713 174.575 311.682 174.567L313.365 174.554C313.799 174.55 314.18 174.268 314.311 173.855L314.812 172.27Z" fill="#E8ECFF"/>
<path d="M332.268 172.27C332.56 171.347 333.864 171.336 334.17 172.255L334.701 173.844C334.838 174.255 335.224 174.531 335.657 174.527L337.327 174.514C338.297 174.506 338.709 175.745 337.928 176.32L336.591 177.302C336.242 177.56 336.098 178.013 336.235 178.425L336.764 180.01C337.071 180.929 336.023 181.703 335.234 181.14L333.874 180.167C333.522 179.916 333.048 179.919 332.7 180.175L331.342 181.174C330.562 181.747 329.504 180.989 329.796 180.067L330.3 178.47C330.431 178.057 330.281 177.607 329.928 177.356L328.565 176.381C327.777 175.817 328.17 174.575 329.138 174.567L330.822 174.554C331.255 174.55 331.637 174.268 331.767 173.855L332.268 172.27Z" fill="#E8ECFF"/>
<path d="M242.06 191.55H233.721V193.781H242.06V191.55Z" fill="#BBABF8"/>
<path d="M256.648 191.55H244.133V193.781H256.648V191.55Z" fill="#BBABF8"/>
<path d="M251.722 198.156H233.721V200.388H251.722V198.156Z" fill="#E6DFFC"/>
<path d="M301.18 198.156H259.06V200.388H301.18V198.156Z" fill="#E6DFFC"/>
<path d="M340.916 198.156H308.503V200.388H340.916V198.156Z" fill="#E6DFFC"/>
<path d="M273.958 205.248H233.721V207.48H273.958V205.248Z" fill="#E6DFFC"/>
<path d="M340.902 205.248H320.798V207.48H340.902V205.248Z" fill="#E6DFFC"/>
<path d="M316.077 205.248H280.826V207.48H316.077V205.248Z" fill="#E6DFFC"/>
<path d="M285.076 212.324H233.721V214.556H285.076V212.324Z" fill="#E6DFFC"/>
<path d="M272.879 101.714L272.906 101.62C273.199 100.626 273.528 99.8627 273.894 99.3294C274.259 98.796 274.676 98.3986 275.145 98.1369C275.614 97.8753 276.148 97.6631 276.747 97.5004C277.108 97.3999 277.447 97.2566 277.765 97.0705C278.084 96.8792 278.362 96.6339 278.599 96.3347C278.842 96.037 279.021 95.6821 279.138 95.2699C279.283 94.7586 279.289 94.281 279.156 93.8373C279.022 93.3935 278.784 93.0129 278.439 92.6954C278.095 92.3779 277.678 92.1496 277.188 92.0105C276.76 91.8891 276.323 91.8609 275.876 91.9258C275.429 91.9907 275.018 92.1758 274.644 92.4812C274.27 92.7866 273.975 93.2412 273.758 93.8451L271.786 93.2855C272.079 92.4104 272.524 91.7163 273.121 91.2034C273.723 90.692 274.415 90.367 275.199 90.2285C275.987 90.0914 276.804 90.1428 277.65 90.3826C278.568 90.6431 279.314 91.0522 279.889 91.6099C280.469 92.169 280.854 92.8194 281.044 93.5611C281.239 94.3042 281.221 95.0827 280.99 95.8967C280.827 96.4706 280.591 96.9646 280.282 97.3787C279.978 97.7942 279.61 98.1379 279.178 98.4099C278.75 98.6834 278.267 98.8959 277.728 99.0473C277.188 99.2041 276.734 99.4023 276.367 99.6421C276.002 99.8767 275.695 100.193 275.447 100.59C275.199 100.988 274.978 101.509 274.784 102.153L274.757 102.247L272.879 101.714ZM272.566 106.631C272.18 106.522 271.888 106.289 271.69 105.934C271.492 105.579 271.448 105.209 271.557 104.823C271.667 104.437 271.899 104.145 272.254 103.946C272.609 103.748 272.98 103.704 273.366 103.814C273.752 103.923 274.044 104.155 274.242 104.51C274.44 104.865 274.484 105.236 274.375 105.622C274.302 105.878 274.17 106.094 273.979 106.271C273.793 106.449 273.575 106.573 273.324 106.643C273.08 106.709 272.827 106.705 272.566 106.631Z" fill="#303030"/>
<path d="M272.879 101.714L272.267 101.54L272.093 102.152L272.705 102.326L272.879 101.714ZM272.906 101.62L272.295 101.44L272.293 101.446L272.906 101.62ZM273.894 99.3294L273.369 98.9696L273.369 98.9696L273.894 99.3294ZM275.145 98.1369L275.455 98.6927L275.455 98.6927L275.145 98.1369ZM276.747 97.5004L276.913 98.1144L276.917 98.1134L276.747 97.5004ZM277.765 97.0705L278.086 97.6196L278.092 97.6163L277.765 97.0705ZM278.599 96.3347L278.106 95.933L278.101 95.9395L278.599 96.3347ZM279.156 93.8373L279.765 93.654L279.156 93.8373ZM275.876 91.9258L275.784 91.296L275.784 91.296L275.876 91.9258ZM274.644 92.4812L275.047 92.9742L275.047 92.9742L274.644 92.4812ZM273.758 93.8451L273.585 94.4573L274.157 94.6196L274.357 94.0598L273.758 93.8451ZM271.786 93.2855L271.183 93.0833L270.971 93.7157L271.612 93.8977L271.786 93.2855ZM273.121 91.2034L272.709 90.7185L272.706 90.7209L273.121 91.2034ZM275.199 90.2285L275.09 89.6015L275.088 89.6018L275.199 90.2285ZM279.889 91.6099L279.446 92.0666L279.447 92.068L279.889 91.6099ZM281.044 93.5611L280.427 93.7189L280.428 93.7227L281.044 93.5611ZM280.282 97.3787L279.772 96.9979L279.768 97.003L280.282 97.3787ZM279.178 98.4099L278.839 97.8713L278.834 97.874L279.178 98.4099ZM277.728 99.0473L277.556 98.4347L277.551 98.4361L277.728 99.0473ZM276.367 99.6421L276.711 100.178L276.715 100.175L276.367 99.6421ZM274.784 102.153L274.175 101.969L274.172 101.979L274.784 102.153ZM274.757 102.247L274.584 102.859L275.196 103.033L275.37 102.42L274.757 102.247ZM271.69 105.934L272.246 105.624L272.246 105.624L271.69 105.934ZM272.254 103.946L272.564 104.502L272.564 104.502L272.254 103.946ZM273.979 106.271L273.547 105.804L273.539 105.812L273.979 106.271ZM273.324 106.643L273.49 107.258L273.494 107.256L273.324 106.643ZM273.491 101.887L273.518 101.793L272.293 101.446L272.267 101.54L273.491 101.887ZM273.516 101.8C273.8 100.837 274.106 100.145 274.419 99.6891L273.369 98.9696C272.95 99.5809 272.597 100.416 272.295 101.44L273.516 101.8ZM274.419 99.6891C274.74 99.2205 275.088 98.8976 275.455 98.6927L274.835 97.5812C274.265 97.8995 273.779 98.3716 273.369 98.9696L274.419 99.6891ZM275.455 98.6927C275.873 98.4598 276.357 98.2657 276.913 98.1144L276.58 96.8863C275.939 97.0606 275.356 97.2909 274.835 97.5812L275.455 98.6927ZM276.917 98.1134C277.33 97.9985 277.72 97.8339 278.086 97.6196L277.443 96.5213C277.174 96.6792 276.885 96.8012 276.576 96.8873L276.917 98.1134ZM278.092 97.6163C278.479 97.3845 278.815 97.0877 279.098 96.73L278.101 95.9395C277.91 96.1801 277.689 96.3738 277.438 96.5246L278.092 97.6163ZM279.093 96.7364C279.396 96.3642 279.613 95.9294 279.75 95.4436L278.526 95.0962C278.43 95.4348 278.287 95.7099 278.106 95.933L279.093 96.7364ZM279.75 95.4436C279.924 94.833 279.938 94.2304 279.765 93.654L278.546 94.0205C278.64 94.3316 278.643 94.6841 278.526 95.0962L279.75 95.4436ZM279.765 93.654C279.599 93.1001 279.298 92.6216 278.871 92.2277L278.008 93.1631C278.269 93.4042 278.446 93.6869 278.546 94.0205L279.765 93.654ZM278.871 92.2277C278.447 91.8366 277.939 91.5622 277.361 91.3983L277.014 92.6227C277.417 92.737 277.744 92.9193 278.008 93.1631L278.871 92.2277ZM277.361 91.3983C276.846 91.2521 276.318 91.2184 275.784 91.296L275.967 92.5555C276.327 92.5033 276.674 92.5261 277.014 92.6227L277.361 91.3983ZM275.784 91.296C275.215 91.3787 274.699 91.6152 274.242 91.9882L275.047 92.9742C275.338 92.7365 275.642 92.6027 275.967 92.5555L275.784 91.296ZM274.242 91.9882C273.753 92.387 273.402 92.9523 273.159 93.6304L274.357 94.0598C274.547 93.5301 274.787 93.1862 275.047 92.9742L274.242 91.9882ZM273.932 93.2329L271.96 92.6733L271.612 93.8977L273.585 94.4573L273.932 93.2329ZM272.389 93.4878C272.653 92.7023 273.04 92.112 273.536 91.6859L272.706 90.7209C272.008 91.3206 271.506 92.1185 271.183 93.0833L272.389 93.4878ZM273.533 91.6883C274.048 91.2506 274.636 90.9741 275.309 90.8551L275.088 89.6018C274.194 89.7599 273.397 90.1334 272.709 90.7185L273.533 91.6883ZM275.308 90.8554C275.993 90.7363 276.713 90.7785 277.476 90.9948L277.823 89.7704C276.895 89.5071 275.981 89.4465 275.09 89.6015L275.308 90.8554ZM277.476 90.9948C278.312 91.2321 278.96 91.5951 279.446 92.0666L280.332 91.1532C279.669 90.5093 278.823 90.0541 277.823 89.7704L277.476 90.9948ZM279.447 92.068C279.947 92.5497 280.268 93.0977 280.427 93.7189L281.66 93.4033C281.439 92.5411 280.991 91.7884 280.331 91.1518L279.447 92.068ZM280.428 93.7227C280.592 94.3448 280.581 95.0071 280.378 95.723L281.602 96.0704C281.861 95.1584 281.886 94.2636 281.659 93.3995L280.428 93.7227ZM280.378 95.723C280.233 96.2337 280.028 96.6549 279.772 96.998L280.792 97.7594C281.154 97.2743 281.421 96.7076 281.602 96.0704L280.378 95.723ZM279.768 97.003C279.511 97.3542 279.202 97.6424 278.839 97.8713L279.516 98.9486C280.017 98.6334 280.445 98.2342 280.796 97.7544L279.768 97.003ZM278.834 97.874C278.465 98.1103 278.041 98.2985 277.556 98.4347L277.9 99.66C278.494 99.4933 279.036 99.2565 279.521 98.9459L278.834 97.874ZM277.551 98.4361C276.966 98.6057 276.451 98.827 276.019 99.1095L276.715 100.175C277.017 99.9777 277.409 99.8024 277.905 99.6585L277.551 98.4361ZM276.023 99.1067C275.573 99.3961 275.201 99.7825 274.907 100.253L275.987 100.927C276.189 100.603 276.431 100.357 276.711 100.178L276.023 99.1067ZM274.907 100.253C274.619 100.715 274.378 101.292 274.175 101.969L275.393 102.336C275.577 101.725 275.779 101.261 275.987 100.927L274.907 100.253ZM274.172 101.979L274.145 102.073L275.37 102.42L275.396 102.326L274.172 101.979ZM274.931 101.634L273.053 101.102L272.705 102.326L274.584 102.859L274.931 101.634ZM272.74 106.019C272.519 105.956 272.363 105.834 272.246 105.624L271.134 106.244C271.413 106.745 271.842 107.087 272.393 107.243L272.74 106.019ZM272.246 105.624C272.129 105.415 272.107 105.218 272.169 104.996L270.945 104.649C270.789 105.2 270.855 105.744 271.134 106.244L272.246 105.624ZM272.169 104.996C272.232 104.775 272.354 104.619 272.564 104.502L271.944 103.391C271.444 103.67 271.101 104.098 270.945 104.649L272.169 104.996ZM272.564 104.502C272.774 104.385 272.971 104.363 273.192 104.426L273.539 103.201C272.988 103.045 272.444 103.112 271.944 103.391L272.564 104.502ZM273.192 104.426C273.413 104.489 273.569 104.611 273.686 104.821L274.798 104.2C274.518 103.7 274.09 103.358 273.539 103.201L273.192 104.426ZM273.686 104.821C273.803 105.03 273.825 105.227 273.763 105.448L274.987 105.796C275.143 105.245 275.077 104.701 274.798 104.2L273.686 104.821ZM273.763 105.448C273.721 105.594 273.65 105.708 273.547 105.804L274.411 106.738C274.69 106.48 274.883 106.161 274.987 105.796L273.763 105.448ZM273.539 105.812C273.429 105.917 273.304 105.988 273.154 106.03L273.494 107.256C273.846 107.159 274.157 106.982 274.42 106.73L273.539 105.812ZM273.158 106.029C273.033 106.063 272.898 106.064 272.74 106.019L272.393 107.243C272.756 107.347 273.126 107.356 273.49 107.258L273.158 106.029Z" fill="#303030"/>
<path d="M79.7691 73.6488V73.5581C79.7792 72.5962 79.8799 71.8307 80.0713 71.2616C80.2626 70.6925 80.5346 70.2317 80.8871 69.8792C81.2396 69.5267 81.6627 69.2018 82.1562 68.9047C82.4534 68.7234 82.7203 68.5094 82.957 68.2626C83.1937 68.0108 83.38 67.7212 83.516 67.3939C83.657 67.0665 83.7275 66.7039 83.7275 66.306C83.7275 65.8125 83.6117 65.3844 83.38 65.0218C83.1484 64.6592 82.8386 64.3797 82.4508 64.1833C82.0631 63.9869 81.6325 63.8887 81.1591 63.8887C80.7461 63.8887 80.3482 63.9743 79.9655 64.1455C79.5828 64.3168 79.263 64.5862 79.0061 64.9538C78.7493 65.3215 78.6007 65.8024 78.5604 66.3967H76.6567C76.697 65.5405 76.9186 64.8078 77.3215 64.1984C77.7294 63.589 78.2658 63.1232 78.9306 62.8009C79.6004 62.4786 80.3432 62.3174 81.1591 62.3174C82.0454 62.3174 82.816 62.4937 83.4707 62.8462C84.1304 63.1987 84.6391 63.6822 84.9966 64.2966C85.3592 64.911 85.5405 65.6111 85.5405 66.3967C85.5405 66.9507 85.4549 67.4518 85.2837 67.9C85.1175 68.3482 84.8758 68.7486 84.5585 69.1011C84.2462 69.4536 83.8685 69.7659 83.4253 70.0378C82.9822 70.3148 82.6271 70.6069 82.3602 70.9141C82.0933 71.2163 81.8994 71.5764 81.7785 71.9944C81.6576 72.4124 81.5922 72.9336 81.5821 73.5581V73.6488H79.7691ZM80.736 78.1209C80.3634 78.1209 80.0436 77.9874 79.7766 77.7205C79.5097 77.4536 79.3763 77.1338 79.3763 76.7611C79.3763 76.3884 79.5097 76.0686 79.7766 75.8017C80.0436 75.5348 80.3634 75.4013 80.736 75.4013C81.1087 75.4013 81.4285 75.5348 81.6954 75.8017C81.9623 76.0686 82.0958 76.3884 82.0958 76.7611C82.0958 77.0079 82.0328 77.2345 81.9069 77.441C81.7861 77.6475 81.6224 77.8137 81.4159 77.9396C81.2145 78.0604 80.9878 78.1209 80.736 78.1209Z" fill="#303030"/>
<path d="M79.7691 73.6488H79.1782V74.2397H79.7691V73.6488ZM79.7691 73.5581L79.1782 73.5519V73.5581H79.7691ZM80.0713 71.2616L79.5112 71.0733H79.5112L80.0713 71.2616ZM80.8871 69.8792L81.305 70.297H81.305L80.8871 69.8792ZM82.1562 68.9047L82.461 69.411L82.464 69.4091L82.1562 68.9047ZM82.957 68.2626L83.3834 68.6717L83.3875 68.6673L82.957 68.2626ZM83.516 67.3939L82.9732 67.1601L82.9703 67.1672L83.516 67.3939ZM79.9655 64.1455L79.7242 63.6061L79.9655 64.1455ZM79.0061 64.9538L79.4905 65.2923H79.4905L79.0061 64.9538ZM78.5604 66.3967V66.9876H79.1126L79.15 66.4367L78.5604 66.3967ZM76.6567 66.3967L76.0665 66.3689L76.0374 66.9876H76.6567V66.3967ZM77.3215 64.1984L76.8305 63.8697L76.8286 63.8725L77.3215 64.1984ZM78.9306 62.8009L78.6743 62.2684L78.6728 62.2692L78.9306 62.8009ZM83.4707 62.8462L83.1905 63.3665L83.1922 63.3674L83.4707 62.8462ZM84.9966 64.2966L84.4859 64.5938L84.4877 64.5969L84.9966 64.2966ZM85.2837 67.9L84.7317 67.6891L84.7296 67.6946L85.2837 67.9ZM84.5585 69.1011L84.1192 68.7058L84.1161 68.7093L84.5585 69.1011ZM83.4253 70.0378L83.1163 69.5342L83.1122 69.5367L83.4253 70.0378ZM82.3602 70.9141L82.8031 71.3053L82.8063 71.3017L82.3602 70.9141ZM81.5821 73.5581L80.9912 73.5486V73.5581H81.5821ZM81.5821 73.6488V74.2397H82.173V73.6488H81.5821ZM79.7766 77.7205L80.1945 77.3027H80.1945L79.7766 77.7205ZM79.7766 75.8017L80.1945 76.2196H80.1945L79.7766 75.8017ZM81.9069 77.441L81.4023 77.1333L81.397 77.1425L81.9069 77.441ZM81.4159 77.9396L81.7199 78.4463L81.7235 78.4441L81.4159 77.9396ZM80.36 73.6488V73.5581H79.1782V73.6488H80.36ZM80.36 73.5643C80.3697 72.6318 80.468 71.9359 80.6313 71.45L79.5112 71.0733C79.2918 71.7256 79.1886 72.5606 79.1782 73.5519L80.36 73.5643ZM80.6313 71.45C80.7995 70.9499 81.0288 70.5732 81.305 70.297L80.4693 69.4614C80.0404 69.8903 79.7257 70.4352 79.5112 71.0733L80.6313 71.45ZM81.305 70.297C81.6188 69.9832 82.0024 69.6871 82.461 69.4109L81.8514 68.3985C81.323 68.7166 80.8605 69.0701 80.4693 69.4614L81.305 70.297ZM82.464 69.4091C82.8039 69.2018 83.1108 68.9558 83.3834 68.6716L82.5305 67.8535C82.3297 68.0629 82.1029 68.245 81.8484 68.4003L82.464 69.4091ZM83.3875 68.6673C83.6743 68.3622 83.8991 68.012 84.0617 67.6205L82.9703 67.1672C82.8609 67.4304 82.7131 67.6593 82.5264 67.8579L83.3875 68.6673ZM84.0587 67.6276C84.235 67.2183 84.3184 66.7749 84.3184 66.306H83.1366C83.1366 66.6329 83.079 66.9147 82.9733 67.1601L84.0587 67.6276ZM84.3184 66.306C84.3184 65.7167 84.1789 65.1747 83.878 64.7037L82.8821 65.34C83.0445 65.5942 83.1366 65.9083 83.1366 66.306H84.3184ZM83.878 64.7037C83.5888 64.2511 83.1989 63.8998 82.7178 63.6562L82.1838 64.7105C82.4783 64.8596 82.7079 65.0674 82.8821 65.34L83.878 64.7037ZM82.7178 63.6562C82.2401 63.4142 81.7168 63.2978 81.1591 63.2978V64.4796C81.5481 64.4796 81.886 64.5596 82.1838 64.7105L82.7178 63.6562ZM81.1591 63.2978C80.6616 63.2978 80.1817 63.4015 79.7242 63.6061L80.2068 64.6849C80.5148 64.5471 80.8306 64.4796 81.1591 64.4796V63.2978ZM79.7242 63.6061C79.2369 63.8242 78.8354 64.1663 78.5217 64.6154L79.4905 65.2923C79.6905 65.0061 79.9286 64.8094 80.2068 64.6849L79.7242 63.6061ZM78.5217 64.6154C78.1863 65.0955 78.0161 65.6894 77.9709 66.3567L79.15 66.4367C79.1853 65.9154 79.3122 65.5474 79.4905 65.2923L78.5217 64.6154ZM78.5604 65.8058H76.6567V66.9876H78.5604V65.8058ZM77.247 66.4245C77.2832 65.656 77.4797 65.0305 77.8144 64.5243L76.8286 63.8725C76.3575 64.585 76.1109 65.4251 76.0665 66.3689L77.247 66.4245ZM77.8126 64.5271C78.1617 64.0056 78.6172 63.6095 79.1884 63.3326L78.6728 62.2692C77.9144 62.6369 77.2972 63.1725 76.8305 63.8697L77.8126 64.5271ZM79.1868 63.3333C79.7691 63.0531 80.4231 62.9083 81.1591 62.9083V61.7265C80.2633 61.7265 79.4316 61.904 78.6743 62.2684L79.1868 63.3333ZM81.1591 62.9083C81.9664 62.9083 82.637 63.0684 83.1905 63.3665L83.7508 62.3259C82.9949 61.9189 82.1245 61.7265 81.1591 61.7265V62.9083ZM83.1922 63.3674C83.7605 63.6711 84.1864 64.0792 84.4859 64.5938L85.5073 63.9994C85.0917 63.2852 84.5003 62.7264 83.7492 62.325L83.1922 63.3674ZM84.4877 64.5969C84.7913 65.1114 84.9496 65.7057 84.9496 66.3967H86.1314C86.1314 65.5164 85.9271 64.7107 85.5055 63.9963L84.4877 64.5969ZM84.9496 66.3967C84.9496 66.8896 84.8735 67.3178 84.7317 67.6891L85.8357 68.1109C86.0363 67.5858 86.1314 67.0118 86.1314 66.3967H84.9496ZM84.7296 67.6946C84.5892 68.0734 84.3862 68.4092 84.1193 68.7058L84.9977 69.4964C85.3653 69.088 85.6458 68.623 85.8377 68.1054L84.7296 67.6946ZM84.1161 68.7093C83.8463 69.0139 83.5149 69.2896 83.1163 69.5342L83.7344 70.5415C84.2222 70.2422 84.6461 69.8934 85.0008 69.4929L84.1161 68.7093ZM83.1122 69.5367C82.6326 69.8364 82.2286 70.1646 81.9141 70.5266L82.8063 71.3017C83.0256 71.0492 83.3317 70.7932 83.7385 70.5389L83.1122 69.5367ZM81.9173 70.5229C81.588 70.8957 81.3541 71.335 81.2109 71.8302L82.3462 72.1585C82.4447 71.8177 82.5985 71.5369 82.8031 71.3053L81.9173 70.5229ZM81.2109 71.8302C81.0707 72.3151 81.0019 72.8924 80.9913 73.5486L82.1729 73.5676C82.1825 72.9748 82.2446 72.5097 82.3462 72.1585L81.2109 71.8302ZM80.9912 73.5581V73.6488H82.173V73.5581H80.9912ZM81.5821 73.0578H79.7691V74.2397H81.5821V73.0578ZM80.736 77.53C80.5223 77.53 80.3522 77.4604 80.1945 77.3027L79.3588 78.1383C79.7349 78.5145 80.2044 78.7118 80.736 78.7118V77.53ZM80.1945 77.3027C80.0368 77.145 79.9672 76.9748 79.9672 76.7611H78.7854C78.7854 77.2928 78.9827 77.7622 79.3588 78.1383L80.1945 77.3027ZM79.9672 76.7611C79.9672 76.5474 80.0368 76.3773 80.1945 76.2196L79.3588 75.3839C78.9827 75.76 78.7854 76.2295 78.7854 76.7611H79.9672ZM80.1945 76.2196C80.3522 76.0618 80.5223 75.9923 80.736 75.9923V74.8104C80.2044 74.8104 79.7349 75.0078 79.3588 75.3839L80.1945 76.2196ZM80.736 75.9923C80.9497 75.9923 81.1199 76.0618 81.2776 76.2196L82.1133 75.3839C81.7371 75.0078 81.2677 74.8104 80.736 74.8104V75.9923ZM81.2776 76.2196C81.4353 76.3773 81.5049 76.5474 81.5049 76.7611H82.6867C82.6867 76.2295 82.4894 75.76 82.1133 75.3839L81.2776 76.2196ZM81.5049 76.7611C81.5049 76.9017 81.4706 77.0215 81.4024 77.1334L82.4115 77.7486C82.5951 77.4475 82.6867 77.1141 82.6867 76.7611H81.5049ZM81.397 77.1425C81.326 77.2637 81.2323 77.3595 81.1083 77.435L81.7235 78.4441C82.0125 78.2679 82.2461 78.0313 82.4169 77.7395L81.397 77.1425ZM81.1119 77.4329C81.0089 77.4947 80.8887 77.53 80.736 77.53V78.7118C81.0869 78.7118 81.42 78.6262 81.7199 78.4463L81.1119 77.4329Z" fill="#303030"/>
<path d="M94.3681 256.968L94.3467 256.858C94.1312 255.694 94.0718 254.745 94.1683 254.013C94.2648 253.28 94.4842 252.659 94.8266 252.15C95.169 251.641 95.6031 251.148 96.1289 250.673C96.4449 250.384 96.7166 250.062 96.9441 249.708C97.1704 249.348 97.327 248.954 97.4138 248.526C97.5066 248.098 97.506 247.643 97.4119 247.162C97.2951 246.566 97.0539 246.077 96.6883 245.693C96.3227 245.31 95.8825 245.046 95.3676 244.901C94.8528 244.755 94.3095 244.738 93.7377 244.85C93.2389 244.948 92.7786 245.146 92.3569 245.443C91.9351 245.74 91.6126 246.141 91.3894 246.646C91.1661 247.151 91.1005 247.767 91.1924 248.494L88.8931 248.945C88.7392 247.901 88.8335 246.964 89.1759 246.132C89.5245 245.3 90.0621 244.61 90.7887 244.064C91.5215 243.516 92.3805 243.146 93.3659 242.953C94.4365 242.743 95.4089 242.773 96.283 243.044C97.1633 243.314 97.892 243.778 98.4693 244.435C99.0526 245.091 99.4372 245.894 99.6231 246.843C99.7542 247.512 99.7693 248.137 99.6685 248.719C99.5739 249.3 99.3766 249.841 99.0768 250.342C98.7831 250.841 98.4008 251.308 97.9298 251.741C97.4601 252.181 97.1004 252.617 96.8507 253.052C96.5998 253.48 96.4508 253.96 96.4037 254.494C96.3566 255.027 96.4009 255.672 96.5364 256.429L96.5579 256.539L94.3681 256.968ZM96.5941 262.14C96.144 262.228 95.7261 262.143 95.3406 261.884C94.9551 261.624 94.7182 261.27 94.63 260.82C94.5419 260.369 94.6274 259.952 94.8866 259.566C95.1458 259.181 95.5005 258.944 95.9506 258.856C96.4008 258.767 96.8186 258.853 97.2041 259.112C97.5897 259.371 97.8265 259.726 97.9147 260.176C97.9731 260.474 97.9507 260.763 97.8475 261.042C97.7503 261.32 97.592 261.559 97.3724 261.76C97.1576 261.954 96.8982 262.081 96.5941 262.14Z" fill="#303030"/>
<path d="M94.3681 256.968L93.6544 257.107L93.7942 257.821L94.5079 257.681L94.3681 256.968ZM94.3467 256.858L93.6315 256.99L93.6329 256.998L94.3467 256.858ZM94.1683 254.013L93.4472 253.918L93.4472 253.918L94.1683 254.013ZM94.8266 252.15L95.4301 252.556L95.4301 252.556L94.8266 252.15ZM96.1289 250.673L96.6168 251.212L96.62 251.209L96.1289 250.673ZM96.9441 249.708L97.556 250.101L97.5599 250.095L96.9441 249.708ZM97.4138 248.526L96.7029 248.372L96.701 248.382L97.4138 248.526ZM92.3569 245.443L91.9378 244.849L91.9378 244.849L92.3569 245.443ZM91.3894 246.646L92.0545 246.94L92.0545 246.94L91.3894 246.646ZM91.1924 248.494L91.3322 249.208L91.9992 249.077L91.9139 248.403L91.1924 248.494ZM88.8931 248.945L88.1736 249.051L88.2849 249.805L89.0329 249.658L88.8931 248.945ZM89.1759 246.132L88.5051 245.852L88.5035 245.855L89.1759 246.132ZM90.7887 244.064L90.3533 243.481L90.3515 243.483L90.7887 244.064ZM96.283 243.044L96.0678 243.739L96.07 243.74L96.283 243.044ZM98.4693 244.435L97.9227 244.915L97.9257 244.918L98.4693 244.435ZM99.6685 248.719L98.9519 248.595L98.9508 248.602L99.6685 248.719ZM99.0768 250.342L98.4528 249.968L98.4498 249.973L99.0768 250.342ZM97.9298 251.741L97.4374 251.206L97.433 251.21L97.9298 251.741ZM96.8507 253.052L97.4781 253.419L97.4811 253.414L96.8507 253.052ZM96.5364 256.429L95.8205 256.557L95.8227 256.569L96.5364 256.429ZM96.5579 256.539L96.6977 257.252L97.4114 257.112L97.2716 256.399L96.5579 256.539ZM95.3406 261.884L95.7464 261.28L95.7464 261.28L95.3406 261.884ZM94.8866 259.566L95.4901 259.972L94.8866 259.566ZM97.8475 261.042L97.1652 260.79L97.1609 260.802L97.8475 261.042ZM97.3724 261.76L97.8595 262.3L97.8633 262.297L97.3724 261.76ZM95.0818 256.828L95.0604 256.718L93.6329 256.998L93.6544 257.107L95.0818 256.828ZM95.0618 256.726C94.8529 255.597 94.8069 254.733 94.8893 254.108L93.4472 253.918C93.3366 254.758 93.4095 255.791 93.6315 256.99L95.0618 256.726ZM94.8893 254.108C94.9741 253.464 95.1619 252.955 95.4301 252.556L94.2231 251.744C93.8065 252.364 93.5554 253.096 93.4472 253.918L94.8893 254.108ZM95.4301 252.556C95.7349 252.103 96.1282 251.654 96.6168 251.212L95.641 250.133C95.078 250.643 94.6031 251.179 94.2231 251.744L95.4301 252.556ZM96.62 251.209C96.9814 250.878 97.2939 250.509 97.556 250.101L96.3323 249.315C96.1393 249.615 95.9083 249.889 95.6378 250.136L96.62 251.209ZM97.5599 250.095C97.8341 249.658 98.0227 249.182 98.1265 248.671L96.701 248.382C96.6312 248.725 96.5068 249.037 96.3283 249.321L97.5599 250.095ZM98.1245 248.68C98.2407 248.144 98.2365 247.589 98.1256 247.023L96.6981 247.302C96.7755 247.697 96.7726 248.051 96.703 248.372L98.1245 248.68ZM98.1256 247.023C97.9861 246.311 97.6893 245.689 97.2145 245.191L96.1621 246.196C96.4185 246.464 96.604 246.822 96.6981 247.302L98.1256 247.023ZM97.2145 245.191C96.7581 244.713 96.2041 244.381 95.5654 244.201L95.1699 245.6C95.5609 245.711 95.8873 245.908 96.1621 246.196L97.2145 245.191ZM95.5654 244.201C94.9311 244.021 94.2716 244.005 93.5979 244.137L93.8775 245.564C94.3474 245.472 94.7745 245.489 95.1699 245.6L95.5654 244.201ZM93.5979 244.137C92.9971 244.254 92.4419 244.493 91.9378 244.849L92.7759 246.037C93.1154 245.798 93.4808 245.642 93.8775 245.564L93.5979 244.137ZM91.9378 244.849C91.4008 245.227 90.9969 245.735 90.7242 246.352L92.0545 246.94C92.2283 246.547 92.4694 246.253 92.7759 246.037L91.9378 244.849ZM90.7242 246.352C90.4327 247.011 90.3676 247.769 90.4709 248.586L91.9139 248.403C91.8333 247.765 91.8995 247.291 92.0545 246.94L90.7242 246.352ZM91.0526 247.781L88.7533 248.231L89.0329 249.658L91.3322 249.208L91.0526 247.781ZM89.6126 248.839C89.4745 247.902 89.5639 247.1 89.8484 246.409L88.5035 245.855C88.1031 246.827 88.004 247.9 88.1736 249.051L89.6126 248.839ZM89.8468 246.413C90.1451 245.701 90.6016 245.115 91.2259 244.645L90.3515 243.483C89.5225 244.106 88.9039 244.899 88.5051 245.852L89.8468 246.413ZM91.2242 244.646C91.8612 244.17 92.6169 243.84 93.5058 243.666L93.2261 242.239C92.1442 242.451 91.1817 242.862 90.3533 243.481L91.2242 244.646ZM93.5058 243.666C94.4808 243.475 95.3287 243.51 96.0678 243.739L96.4983 242.35C95.489 242.037 94.3922 242.01 93.2261 242.239L93.5058 243.666ZM96.07 243.74C96.8283 243.972 97.4393 244.364 97.9227 244.915L99.0158 243.955C98.3448 243.191 97.4983 242.656 96.4961 242.349L96.07 243.74ZM97.9257 244.918C98.4141 245.468 98.7459 246.148 98.9094 246.983L100.337 246.703C100.129 245.64 99.6911 244.715 99.0129 243.952L97.9257 244.918ZM98.9094 246.983C99.026 247.578 99.0354 248.113 98.9519 248.595L100.385 248.843C100.503 248.162 100.482 247.446 100.337 246.703L98.9094 246.983ZM98.9508 248.602C98.8707 249.093 98.705 249.547 98.4528 249.968L99.7008 250.715C100.048 250.135 100.277 249.507 100.386 248.836L98.9508 248.602ZM98.4498 249.973C98.1961 250.405 97.8609 250.816 97.4374 251.206L98.4223 252.276C98.9406 251.799 99.3701 251.278 99.7038 250.71L98.4498 249.973ZM97.433 251.21C96.9248 251.685 96.5144 252.177 96.2202 252.689L97.4811 253.414C97.6863 253.057 97.9954 252.676 98.4266 252.272L97.433 251.21ZM96.2232 252.684C95.9137 253.212 95.735 253.798 95.6792 254.43L97.1281 254.558C97.1665 254.123 97.2859 253.747 97.4781 253.419L96.2232 252.684ZM95.6792 254.43C95.6246 255.049 95.6781 255.762 95.8206 256.557L97.2523 256.301C97.1236 255.583 97.0886 255.006 97.1281 254.558L95.6792 254.43ZM95.8227 256.569L95.8442 256.678L97.2716 256.399L97.2501 256.289L95.8227 256.569ZM96.4181 255.825L94.2283 256.254L94.5079 257.681L96.6977 257.252L96.4181 255.825ZM96.4543 261.427C96.1962 261.477 95.9742 261.433 95.7464 261.28L94.9348 262.487C95.4781 262.852 96.0918 262.98 96.7339 262.854L96.4543 261.427ZM95.7464 261.28C95.5186 261.127 95.3943 260.938 95.3437 260.68L93.9163 260.959C94.0421 261.602 94.3915 262.122 94.9348 262.487L95.7464 261.28ZM95.3437 260.68C95.2932 260.422 95.337 260.2 95.4901 259.972L94.2831 259.16C93.9178 259.704 93.7905 260.317 93.9163 260.959L95.3437 260.68ZM95.4901 259.972C95.6433 259.744 95.8323 259.62 96.0905 259.569L95.8108 258.142C95.1687 258.268 94.6484 258.617 94.2831 259.16L95.4901 259.972ZM96.0905 259.569C96.3486 259.519 96.5705 259.563 96.7983 259.716L97.6099 258.509C97.0667 258.143 96.453 258.016 95.8108 258.142L96.0905 259.569ZM96.7983 259.716C97.0261 259.869 97.1504 260.058 97.201 260.316L98.6284 260.036C98.5026 259.394 98.1532 258.874 97.6099 258.509L96.7983 259.716ZM97.201 260.316C97.2343 260.486 97.2212 260.639 97.1653 260.79L98.5296 261.294C98.6801 260.887 98.7119 260.463 98.6284 260.036L97.201 260.316ZM97.1609 260.802C97.1039 260.965 97.0133 261.103 96.8814 261.224L97.8633 262.297C98.1706 262.016 98.3968 261.675 98.534 261.282L97.1609 260.802ZM96.8853 261.22C96.7755 261.319 96.6387 261.39 96.4543 261.427L96.7339 262.854C97.1577 262.771 97.5398 262.589 97.8594 262.3L96.8853 261.22Z" fill="#303030"/>
</g>
<defs>
<clipPath id="clip0_286_1743">
<rect width="361" height="314" fill="white" transform="translate(-1)"/>
</clipPath>
</defs>
</svg>
