<svg width="358" height="314" viewBox="0 0 358 314" fill="none" xmlns="http://www.w3.org/2000/svg">
<g clip-path="url(#clip0_1999_15747)">
<path d="M133.67 121.74C133.67 121.74 129.36 113.77 128.71 108.25C128.08 102.71 128.53 101.98 130.21 100.5C130.92 99.8702 131.22 97.7402 133.25 97.3102C135.28 96.8802 137.01 102.13 137.01 102.13C137.01 102.13 137.58 98.3402 139.29 98.9202C141 99.4902 141.76 106.42 141.76 106.42C141.76 106.42 143.52 101.63 144.85 102.07C146.17 102.49 146.97 110.64 146.13 112.98C145.31 115.31 143.01 118.19 143.01 118.19L133.64 121.74H133.65H133.67Z" fill="#F48462"/>
<path d="M138.67 116.37C138.51 116.37 138.38 116.24 138.38 116.08C138.38 108.26 142.41 106.36 142.57 106.29C142.72 106.23 142.89 106.29 142.95 106.44C143.02 106.59 142.95 106.76 142.8 106.82C142.76 106.83 138.93 108.67 138.95 116.08C138.95 116.24 138.82 116.37 138.66 116.37H138.67Z" fill="black"/>
<path d="M222.33 121.74C222.33 121.74 226.64 113.77 227.29 108.25C227.92 102.71 227.47 101.98 225.79 100.5C225.08 99.8702 224.78 97.7402 222.75 97.3102C220.71 96.8802 218.99 102.13 218.99 102.13C218.99 102.13 218.42 98.3402 216.71 98.9202C215 99.4902 214.24 106.42 214.24 106.42C214.24 106.42 212.48 101.63 211.15 102.07C209.83 102.49 209.03 110.64 209.87 112.98C210.69 115.31 212.99 118.19 212.99 118.19L222.36 121.74H222.35H222.33Z" fill="#F48462"/>
<path d="M217.33 116.37C217.17 116.37 217.04 116.24 217.04 116.08C217.04 108.67 213.23 106.84 213.19 106.82C213.04 106.75 212.98 106.58 213.04 106.44C213.1 106.29 213.28 106.23 213.42 106.29C213.6 106.36 217.63 108.27 217.61 116.08C217.61 116.24 217.48 116.37 217.32 116.37H217.33Z" fill="black"/>
<path d="M169.61 147.96C169.61 147.96 160.8 142.56 161.89 139.42C162.98 136.29 169.63 132.52 176.46 132.52C183.29 132.52 190.84 135.93 191.03 139.35C191.21 142.76 169.62 147.97 169.62 147.97H169.61V147.96Z" fill="#5C69A5"/>
<path d="M150.49 296.22C150.37 296.22 150.25 296.15 150.21 296.03C149.42 293.84 146.92 287.98 145 287.18C144.75 287.08 144.53 287.06 144.32 287.15C144.11 287.24 144 287.38 143.94 287.6C143.54 289.26 146.88 293.81 148.34 295.6C148.4 295.67 148.44 295.72 148.46 295.73C148.56 295.86 148.55 296.04 148.42 296.14C148.29 296.24 148.11 296.23 148.01 296.1C147.98 296.06 147.92 296 147.86 295.92C146.58 294.38 143.4 291 141.64 291H141.49C141.12 291.04 140.86 291.25 140.67 291.65C140.42 292.15 140.42 292.59 140.64 293C141.46 294.45 145.18 295.08 146.54 295.22C146.7 295.22 146.82 295.38 146.8 295.54C146.8 295.7 146.65 295.83 146.48 295.8C146.27 295.79 141.26 295.32 140.11 293.29C139.79 292.72 139.79 292.07 140.11 291.4C140.4 290.81 140.83 290.49 141.4 290.42C142.47 290.3 143.96 291.27 145.27 292.42C144.09 290.61 143.06 288.59 143.34 287.43C143.44 287.03 143.68 286.74 144.06 286.56C144.41 286.4 144.8 286.41 145.21 286.59C147.74 287.68 150.61 295.46 150.72 295.78C150.78 295.93 150.71 296.1 150.54 296.16C150.51 296.16 150.47 296.17 150.44 296.17L150.48 296.21L150.49 296.22Z" fill="#A37B90"/>
<path d="M204.92 292.93C204.76 292.93 204.6 292.91 204.43 292.89C203.78 292.74 203.31 292.32 203.02 291.61C202.77 291.01 202.81 290.47 203.15 290C203.78 289.11 205.49 288.66 207.22 288.44C205.09 288.12 202.9 287.54 202.21 286.56C201.97 286.22 201.92 285.84 202.05 285.46C202.17 285.09 202.43 284.81 202.83 284.62C205.32 283.46 213.05 286.5 213.37 286.63C213.52 286.69 213.59 286.87 213.53 287.01C213.47 287.16 213.29 287.23 213.15 287.17C210.99 286.32 204.94 284.28 203.06 285.14C202.81 285.26 202.66 285.42 202.59 285.63C202.52 285.85 202.55 286.03 202.68 286.22C203.67 287.63 209.28 288.16 211.59 288.26H211.77C211.93 288.26 212.06 288.41 212.05 288.57C212.05 288.73 211.92 288.85 211.76 288.85H211.51C209.45 288.78 204.63 288.91 203.61 290.32C203.4 290.61 203.38 290.97 203.55 291.36C203.76 291.87 204.08 292.18 204.54 292.27C206.2 292.64 209.13 290.29 210.11 289.35C210.23 289.23 210.42 289.25 210.52 289.35C210.64 289.47 210.62 289.66 210.52 289.76C210.37 289.89 207.17 292.87 204.89 292.87L204.92 292.93Z" fill="#A37B90"/>
<path d="M175.76 309.83C175.77 310.2 175.5 310.52 175.13 310.55L132.22 314C131.84 314.03 131.51 313.75 131.48 313.37L131.16 309.47C131.16 309.09 131.4 308.78 131.73 308.74C131.97 308.7 132.16 308.56 132.24 308.36C132.28 308.26 132.31 308.13 132.3 307.99C132.17 306.84 132.08 304.36 133.43 302.28C135.27 299.46 144.94 296.35 149.21 294.42C151.99 293.17 153.4 289.88 154.05 287.75C154.4 286.58 155.45 285.74 156.68 285.68C161.55 285.49 173.03 285.02 173.77 285.15C174.71 285.33 175.76 293.89 175.42 297.25C175.1 300.61 174.39 304.55 174.39 304.55L175.51 304.34L175.75 309.83H175.76Z" fill="#F7B369"/>
<path d="M175.76 309.83C175.77 310.2 175.5 310.52 175.13 310.55L132.22 314C131.84 314.03 131.51 313.75 131.48 313.37L131.16 309.47C131.16 309.09 131.4 308.78 131.73 308.74C131.97 308.7 132.16 308.56 132.24 308.36C144.31 307.55 174.39 304.56 174.39 304.56L175.51 304.35L175.75 309.84H175.76V309.83Z" fill="#F7B369"/>
<path d="M240.83 280.19C241.1 280.44 241.11 280.87 240.86 281.14L211.89 312.93C211.64 313.21 211.2 313.22 210.92 312.97L208.01 310.34C207.75 310.06 207.72 309.68 207.92 309.4C208.07 309.21 208.11 308.98 208.04 308.77C208.01 308.67 207.94 308.55 207.83 308.46C206.95 307.71 205.2 305.96 204.76 303.51C204.17 300.19 209.11 291.32 210.92 287.01C212.1 284.2 210.88 280.84 209.89 278.85C209.35 277.75 209.54 276.43 210.39 275.55C213.82 272.09 221.88 263.92 222.51 263.51C223.3 263 229.94 268.55 232 271.23C234.06 273.9 236.24 277.25 236.24 277.25L236.92 276.34L240.86 280.19H240.84H240.83Z" fill="#F7B369"/>
<path d="M240.83 280.19C241.1 280.44 241.11 280.87 240.86 281.14L211.89 312.93C211.64 313.21 211.2 313.22 210.92 312.97L208.01 310.34C207.75 310.06 207.72 309.68 207.92 309.4C208.07 309.21 208.11 308.97 208.04 308.77C216.3 299.96 236.22 277.25 236.22 277.25L236.9 276.34L240.84 280.19H240.83Z" fill="#F7B369"/>
<path d="M154.33 185.48C154.33 185.48 142.98 214.93 139.89 235.08C136.8 255.24 147.46 287.96 147.46 287.96L180.25 287.53C180.25 287.53 174.09 255.08 172.96 245.22C172.12 234.35 178 187.33 178 187.33L154.31 185.46H154.32L154.33 185.48Z" fill="#68B6D8"/>
<path d="M192.46 184.9C192.46 184.9 198.62 211.2 210.96 233.22C223.3 255.23 229.18 261.53 229.18 261.53L203.43 283.67C203.43 283.67 173.96 250.96 170.31 228.66C166.66 206.36 166.94 186.35 166.94 186.35L192.46 184.93V184.91V184.9Z" fill="#68B6D8"/>
<path d="M190.3 197.75C185.23 197.75 182.89 192.6 182.86 192.54C182.8 192.39 182.86 192.22 183.01 192.16C183.16 192.1 183.33 192.16 183.39 192.31C183.51 192.57 186.26 198.58 192.39 196.88C192.55 196.84 192.71 196.92 192.76 197.09C192.8 197.25 192.72 197.41 192.55 197.46C191.74 197.68 190.99 197.78 190.29 197.78V197.76L190.3 197.75Z" fill="#40507F"/>
<path d="M203.71 231.88C203.47 231.88 203.27 231.81 203.08 231.67C202.48 231.23 202.42 230.76 202.46 230.44C202.71 228.82 206.74 227.42 207.2 227.25C207.32 227.22 207.44 227.25 207.52 227.34C207.59 227.43 207.61 227.56 207.56 227.66C207.35 228.06 205.53 231.49 203.99 231.84C203.9 231.85 203.81 231.87 203.73 231.87H203.72L203.71 231.88ZM206.65 228.08C205.09 228.7 203.16 229.71 203.05 230.53C203.05 230.62 202.99 230.87 203.43 231.21C203.55 231.3 203.68 231.33 203.84 231.28C204.72 231.07 205.94 229.28 206.65 228.09V228.08Z" fill="#40507F"/>
<path d="M202.76 275.61C202.67 275.61 202.6 275.58 202.54 275.51C202.44 275.39 202.45 275.2 202.58 275.1L224.93 256.66C225.06 256.56 225.24 256.57 225.34 256.7C225.44 256.83 225.43 257.01 225.3 257.11L202.95 275.55C202.95 275.55 202.83 275.62 202.76 275.62V275.61Z" fill="#40507F"/>
<path d="M172.55 238.1C172.43 238.1 172.33 238.04 172.29 237.92C168.38 229.46 167.08 203.4 166.95 200.6L157.51 197.74C157.35 197.7 157.26 197.53 157.32 197.37C157.36 197.21 157.54 197.13 157.69 197.18L167.34 200.1C167.46 200.13 167.55 200.25 167.55 200.36C167.55 200.64 168.84 229.02 172.84 237.67C172.91 237.82 172.84 237.99 172.69 238.07C172.65 238.08 172.6 238.1 172.57 238.1H172.56H172.55Z" fill="#40507F"/>
<path d="M150.49 281.67C150.33 281.67 150.2 281.54 150.2 281.38C150.2 281.22 150.33 281.09 150.49 281.09L178.48 280.55C178.66 280.58 178.77 280.68 178.77 280.84C178.77 281 178.64 281.13 178.48 281.13L150.49 281.67Z" fill="#40507F"/>
<path d="M132.24 308.64C132.09 308.64 131.96 308.52 131.95 308.38C131.95 308.22 132.05 308.07 132.21 308.06L174.36 304.26C174.54 304.25 174.67 304.36 174.68 304.52C174.68 304.68 174.58 304.83 174.42 304.84L132.27 308.64H132.24Z" fill="#A37B90"/>
<path d="M208.04 309.07C208.04 309.07 207.91 309.04 207.85 309C207.73 308.9 207.72 308.71 207.82 308.59L236.01 277.07C236.11 276.95 236.3 276.94 236.42 277.04C236.54 277.14 236.55 277.33 236.45 277.45L208.26 308.97C208.26 308.97 208.13 309.07 208.04 309.07Z" fill="#A37B90"/>
<path d="M147.08 115.72C147.08 115.72 142.95 129.9 149.65 135.67C156.35 141.44 166.37 138.88 168.56 138.71C170.75 138.53 177.02 137.98 181.32 138.8C185.64 139.62 195.83 139.37 202.35 130.65C208.87 121.93 209.15 115.47 209.15 115.47L228.16 115.72C228.16 115.72 229.72 138.74 218.98 150.55C211.42 158.86 196.57 161.91 196.57 161.91C196.57 161.91 196.03 170.9 195.66 175.58C195.29 180.25 193.26 186.36 193.26 186.36C193.26 186.36 182.58 188.61 171.3 188.42C160.02 188.24 153.17 186.89 153.17 186.89C153.17 186.89 152.58 184.12 152.49 177.55C152.4 170.99 153.4 162.18 153.4 162.18C153.4 162.18 131.91 161.27 126.58 146.96C121.24 132.64 128.7 115 128.7 115L147.07 115.72H147.08Z" fill="#F7B369"/>
<path d="M180.99 129.93L180.21 140.65C180.21 140.65 178.56 143.54 173.89 143.44C170.4 143.37 169.27 142.15 169.27 142.15L170.14 136.79L170.99 131.56L179.53 130.18L180.97 129.94H180.98L180.99 129.93Z" fill="#F48462"/>
<path d="M179.55 131.84C179.51 132.06 179.4 132.3 179.24 132.57C177.08 136.34 172.15 136.72 170.14 136.71L170.99 131.53L179.53 131.82H179.54L179.55 131.84Z" fill="black"/>
<path d="M171.68 115.22C171.68 115.22 167.11 124.38 168.08 129.84C169.07 135.3 173.64 134.86 176.42 134.07C179.2 133.28 180.6 131.6 180.6 131.6C180.6 131.6 183.06 132.75 184.94 130.37C186.82 127.99 186 125 184.62 124.2C183.22 123.41 181.43 124.38 181.43 124.38L182.99 121.74C182.99 121.74 178.42 107.21 171.7 115.22H171.68Z" fill="#F48462"/>
<path d="M161.9 139.42C161.9 139.42 161.24 142.36 165.08 144.62C168.92 146.88 173.8 147.95 173.8 147.95C173.8 147.95 181.9 145.97 187.08 143.43C191.04 141.49 192.13 139.38 190.43 137.73C188.72 136.07 182.78 136.07 182.78 136.07C182.78 136.07 178.87 137.33 176.96 138.51C175.05 139.69 173.81 140.23 173.81 140.23C173.81 140.23 170.56 137.84 168.07 137.31C165.58 136.77 165.08 137.54 165.08 137.54L161.9 139.42Z" fill="#5C69A5"/>
<path d="M168.17 154.72H168.08C167.92 154.68 167.84 154.5 167.89 154.35L169.76 148.58C169.8 148.42 169.98 148.34 170.13 148.39C170.29 148.43 170.37 148.61 170.32 148.76L168.45 154.53C168.41 154.65 168.29 154.74 168.17 154.74V154.72Z" fill="#5C69A5"/>
<path d="M180.99 155.08C180.86 155.08 180.74 154.99 180.71 154.86L179.27 148.72C179.23 148.56 179.33 148.41 179.49 148.37C179.65 148.34 179.81 148.43 179.84 148.59L181.28 154.73C181.32 154.89 181.22 155.04 181.06 155.08H180.99Z" fill="#5C69A5"/>
<path d="M142.29 137.13C142.05 137.13 141.75 137.04 141.53 136.66C141.35 136.35 141.31 136.01 141.43 135.65C142 133.77 146.64 131.57 146.84 131.47C146.96 131.41 147.1 131.44 147.19 131.54C147.28 131.64 147.29 131.78 147.22 131.89C146.68 132.77 143.88 137.13 142.31 137.13H142.3H142.29ZM146.11 132.49C144.57 133.31 142.32 134.74 141.98 135.82C141.92 136.03 141.94 136.2 142.02 136.36C142.11 136.52 142.2 136.51 142.28 136.54C143.1 136.54 144.87 134.34 146.1 132.49H146.11Z" fill="#5C69A5"/>
<path d="M204.39 138.17C202.26 138.17 199.51 134.5 199.17 134.03C199.1 133.93 199.1 133.78 199.17 133.68C199.24 133.58 199.39 133.53 199.51 133.58C200.92 134.09 205.55 135.9 205.66 137.23C205.66 137.45 205.6 137.74 205.17 137.98C204.93 138.11 204.67 138.17 204.41 138.17H204.4H204.39ZM200.29 134.51C201.54 136.01 203.67 138.11 204.88 137.46C204.97 137.42 205.07 137.34 205.06 137.27C205.02 136.7 202.71 135.47 200.3 134.51H200.29Z" fill="#5C69A5"/>
<path d="M140.61 109.61C140.61 109.61 140.52 109.61 140.48 109.58C139.24 109.01 139.83 106.83 139.91 106.58C139.95 106.42 140.13 106.33 140.28 106.37C140.44 106.41 140.53 106.59 140.49 106.75C140.34 107.25 140.09 108.72 140.74 109.03C140.89 109.1 140.96 109.28 140.89 109.43C140.83 109.55 140.73 109.61 140.61 109.61Z" fill="black"/>
<path d="M207.47 106.42H209.32C215.31 106.42 220.17 101.4 220.17 95.2V59.22C220.17 53.02 215.31 48 209.32 48H142.85C136.86 48 132 53.02 132 59.22V95.2C132 101.4 136.86 106.42 142.85 106.42H195.91" fill="#1B09F9"/>
<path opacity="0.3" d="M147.44 52.4497C147.11 52.3797 146.85 52.0897 146.85 51.7297C146.85 51.3197 147.18 50.9897 147.59 50.9997L169.41 50.9697C169.81 50.9697 170.15 51.2997 170.14 51.7097C170.14 52.1197 169.81 52.4497 169.4 52.4397L147.58 52.4697C147.58 52.4697 147.48 52.4697 147.43 52.4497H147.44Z" fill="white"/>
<path d="M221.24 103.23C221.24 103.23 226.84 99.1498 225.49 103.95C224.48 107.59 219.67 112.45 218.28 111.45C216.88 110.45 218.1 106.91 218.1 106.91C218.1 106.91 215.98 108.72 214.63 106.98C213.39 105.41 215.01 102.65 215.01 102.65C215.01 102.65 212.97 105.16 211.63 103.31C209.66 100.59 216.32 94.8398 218.31 94.8398C220.94 94.8398 218.6 98.2798 218.6 98.2798C218.6 98.2798 222.73 95.6398 223.39 98.2398C224.05 100.84 221.23 103.23 221.23 103.23H221.24Z" fill="#F48462"/>
<path d="M218.99 111.82C218.64 111.82 218.24 111.72 217.83 111.42C217.2 110.95 216.96 110.07 217.15 108.88C217.33 107.79 217.84 106.74 218.62 105.83L221 103.04C221.1 102.91 221.29 102.89 221.41 103.01C221.53 103.11 221.54 103.3 221.44 103.42L219.06 106.21C218.35 107.05 217.9 108 217.72 108.99C217.56 109.96 217.71 110.62 218.16 110.96C219.03 111.59 219.7 111.02 219.78 110.96C219.9 110.86 220.09 110.86 220.19 110.97C220.29 111.09 220.29 111.28 220.18 111.38C219.96 111.59 219.5 111.84 218.97 111.84H218.98L218.99 111.82Z" fill="black"/>
<path d="M216.21 107.91C215.62 107.91 215 107.72 214.43 107.2C212.61 105.57 214.68 102.6 214.77 102.49L218.37 98.0997C218.47 97.9697 218.66 97.9497 218.78 98.0597C218.9 98.1597 218.93 98.3497 218.82 98.4697L215.23 102.85C215.23 102.85 213.38 105.49 214.82 106.77C216.26 108.05 217.83 106.76 217.91 106.7C218.03 106.6 218.22 106.61 218.32 106.73C218.42 106.85 218.41 107.04 218.29 107.14C217.88 107.49 217.08 107.92 216.22 107.92H216.21V107.91Z" fill="black"/>
<path d="M134.77 103.23C134.77 103.23 129.17 99.1498 130.52 103.95C131.53 107.59 136.34 112.45 137.73 111.45C139.13 110.45 137.91 106.91 137.91 106.91C137.91 106.91 140.03 108.72 141.38 106.98C142.62 105.41 141 102.65 141 102.65C141 102.65 143.04 105.16 144.38 103.31C146.35 100.59 139.69 94.8398 137.7 94.8398C135.07 94.8398 137.41 98.2798 137.41 98.2798C137.41 98.2798 133.28 95.6398 132.62 98.2398C131.96 100.84 134.78 103.23 134.78 103.23H134.77Z" fill="#F48462"/>
<path d="M137.02 111.82C136.48 111.82 136.03 111.57 135.81 111.36C135.69 111.26 135.68 111.07 135.8 110.95C135.92 110.83 136.09 110.82 136.21 110.94C136.28 111 136.97 111.57 137.83 110.94C138.29 110.6 138.43 109.94 138.27 108.97C138.11 107.99 137.64 107.03 136.93 106.19L134.55 103.4C134.45 103.28 134.46 103.09 134.58 102.99C134.71 102.89 134.89 102.9 134.99 103.02L137.37 105.81C138.15 106.72 138.65 107.78 138.84 108.86C139.05 110.06 138.81 110.92 138.16 111.4C137.76 111.69 137.37 111.8 137 111.8H137.01L137.02 111.82Z" fill="black"/>
<path d="M139.8 107.91C138.93 107.91 138.15 107.48 137.73 107.13C137.61 107.03 137.6 106.84 137.7 106.72C137.8 106.6 137.99 106.59 138.11 106.69C138.17 106.75 139.76 108.05 141.2 106.76C142.63 105.48 140.79 102.86 140.77 102.83L137.2 98.4704C137.1 98.3404 137.11 98.1604 137.24 98.0604C137.36 97.9604 137.55 97.9704 137.65 98.1004L141.24 102.48C141.34 102.63 143.42 105.59 141.59 107.21C141 107.72 140.38 107.92 139.8 107.92V107.91Z" fill="black"/>
<path d="M181.42 124.38L179.95 125.51L181.33 122.15C181.33 122.15 177.55 120.01 176.52 118.16C175.49 116.31 174.92 115.62 174.92 115.62L171.7 115.22C171.7 115.22 167.95 108.2 172.36 107.85C176.77 107.5 183.43 114.18 184.76 116.67C186.1 119.18 184.76 121.25 184.76 121.25C184.76 121.25 186.39 121.37 186.69 122.6C186.98 123.85 185.69 125.49 185.69 125.49C185.69 125.49 184.18 123.36 181.43 124.36L181.42 124.38Z" fill="black"/>
<path d="M60.46 101.75H10.24C4.03 101.75 -1 106.77 -1 112.97V128.37C-1 134.57 4.03 139.59 10.24 139.59H46.56L58.55 151.56V139.59H60.46C66.67 139.59 71.7 134.57 71.7 128.37V112.97C71.7 106.77 66.67 101.75 60.46 101.75Z" fill="#599BFF"/>
<path d="M16.66 125.09C19.1 125.09 21.09 123.11 21.09 120.67C21.09 118.23 19.11 116.25 16.66 116.25C14.21 116.25 12.23 118.23 12.23 120.67C12.23 123.11 14.21 125.09 16.66 125.09Z" fill="white"/>
<path d="M35.35 125.09C37.79 125.09 39.78 123.11 39.78 120.67C39.78 118.23 37.8 116.25 35.35 116.25C32.9 116.25 30.92 118.23 30.92 120.67C30.92 123.11 32.9 125.09 35.35 125.09Z" fill="white"/>
<path d="M54.03 125.09C56.47 125.09 58.46 123.11 58.46 120.67C58.46 118.23 56.48 116.25 54.03 116.25C51.58 116.25 49.6 118.23 49.6 120.67C49.6 123.11 51.58 125.09 54.03 125.09Z" fill="white"/>
<path d="M65.11 205.38H115.33C121.54 205.38 126.57 200.36 126.57 194.16V178.76C126.57 172.56 121.54 167.54 115.33 167.54H65.11C58.9 167.54 53.87 172.56 53.87 178.76V194.16C53.87 200.35 58.9 205.38 65.11 205.38Z" fill="#FF5970"/>
<path d="M108.89 190.88C111.33 190.88 113.32 188.9 113.32 186.46C113.32 184.02 111.34 182.04 108.89 182.04C106.44 182.04 104.46 184.02 104.46 186.46C104.46 188.9 106.44 190.88 108.89 190.88Z" fill="white"/>
<path d="M90.21 190.88C92.65 190.88 94.64 188.9 94.64 186.46C94.64 184.02 92.66 182.04 90.21 182.04C87.76 182.04 85.78 184.02 85.78 186.46C85.78 188.9 87.76 190.88 90.21 190.88Z" fill="white"/>
<path d="M71.53 190.88C73.97 190.88 75.96 188.9 75.96 186.46C75.96 184.02 73.98 182.04 71.53 182.04C69.08 182.04 67.1 184.02 67.1 186.46C67.1 188.9 69.08 190.88 71.53 190.88Z" fill="white"/>
<path d="M66.9999 198.44V217.35L82.4699 201.9C82.4699 201.9 66.4299 199.01 66.9999 198.42V198.44Z" fill="#FF5970"/>
<path d="M342.61 159H232.05C227.05 159 223.01 163.04 223.01 168.03V215C223.01 219.99 227.05 224.03 232.05 224.03H274.58L282.2 231.63L289.82 224.03H342.62C347.62 224.03 351.66 219.99 351.66 215V168.03C351.66 163.04 347.62 159 342.62 159H342.61Z" fill="white" stroke="#BBABF8" stroke-width="0.29" stroke-miterlimit="10"/>
<path d="M247.34 186.59C252.15 184.57 254.4 179.04 252.38 174.24C250.36 169.44 244.82 167.19 240.01 169.21C235.21 171.23 232.95 176.76 234.97 181.56C236.99 186.36 242.53 188.61 247.34 186.59Z" fill="#DAE0FF"/>
<path d="M264.99 172.74H256.65V174.97H264.99V172.74Z" fill="#BBABF8"/>
<path d="M279.58 172.74H267.06V174.97H279.58V172.74Z" fill="#BBABF8"/>
<path d="M264.99 180.84H256.65V183.07H264.99V180.84Z" fill="#BBABF8"/>
<path d="M299.74 180.84H267.06V183.07H299.74V180.84Z" fill="#BBABF8"/>
<path d="M251.72 195.32H233.72V197.55H251.72V195.32Z" fill="#E6DFFC"/>
<path d="M301.18 195.32H259.06V197.55H301.18V195.32Z" fill="#E6DFFC"/>
<path d="M340.92 195.32H308.51V197.55H340.92V195.32Z" fill="#E6DFFC"/>
<path d="M273.96 202.41H233.72V204.64H273.96V202.41Z" fill="#E6DFFC"/>
<path d="M340.9 202.41H320.8V204.64H340.9V202.41Z" fill="#E6DFFC"/>
<path d="M316.08 202.41H280.83V204.64H316.08V202.41Z" fill="#E6DFFC"/>
<path d="M285.08 209.48H233.73V211.71H285.08V209.48Z" fill="#E6DFFC"/>
<path d="M176.23 86.46C175.45 86.46 174.84 86.7 174.42 87.17C174.02 87.62 173.81 88.18 173.81 88.83C173.81 89.48 174.02 90.04 174.43 90.48C174.85 90.94 175.45 91.17 176.23 91.17C177.01 91.17 177.61 90.94 178.04 90.49C178.46 90.05 178.67 89.49 178.67 88.84C178.67 88.19 178.46 87.63 178.05 87.18C177.63 86.71 177.02 86.48 176.24 86.48L176.23 86.46Z" fill="white"/>
<path d="M182.25 65.93C180.92 64.65 179.06 64 176.72 64C174.38 64 172.62 64.63 171.2 65.88C169.76 67.14 169.02 68.81 169 70.85V71.36H173.24V70.86C173.24 69.93 173.54 69.22 174.16 68.68C174.8 68.12 175.64 67.85 176.71 67.85C177.78 67.85 178.61 68.14 179.16 68.74C179.71 69.34 179.99 70.2 179.99 71.3C179.99 72.46 179.55 73.53 178.66 74.54L176.34 76.92C175.39 77.95 174.76 78.91 174.44 79.78C174.13 80.64 173.96 81.81 173.93 83.25V83.76H178.19V83.26C178.19 81.61 178.58 80.34 179.34 79.51L181.26 77.6C183.24 75.53 184.25 73.37 184.25 71.2C184.25 69.03 183.57 67.22 182.24 65.94L182.25 65.93Z" fill="white"/>
</g>
<defs>
<clipPath id="clip0_1999_15747">
<rect width="358" height="314" fill="white"/>
</clipPath>
</defs>
</svg>
