<svg width="23" height="22" viewBox="0 0 23 22" fill="none" xmlns="http://www.w3.org/2000/svg">
<path opacity="0.4" d="M20.6314 12.509C20.495 11.0089 20.095 9.40884 17.1766 9.40884H5.57594C2.65758 9.40884 2.26665 11.0089 2.12119 12.509L1.61206 18.0457C1.54842 18.7367 1.77571 19.4276 2.24847 19.9458C2.73031 20.4731 3.41217 20.7732 4.13949 20.7732H5.84868C7.32149 20.7732 7.60333 19.9277 7.78516 19.3731L7.96699 18.8276C8.17609 18.2003 8.23064 18.0457 9.04887 18.0457H13.7037C14.5219 18.0457 14.5492 18.1366 14.7856 18.8276L14.9674 19.3731C15.1492 19.9277 15.4311 20.7732 16.9039 20.7732H18.6131C19.3313 20.7732 20.0223 20.4731 20.5041 19.9458C20.9769 19.4276 21.2041 18.7367 21.1405 18.0457L20.6314 12.509Z" fill="#FF8301"/>
<path d="M19.5587 6.68141H18.6495C18.6404 6.68141 18.6404 6.68141 18.6313 6.68141L18.2859 5.03585C17.9586 3.44485 17.2767 1.98112 14.5675 1.98112H12.0582H10.6945H8.18527C5.47602 1.98112 4.79416 3.44485 4.46687 5.03585L4.12139 6.68141C4.1123 6.68141 4.1123 6.68141 4.10321 6.68141H3.19407C2.82132 6.68141 2.51221 6.99051 2.51221 7.36326C2.51221 7.73601 2.82132 8.04512 3.19407 8.04512H3.83956L3.45772 9.86341C3.94866 9.58158 4.63051 9.40884 5.57603 9.40884H17.1767C18.1222 9.40884 18.8041 9.58158 19.295 9.86341L18.9132 8.04512H19.5587C19.9314 8.04512 20.2405 7.73601 20.2405 7.36326C20.2405 6.99051 19.9314 6.68141 19.5587 6.68141Z" fill="#FF8301"/>
<path d="M8.64855 14.4091H5.92112C5.54837 14.4091 5.23926 14.1 5.23926 13.7273C5.23926 13.3545 5.54837 13.0454 5.92112 13.0454H8.64855C9.0213 13.0454 9.33041 13.3545 9.33041 13.7273C9.33041 14.1 9.0213 14.4091 8.64855 14.4091Z" fill="#FF8301"/>
<path d="M16.8312 14.4091H14.1037C13.731 14.4091 13.4219 14.1 13.4219 13.7273C13.4219 13.3545 13.731 13.0454 14.1037 13.0454H16.8312C17.2039 13.0454 17.513 13.3545 17.513 13.7273C17.513 14.1 17.2039 14.4091 16.8312 14.4091Z" fill="#FF8301"/>
</svg>
