<svg width="24" height="24" viewBox="0 0 24 24" fill="none" xmlns="http://www.w3.org/2000/svg">
<path opacity="0.4" d="M8.87999 4.59997C8.07999 1.13997 2.86999 1.12997 2.06999 4.59997C1.59999 6.62997 2.88999 8.34997 4.00999 9.41997C4.82999 10.19 6.11999 10.19 6.93999 9.41997C8.05999 8.34997 9.33999 6.62997 8.87999 4.59997ZM5.50999 6.19997C4.95999 6.19997 4.50999 5.74997 4.50999 5.19997C4.50999 4.64997 4.94999 4.19997 5.49999 4.19997H5.50999C6.06999 4.19997 6.50999 4.64997 6.50999 5.19997C6.50999 5.74997 6.06999 6.19997 5.50999 6.19997Z" fill="#1B09F9"/>
<path d="M6.51001 5.19995C6.51001 5.74995 6.07001 6.19995 5.51001 6.19995C4.96001 6.19995 4.51001 5.74995 4.51001 5.19995C4.51001 4.64995 4.95001 4.19995 5.50001 4.19995H5.51001C6.07001 4.19995 6.51001 4.64995 6.51001 5.19995Z" fill="#1B09F9"/>
<path opacity="0.4" d="M21.91 16.6C21.11 13.14 15.88 13.13 15.07 16.6C14.6 18.63 15.89 20.35 17.02 21.42C17.84 22.19 19.14 22.19 19.96 21.42C21.09 20.35 22.38 18.63 21.91 16.6ZM18.53 18.2C17.98 18.2 17.53 17.75 17.53 17.2C17.53 16.65 17.97 16.2 18.52 16.2H18.53C19.08 16.2 19.53 16.65 19.53 17.2C19.53 17.75 19.08 18.2 18.53 18.2Z" fill="#1B09F9"/>
<path d="M19.53 17.2C19.53 17.75 19.08 18.2 18.53 18.2C17.98 18.2 17.53 17.75 17.53 17.2C17.53 16.65 17.97 16.2 18.52 16.2H18.53C19.08 16.2 19.53 16.65 19.53 17.2Z" fill="#1B09F9"/>
<path d="M12 19.75H9.32C8.16 19.75 7.15 19.05 6.75 17.97C6.34 16.89 6.64 15.7 7.51 14.93L15.5 7.94C15.98 7.52 15.99 6.95 15.85 6.56C15.7 6.17 15.32 5.75 14.68 5.75H12C11.59 5.75 11.25 5.41 11.25 5C11.25 4.59 11.59 4.25 12 4.25H14.68C15.84 4.25 16.85 4.95 17.25 6.03C17.66 7.11 17.36 8.3 16.49 9.07L8.5 16.06C8.02 16.48 8.01 17.05 8.15 17.44C8.3 17.83 8.68 18.25 9.32 18.25H12C12.41 18.25 12.75 18.59 12.75 19C12.75 19.41 12.41 19.75 12 19.75Z" fill="#1B09F9"/>
</svg>
