<svg width="18" height="18" viewBox="0 0 25 25" fill="none" xmlns="http://www.w3.org/2000/svg">
<path d="M21.145 6.72278C17.815 6.39278 14.465 6.22278 11.125 6.22278C9.14502 6.22278 7.16502 6.32278 5.18502 6.52278L3.14502 6.72278" stroke="#C30000" stroke-width="1.5" stroke-linecap="round" stroke-linejoin="round"/>
<path d="M8.64502 5.7128L8.86502 4.4028C9.02502 3.4528 9.14502 2.7428 10.835 2.7428H13.455C15.145 2.7428 15.275 3.4928 15.425 4.4128L15.645 5.7128" stroke="#C30000" stroke-width="1.5" stroke-linecap="round" stroke-linejoin="round"/>
<path d="M18.9949 9.88281L18.3449 19.9528C18.2349 21.5228 18.1449 22.7428 15.3549 22.7428H8.93492C6.14492 22.7428 6.05492 21.5228 5.94492 19.9528L5.29492 9.88281" stroke="#C30000" stroke-width="1.5" stroke-linecap="round" stroke-linejoin="round"/>
<path d="M10.4751 17.2428H13.8051" stroke="#C30000" stroke-width="1.5" stroke-linecap="round" stroke-linejoin="round"/>
<path d="M9.64502 13.2428H14.645" stroke="#C30000" stroke-width="1.5" stroke-linecap="round" stroke-linejoin="round"/>
</svg>
