<svg width="28" height="28" viewBox="0 0 34 34" fill="none" xmlns="http://www.w3.org/2000/svg">
<path d="M5.65093 20.769L3.49762 18.6156C2.61928 17.7373 2.61928 16.2923 3.49762 15.4139L5.65093 13.2606C6.01927 12.8922 6.31677 12.1697 6.31677 11.6597V8.61386C6.31677 7.36719 7.33678 6.34723 8.58345 6.34723H11.6293C12.1393 6.34723 12.8618 6.04977 13.2301 5.68143L15.3834 3.52807C16.2618 2.64974 17.7068 2.64974 18.5851 3.52807L20.7385 5.68143C21.1068 6.04977 21.8293 6.34723 22.3393 6.34723H25.3851C26.6318 6.34723 27.6518 7.36719 27.6518 8.61386V11.6597C27.6518 12.1697 27.9493 12.8922 28.3176 13.2606L30.471 15.4139C31.3493 16.2923 31.3493 17.7373 30.471 18.6156L28.3176 20.769C27.9493 21.1373 27.6518 21.8598 27.6518 22.3698V25.4155C27.6518 26.6622 26.6318 27.6823 25.3851 27.6823H22.3393C21.8293 27.6823 21.1068 27.9798 20.7385 28.3481L18.5851 30.5015C17.7068 31.3798 16.2618 31.3798 15.3834 30.5015L13.2301 28.3481C12.8618 27.9798 12.1393 27.6823 11.6293 27.6823H8.58345C7.33678 27.6823 6.31677 26.6622 6.31677 25.4155V22.3698C6.31677 21.8456 6.01927 21.1231 5.65093 20.769Z" stroke="white" stroke-width="1.5" stroke-linecap="round" stroke-linejoin="round"/>
<path d="M12.75 21.25L21.25 12.75" stroke="white" stroke-width="1.5" stroke-linecap="round" stroke-linejoin="round"/>
<path d="M20.5339 20.5416H20.5466" stroke="white" stroke-width="2" stroke-linecap="round" stroke-linejoin="round"/>
<path d="M13.4506 13.4583H13.4633" stroke="white" stroke-width="2" stroke-linecap="round" stroke-linejoin="round"/>
</svg>
