<svg width="215" height="380" viewBox="0 0 315 440" fill="none" xmlns="http://www.w3.org/2000/svg">
<g opacity="0.1">
<path d="M73.1664 268.775L45.2999 240.908C33.9332 229.541 33.9332 210.841 45.2999 199.474L73.1664 171.607C77.933 166.84 81.7831 157.49 81.7831 150.89V111.473C81.7831 95.3398 94.9832 82.1403 111.116 82.1403H150.533C157.133 82.1403 166.483 78.2908 171.25 73.5242L199.116 45.6571C210.483 34.2905 229.183 34.2905 240.55 45.6571L268.417 73.5242C273.183 78.2908 282.533 82.1403 289.133 82.1403H328.55C344.683 82.1403 357.883 95.3398 357.883 111.473V150.89C357.883 157.49 361.733 166.84 366.5 171.607L394.367 199.474C405.733 210.841 405.733 229.541 394.367 240.908L366.5 268.775C361.733 273.541 357.883 282.891 357.883 289.491V328.906C357.883 345.04 344.683 358.241 328.55 358.241H289.133C282.533 358.241 273.183 362.091 268.417 366.857L240.55 394.725C229.183 406.091 210.483 406.091 199.116 394.725L171.25 366.857C166.483 362.091 157.133 358.241 150.533 358.241H111.116C94.9832 358.241 81.7831 345.04 81.7831 328.906V289.491C81.7831 282.708 77.933 273.358 73.1664 268.775Z" stroke="white" stroke-width="20" stroke-linecap="round" stroke-linejoin="round"/>
<path d="M165.037 275L275.037 165" stroke="white" stroke-width="20" stroke-linecap="round" stroke-linejoin="round"/>
<path d="M265.769 265.833H265.934" stroke="white" stroke-width="20" stroke-linecap="round" stroke-linejoin="round"/>
<path d="M174.103 174.167H174.267" stroke="white" stroke-width="20" stroke-linecap="round" stroke-linejoin="round"/>
</g>
</svg>
