<svg width="30" height="30" viewBox="0 0 30 31" fill="none" xmlns="http://www.w3.org/2000/svg">
<path d="M27.4625 23.6398C27.4625 24.0898 27.3625 24.5523 27.15 25.0023C26.9375 25.4523 26.6625 25.8773 26.3 26.2773C25.6875 26.9523 25.0125 27.4398 24.25 27.7523C23.5 28.0648 22.6875 28.2273 21.8125 28.2273C20.5375 28.2273 19.175 27.9273 17.7375 27.3148C16.3 26.7023 14.8625 25.8773 13.4375 24.8398C12 23.7898 10.6375 22.6273 9.3375 21.3398C8.05 20.0398 6.8875 18.6773 5.85 17.2523C4.825 15.8273 4 14.4023 3.4 12.9898C2.8 11.5648 2.5 10.2023 2.5 8.90229C2.5 8.05229 2.65 7.2398 2.95 6.4898C3.25 5.7273 3.725 5.02729 4.3875 4.40229C5.1875 3.61479 6.0625 3.22729 6.9875 3.22729C7.3375 3.22729 7.6875 3.3023 8 3.4523C8.325 3.6023 8.6125 3.82729 8.8375 4.15229L11.7375 8.2398C11.9625 8.5523 12.125 8.83979 12.2375 9.11479C12.35 9.37729 12.4125 9.6398 12.4125 9.8773C12.4125 10.1773 12.325 10.4773 12.15 10.7648C11.9875 11.0523 11.75 11.3523 11.45 11.6523L10.5 12.6398C10.3625 12.7773 10.3 12.9398 10.3 13.1398C10.3 13.2398 10.3125 13.3273 10.3375 13.4273C10.375 13.5273 10.4125 13.6023 10.4375 13.6773C10.6625 14.0898 11.05 14.6273 11.6 15.2773C12.1625 15.9273 12.7625 16.5898 13.4125 17.2523C14.0875 17.9148 14.7375 18.5273 15.4 19.0898C16.05 19.6398 16.5875 20.0148 17.0125 20.2398C17.075 20.2648 17.15 20.3023 17.2375 20.3398C17.3375 20.3773 17.4375 20.3898 17.55 20.3898C17.7625 20.3898 17.925 20.3148 18.0625 20.1773L19.0125 19.2398C19.325 18.9273 19.625 18.6898 19.9125 18.5398C20.2 18.3648 20.4875 18.2773 20.8 18.2773C21.0375 18.2773 21.2875 18.3273 21.5625 18.4398C21.8375 18.5523 22.125 18.7148 22.4375 18.9273L26.575 21.8648C26.9 22.0898 27.125 22.3523 27.2625 22.6648C27.3875 22.9773 27.4625 23.2898 27.4625 23.6398Z" stroke="#FF8301" stroke-width="1.5" stroke-miterlimit="10"/>
</svg>
