<svg width="389" height="366" viewBox="0 0 389 366" fill="none" xmlns="http://www.w3.org/2000/svg">
<path d="M257.168 67.4077C257.254 67.1434 257.785 64.5338 258.413 63.158C259.255 60.0039 262.194 55.9899 264.442 54.9396C267.229 53.6384 266.401 72.836 266.271 74.1971C265.602 81.2153 264.725 88.4756 264.725 95.5205C264.725 104.262 264.936 113.103 264.715 121.837C264.498 130.439 263.917 140.061 261.007 148.175C260.01 150.955 258.834 156.624 254.632 155.649C250.102 154.599 240.911 152.081 240.133 146.784C239.473 142.29 241.468 135.83 243.306 131.835C245.116 127.899 245.855 123.512 246.721 119.273C248.094 112.549 249.301 105.647 249.954 98.801C250.605 91.9762 252.126 84.8508 253.773 78.2043C254.68 74.5443 256.006 70.989 257.168 67.4077Z" fill="#F48462"/>
<path d="M240.172 144.352C240.011 146.326 239.6 155.631 240.232 158.142C240.852 160.656 243.211 167.747 245.294 167.439C247.376 167.13 246.865 164.998 246.865 164.998C246.865 164.998 248.362 167.83 250.434 167.34C252.511 166.844 251.594 163.559 251.594 163.559C251.594 163.559 253.359 166.356 255.397 165.725C257.436 165.094 255.926 161.947 255.926 161.947C255.926 161.947 257.414 164.581 258.874 163.393C260.639 161.968 257.312 157.422 256.844 154.592C256.738 153.947 255.661 141.406 255.661 141.406L240.461 141.593L240.172 144.352Z" fill="#F48462"/>
<path d="M256.14 162.267C253.709 158.916 253.268 157.037 253.136 152.984C253.138 152.905 253.009 152.891 253.004 152.976C252.752 156.97 252.945 159.416 255.974 162.392C256.122 162.54 256.255 162.424 256.14 162.267Z" fill="#263238"/>
<path d="M251.876 163.813C249.68 160.118 249.188 158.08 248.712 153.857C248.701 153.798 248.601 153.799 248.596 153.867C248.69 158.059 248.945 160.492 251.652 163.899C251.778 164.053 251.972 163.987 251.865 163.816L251.876 163.813Z" fill="#263238"/>
<path d="M246.92 164.715C245.076 160.986 244.423 158.778 244.525 154.613C244.528 154.518 244.378 154.51 244.364 154.609C243.826 158.863 244.611 161.624 246.791 164.762C246.935 164.978 247.034 164.95 246.92 164.715Z" fill="#263238"/>
<path d="M177.199 203.242H21.8259C20.4642 203.242 19.3818 202.157 19.3818 200.793C19.3818 199.428 20.4642 198.344 21.8259 198.344H177.199C178.561 198.344 179.643 199.428 179.643 200.793C179.643 202.157 178.561 203.242 177.199 203.242Z" fill="#909090"/>
<path d="M169.797 223.919H29.0534C27.6918 223.919 26.6094 222.834 26.6094 221.47C26.6094 220.105 27.6918 219.021 29.0534 219.021H169.797C171.159 219.021 172.241 220.105 172.241 221.47C172.241 222.834 171.159 223.919 169.797 223.919Z" fill="#909090"/>
<path d="M162.43 244.631H36.281C34.9193 244.631 33.8369 243.547 33.8369 242.182C33.8369 240.818 34.9193 239.733 36.281 239.733H162.43C163.792 239.733 164.874 240.818 164.874 242.182C164.874 243.547 163.792 244.631 162.43 244.631Z" fill="#909090"/>
<path d="M65.8197 265.343C64.7024 265.343 63.6549 264.538 63.4454 263.384L46.1972 180.605C45.9179 179.276 46.7559 177.981 48.0827 177.701C49.3745 177.456 50.7013 178.261 50.9806 179.591L68.2288 262.369C68.5081 263.699 67.6702 264.993 66.3434 265.273C66.1688 265.273 65.9942 265.308 65.8546 265.308L65.8197 265.343Z" fill="#909090"/>
<path d="M88.1308 265.343C86.8389 265.343 85.7914 264.364 85.6867 263.069L80.1352 180.29C80.0304 178.926 81.0779 177.771 82.4047 177.666C83.7314 177.562 84.9186 178.611 85.0233 179.941L90.5748 262.719C90.6796 264.084 89.6321 265.238 88.3053 265.343C88.2355 265.343 88.2006 265.343 88.1308 265.343Z" fill="#909090"/>
<path d="M110.441 265.343C110.441 265.343 110.302 265.343 110.267 265.343C108.905 265.238 107.927 264.084 107.997 262.719L114.142 179.941C114.247 178.576 115.434 177.597 116.761 177.666C118.123 177.771 119.1 178.926 119.03 180.29L112.885 263.069C112.781 264.364 111.733 265.343 110.441 265.343Z" fill="#909090"/>
<path d="M132.752 265.343C132.752 265.343 132.403 265.343 132.229 265.273C130.902 264.993 130.064 263.699 130.343 262.369L148.185 179.591C148.464 178.261 149.756 177.422 151.083 177.701C152.41 177.981 153.248 179.276 152.968 180.605L135.127 263.384C134.882 264.539 133.87 265.308 132.752 265.308V265.343Z" fill="#909090"/>
<path d="M172.381 296.796H59.0461C49.1301 296.796 41.0996 288.714 41.0996 278.778V278.428C41.0996 268.492 49.1651 260.445 59.0461 260.445H139.561C147.033 260.445 155.482 254.462 157.996 247.43L193.016 149.222C196.229 140.231 206.563 132.953 216.06 132.953H241.025C242.387 132.953 243.469 134.038 243.469 135.403C243.469 136.767 242.387 137.852 241.025 137.852H216.06C208.589 137.852 200.139 143.834 197.625 150.867L162.605 249.074C159.393 258.066 149.058 265.343 139.561 265.343H59.0461C51.8535 265.343 45.9878 271.221 45.9878 278.428V278.778C45.9878 286.02 51.8535 291.898 59.0461 291.898H172.381C173.743 291.898 174.825 292.983 174.825 294.347C174.825 295.712 173.743 296.796 172.381 296.796Z" fill="#D3D3D3"/>
<path d="M142.249 265.343H59.0461C49.5142 265.343 39.2142 258.031 36.0718 249.004L17.427 195.58C15.786 190.891 16.2399 186.448 18.684 182.985C21.1281 179.521 25.1782 177.632 30.1362 177.632H184.602C185.963 177.632 187.046 178.716 187.046 180.081C187.046 181.445 185.963 182.53 184.602 182.53H30.1362C26.8193 182.53 24.1657 183.684 22.6643 185.818C21.163 187.918 20.9535 190.822 22.0359 193.97L40.6807 247.395C43.1596 254.462 51.5393 260.445 59.0112 260.445H142.215C143.576 260.445 144.659 261.53 144.659 262.894C144.659 264.259 143.576 265.343 142.215 265.343H142.249Z" fill="#D3D3D3"/>
<path d="M247.449 134.843C247.449 138.062 243.539 140.686 238.685 140.686H218.818C213.965 140.686 210.055 138.062 210.055 134.843C210.055 131.624 213.965 129 218.818 129H238.685C243.539 129 247.449 131.624 247.449 134.843Z" fill="#707070"/>
<path d="M194.315 365.99C301.632 365.99 388.63 355.127 388.63 341.728C388.63 328.328 301.632 317.466 194.315 317.466C86.9977 317.466 0 328.328 0 341.728C0 355.127 86.9977 365.99 194.315 365.99Z" fill="#D7F0F9"/>
<path d="M214.539 349.709C216.848 350.408 282.545 349.609 285.024 348.081C285.977 347.511 286.411 338.482 286.602 327.554C286.602 327.444 286.602 327.324 286.602 327.214C286.644 324.967 286.676 322.64 286.687 320.292C286.687 319.973 286.687 319.643 286.697 319.323L243.902 319.433L243.955 320.692L244.22 327.284L244.241 327.964C244.241 327.964 219.242 338.881 216.7 340.829C214.179 342.777 212.24 349.019 214.539 349.719V349.709Z" fill="#EBEBEB"/>
<path d="M214.539 349.709C215.969 350.148 241.413 349.998 261.338 349.469C273.785 349.149 284.06 348.66 285.013 348.081C285.956 347.521 286.39 338.741 286.581 328.014C286.581 327.864 286.581 327.714 286.581 327.554C286.581 327.444 286.581 327.314 286.581 327.204L244.188 327.284L244.209 327.964C244.209 327.964 219.2 338.871 216.668 340.819C214.147 342.767 212.208 349.019 214.507 349.709H214.539Z" fill="#F7B369"/>
<path d="M215.249 347.301C226.318 346.912 271.009 346.313 281.983 346.722C282.068 346.722 282.068 346.782 281.983 346.792C271.02 347.411 226.318 347.661 215.249 347.481C215.015 347.481 215.015 347.321 215.249 347.311V347.301Z" fill="#263238"/>
<path d="M239.496 327.454C243.839 326.635 249.178 327.204 252.557 330.091C252.684 330.201 252.514 330.381 252.377 330.341C248.055 329.112 244.029 328.343 239.528 327.984C239.21 327.954 239.189 327.524 239.506 327.464L239.496 327.454Z" fill="#263238"/>
<path d="M236.381 329.272C240.724 328.453 246.063 329.022 249.442 331.909C249.569 332.019 249.4 332.199 249.262 332.159C244.94 330.93 240.915 330.161 236.413 329.801C236.095 329.772 236.074 329.342 236.392 329.282L236.381 329.272Z" fill="#263238"/>
<path d="M233.256 331.1C237.6 330.281 242.938 330.85 246.317 333.737C246.445 333.847 246.275 334.027 246.137 333.977C241.815 332.748 237.79 331.979 233.288 331.619C232.97 331.589 232.949 331.16 233.267 331.1H233.256Z" fill="#263238"/>
<path d="M235.746 324.388C238.86 326.615 242.885 327.484 246.498 328.693C246.868 328.823 247.165 328.483 247.175 328.173C247.25 328.163 247.303 328.103 247.271 328.023C246.042 324.607 243.404 320.992 240.428 318.694C238.585 317.276 235.386 316.317 233.701 318.554C232.112 320.682 233.913 323.089 235.735 324.388H235.746ZM234.591 321.091C233.765 316.597 238.924 318.894 240.237 319.993C241.085 320.702 241.847 321.511 242.578 322.32C244.114 324.008 245.364 325.866 246.699 327.684C244.962 326.985 243.171 326.435 241.413 325.796C239.316 325.037 235.047 323.569 234.591 321.091Z" fill="#263238"/>
<path d="M261.73 321.581C260.639 319.034 257.291 319.273 255.152 320.252C251.688 321.841 248.256 324.787 246.222 327.854C246.169 327.934 246.222 327.994 246.285 328.023C246.222 328.333 246.423 328.723 246.815 328.683C250.628 328.283 254.76 328.313 258.329 326.825C260.416 325.956 262.757 324.008 261.73 321.591V321.581ZM252.461 326.955C250.586 327.194 248.722 327.344 246.857 327.644C248.605 326.166 250.279 324.627 252.175 323.319C253.086 322.69 254.029 322.07 255.025 321.561C256.571 320.782 262.153 319.653 260.257 323.858C259.209 326.176 254.696 326.675 252.472 326.955H252.461Z" fill="#263238"/>
<path d="M220.746 339.061C223.373 338.921 225.969 340.07 227.42 341.528C228.818 342.926 230.026 344.904 229.983 347.082C229.983 347.142 229.856 347.152 229.846 347.082C229.146 342.996 225.142 339.46 220.746 339.201C220.662 339.201 220.651 339.071 220.746 339.071V339.061Z" fill="#263238"/>
<path d="M279.145 337.233C284.123 337.183 284.229 344.475 279.229 344.535C274.251 344.585 274.145 337.293 279.145 337.233Z" fill="#263238"/>
<path d="M261.349 349.469C273.795 349.149 284.07 348.66 285.024 348.081C285.966 347.521 286.401 338.741 286.591 328.014C281.486 332.309 268.817 342.966 261.349 349.479V349.469Z" fill="#263238"/>
<path d="M300.012 108.725C300.012 108.725 290.15 213.405 288.54 221.396C288.169 223.214 287.936 233.112 287.788 245.828C287.449 273.576 287.65 323.629 287.65 323.629H241.338C241.338 323.629 242.715 236.918 244.76 220.956C246.815 204.984 259.918 108.735 259.918 108.735H300.012V108.725Z" fill="#68B6D8"/>
<path d="M243.426 316.017C250.65 315.877 248.574 315.817 255.798 315.758C259.336 315.728 282.577 315.538 285.882 316.047C285.956 316.057 285.956 316.177 285.882 316.187C282.577 316.706 259.336 316.517 255.798 316.477C248.574 316.407 250.65 316.357 243.426 316.217C243.288 316.217 243.288 316.017 243.426 316.017Z" fill="#263238"/>
<path d="M278.848 266.444C278.901 260.111 278.954 253.779 278.996 247.446C279.039 241.313 279.039 235.17 279.346 229.037C279.971 216.631 282.64 204.425 284.537 192.159C286.433 179.883 288.022 167.567 289.452 155.231C291.062 141.397 292.481 127.543 293.985 113.699C293.985 113.609 294.155 113.609 294.144 113.699C291.962 138.421 289.526 163.132 285.903 187.704C285.003 193.817 284.007 199.92 282.948 206.003C281.867 212.166 280.797 218.329 280.278 224.562C279.77 230.665 279.696 236.788 279.621 242.901C279.558 249.234 279.484 255.557 279.42 261.889C279.272 275.953 279.134 297.588 278.986 311.652C278.986 311.922 278.541 311.912 278.541 311.642C278.647 299.097 278.742 278.98 278.848 266.434V266.444Z" fill="#263238"/>
<path d="M309.768 108.725C309.768 108.725 290.14 213.405 288.53 221.396C288.159 223.214 287.926 233.112 287.778 245.828V245.868L265.702 108.725H309.768Z" fill="#263238"/>
<path d="M268.318 353.404C270.67 353.954 336.144 348.76 338.496 347.072C339.407 346.442 339.163 337.403 338.528 326.485C338.528 326.375 338.517 326.256 338.506 326.146C338.379 323.898 338.242 321.581 338.061 319.234C338.04 318.914 338.019 318.584 337.998 318.265C336.907 302.523 335.413 286.221 335.413 286.221L291.601 289.568L295.309 321.231L295.457 322.49L296.22 329.042L296.294 329.722C296.294 329.722 272.174 342.277 269.791 344.395C267.428 346.502 265.956 352.865 268.308 353.404H268.318Z" fill="#F48462"/>
<path d="M268.318 353.404C270.67 353.954 336.144 348.76 338.496 347.072C339.407 346.442 339.163 337.403 338.528 326.485C338.528 326.375 338.517 326.255 338.506 326.146C338.379 323.898 338.242 321.581 338.062 319.234C338.04 318.914 338.019 318.584 337.998 318.265L295.32 321.241L295.468 322.5L296.23 329.052L296.305 329.732C296.305 329.732 272.185 342.287 269.801 344.405C267.439 346.512 265.967 352.875 268.318 353.414V353.404Z" fill="#EBEBEB"/>
<path d="M268.318 353.404C270.67 353.954 336.144 348.76 338.496 347.072C339.407 346.442 339.163 337.403 338.528 326.485C338.528 326.375 338.517 326.255 338.506 326.146L296.23 329.052L296.305 329.732C296.305 329.732 272.185 342.287 269.801 344.405C267.439 346.512 265.967 352.875 268.318 353.414V353.404Z" fill="#F7B369"/>
<path d="M268.848 350.947C279.865 349.818 324.397 346.243 335.371 345.913C335.456 345.913 335.466 345.963 335.371 345.983C324.482 347.331 279.918 350.568 268.848 351.127C268.615 351.137 268.604 350.977 268.838 350.957L268.848 350.947Z" fill="#263238"/>
<path d="M291.538 329.532C295.818 328.423 301.178 328.633 304.758 331.29C304.896 331.39 304.737 331.579 304.599 331.549C300.203 330.61 296.125 330.111 291.602 330.051C291.284 330.051 291.231 329.612 291.538 329.532Z" fill="#263238"/>
<path d="M288.562 331.559C292.841 330.451 298.201 330.66 301.781 333.317C301.919 333.417 301.76 333.607 301.623 333.577C297.227 332.648 293.148 332.139 288.625 332.079C288.307 332.079 288.254 331.639 288.562 331.559Z" fill="#263238"/>
<path d="M285.585 333.587C289.864 332.478 295.224 332.688 298.805 335.345C298.943 335.445 298.784 335.635 298.646 335.605C294.25 334.676 290.172 334.166 285.649 334.106C285.331 334.106 285.278 333.667 285.585 333.587Z" fill="#263238"/>
<path d="M287.566 326.725C290.839 328.733 294.917 329.332 298.614 330.301C298.995 330.401 299.26 330.051 299.25 329.732C299.324 329.712 299.377 329.662 299.334 329.572C297.851 326.246 294.949 322.819 291.813 320.722C289.875 319.433 286.602 318.684 285.098 321.031C283.668 323.259 285.648 325.536 287.566 326.705V326.725ZM286.167 323.519C285.002 319.084 290.331 321.041 291.718 322.05C292.608 322.7 293.434 323.459 294.229 324.208C295.881 325.786 297.269 327.564 298.741 329.282C296.951 328.703 295.129 328.273 293.328 327.754C291.178 327.134 286.814 325.956 286.167 323.519Z" fill="#263238"/>
<path d="M313.285 322.19C312.004 319.723 308.688 320.182 306.622 321.301C303.296 323.119 300.087 326.285 298.286 329.472C298.244 329.552 298.286 329.612 298.36 329.632C298.318 329.941 298.551 330.321 298.943 330.251C302.714 329.602 306.834 329.352 310.288 327.624C312.3 326.615 314.493 324.517 313.285 322.18V322.19ZM304.451 328.173C302.597 328.533 300.743 328.813 298.911 329.232C300.542 327.644 302.089 325.996 303.889 324.557C304.748 323.868 305.648 323.189 306.601 322.62C308.084 321.731 313.571 320.242 311.993 324.557C311.124 326.935 306.654 327.734 304.451 328.173Z" fill="#263238"/>
<path d="M272.672 342.687C275.278 342.337 277.968 343.266 279.547 344.594C281.072 345.873 282.46 347.751 282.608 349.918C282.608 349.978 282.492 349.998 282.47 349.928C281.4 345.913 277.089 342.717 272.672 342.817C272.587 342.817 272.566 342.697 272.661 342.687H272.672Z" fill="#263238"/>
<path d="M294.345 325.976L340.615 324.128C340.615 324.128 327.988 228.388 327.755 222.504C327.151 207.242 316.389 108.685 316.389 108.685H259.876C259.876 108.685 263.435 131.439 269.537 145.862C269.537 145.862 274.187 147.221 281.358 150.946C281.358 150.946 286.655 216.122 286.845 224.252C287.237 240.324 294.345 325.976 294.345 325.976Z" fill="#68B6D8"/>
<path d="M295.574 317.985C302.787 317.555 300.711 317.585 307.925 317.226C311.452 317.056 334.672 315.937 337.998 316.317C338.072 316.317 338.072 316.437 337.998 316.457C334.714 317.106 311.495 317.845 307.957 317.955C300.732 318.175 302.809 318.045 295.574 318.185C295.436 318.185 295.425 317.995 295.574 317.985Z" fill="#263238"/>
<path d="M312.237 114.528C314.334 139.35 316.484 164.171 318.899 188.973C321.315 213.854 324.143 238.706 327.586 263.487C329.513 277.332 331.643 296.829 333.92 310.623C333.931 310.713 333.782 310.753 333.772 310.663C329.111 286.151 325.689 255.746 322.766 231.005C319.842 206.263 317.469 181.461 315.34 156.65C314.133 142.616 313.052 128.572 311.908 114.538C311.887 114.338 312.226 114.338 312.237 114.538V114.528Z" fill="#263238"/>
<path d="M267.524 144.873C272.312 146.432 276.941 148.639 281.358 150.946C281.528 151.036 281.422 151.296 281.231 151.216C276.571 149.328 271.814 147.52 267.27 145.393C266.91 145.223 267.153 144.753 267.524 144.863V144.873Z" fill="#263238"/>
<path d="M266.041 114.708C266.052 114.558 266.338 114.518 266.338 114.688C266.295 119.902 266.656 124.497 267.122 129.381C267.333 131.648 269.272 144.164 273.435 143.245C274.134 143.095 274.484 142.446 274.6 141.457C274.727 140.269 274.261 138.8 274.049 137.622C273.583 135.005 273.212 132.378 272.979 129.731C272.535 124.786 272.513 119.852 273.149 114.928C273.17 114.768 273.414 114.778 273.414 114.938C273.414 121.78 273.594 128.602 274.685 135.374C275.204 138.63 276.941 143.525 273.34 144.034C269.664 144.544 267.28 136.333 266.836 134.096C265.586 127.833 265.533 121.071 266.062 114.728L266.041 114.708Z" fill="#263238"/>
<path d="M273.319 143.575C273.7 144.414 273.996 145.293 274.251 146.172C274.452 146.851 274.727 147.59 274.643 148.299C274.632 148.439 274.431 148.449 274.357 148.359C273.869 147.78 273.657 146.981 273.393 146.282C273.075 145.483 272.736 144.684 272.45 143.874C272.259 143.335 273.096 143.055 273.329 143.575H273.319Z" fill="#263238"/>
<path d="M249.435 68.5653L271.136 77.599C271.136 77.599 276.973 63.8031 277.363 52.2071C277.754 40.6112 268.719 44.7478 263.439 50.9924C258.158 57.2369 249.435 68.5653 249.435 68.5653Z" fill="#F7B369"/>
<path d="M271.811 73.6019C262.534 70.3578 254.986 66.249 253.314 65.5315C253.234 65.493 253.305 65.3767 253.375 65.4183C254.97 66.2015 264.464 69.9149 271.879 73.4761C271.959 73.5146 271.898 73.6279 271.811 73.6019Z" fill="#263238"/>
<path d="M277.362 52.2071C276.972 63.803 271.135 77.599 271.135 77.599L261.142 73.4395C263.969 65.173 268.538 51.8378 270.86 45.3426C274.513 43.9846 277.604 45.3292 277.362 52.2071Z" fill="#263238"/>
<path d="M253.817 122.819C254.897 123.837 320.033 123.228 320.35 122.819C321.229 121.71 311.24 82.1053 303.751 67.0825C294.144 47.8145 289.07 46.2164 286.04 45.1476C282.163 43.7792 272.026 44.3385 270.373 45.0577C268.498 45.8568 263.71 54.8565 261.475 61.9983C256.984 76.3518 252.863 121.94 253.806 122.829L253.817 122.819Z" fill="#F7B369"/>
<path d="M295.764 62.9971C295.436 81.9254 294.589 104.28 289.038 110.593C280.627 120.162 259.611 129.97 250.999 131.768C247.419 132.517 237.366 106.997 241.201 106.238C249.389 104.619 268.096 97.3078 269.801 95.7196C271.422 94.2014 277.937 75.8824 283.095 61.6087C289.303 44.4384 295.945 52.0497 295.754 62.9971H295.764Z" fill="#F48462"/>
<path d="M245.586 105.159C245.586 105.159 234.771 107.756 227.78 109.774C223.882 110.892 217.378 113.389 214.909 115.447C211.223 118.533 197.897 133.636 201.711 136.763C205.164 139.589 214.867 125.236 214.867 125.236C214.867 125.236 203.723 138.9 208.543 141.587C213.363 144.274 222.038 126.684 222.038 126.684C222.038 126.684 210.916 140.968 216.361 142.995C220.471 144.524 229.284 129.011 229.284 129.011C229.284 129.011 219.814 141.347 223.966 143.095C228.553 145.023 237.642 131.189 237.642 131.189C248.997 133.956 255.597 130.889 260.024 128.182C261.094 127.523 245.576 105.149 245.576 105.149L245.586 105.159Z" fill="#F48462"/>
<path d="M218.416 120.281C217.049 121.84 215.651 123.418 214.422 125.086C213.204 126.754 212.05 128.472 211.001 130.24C208.427 134.585 207.537 137.682 207.611 137.492C209.433 133.097 213.702 127.054 214.92 125.386C216.138 123.718 217.261 121.989 218.479 120.321C218.511 120.281 218.448 120.241 218.405 120.281H218.416Z" fill="#263238"/>
<path d="M224.888 124.327C222.536 126.085 217.611 132.627 215.704 137.002C215.619 137.182 215.725 137.172 215.842 137.002C217.335 134.835 223.341 126.444 224.941 124.357C224.962 124.327 224.92 124.297 224.888 124.327Z" fill="#263238"/>
<path d="M231.106 126.854C228.383 129.391 226.106 132.857 224.305 136.862C224.22 137.042 224.379 137.012 224.485 136.842C226.678 133.476 228.373 130.819 231.212 126.934C231.254 126.874 231.159 126.784 231.095 126.844L231.106 126.854Z" fill="#263238"/>
<path d="M273.996 79.3883L297.459 82.6945C297.459 82.6945 299.228 67.9315 296.358 56.6544C293.487 45.3673 285.934 51.6102 282.587 58.9517C279.24 66.2933 274.007 79.3883 274.007 79.3883H273.996Z" fill="#F7B369"/>
<path d="M296.739 78.3295C286.867 77.7002 278.392 75.7724 276.581 75.5327C276.496 75.5227 276.528 75.3929 276.613 75.4129C278.382 75.7325 288.593 76.7613 296.782 78.1897C296.877 78.2096 296.845 78.3295 296.75 78.3295H296.739Z" fill="#263238"/>
<path d="M277.354 71.807C278.382 69.2999 279.95 65.734 280.829 63.1869C280.839 63.1569 280.786 63.137 280.765 63.1669C280.077 64.4954 279.452 65.8538 278.848 67.2323C278.869 67.1524 278.89 67.0724 278.901 66.9826C279.049 66.2134 279.176 65.4443 279.261 64.6652C279.261 64.6352 279.219 64.6352 279.208 64.6652C278.964 65.4243 278.763 66.1935 278.594 66.9626C278.488 67.442 278.414 67.9315 278.329 68.4209C278.022 69.1501 277.217 70.928 276.909 71.6472C276.401 72.8658 273.509 79.5182 273.647 79.5482C273.848 79.5881 276.051 79.7979 276.475 79.8678C276.592 79.8878 276.613 79.708 276.496 79.718C276.073 79.718 274.282 79.4083 274.102 79.3883C274.59 78.1098 275.215 76.8512 275.755 75.5927C276.295 74.3441 276.835 73.0856 277.354 71.817V71.807Z" fill="#263238"/>
<path d="M298.911 68.0413C298.72 68.7106 298.572 69.3798 298.455 70.059C298.413 70.2887 298.392 70.5185 298.36 70.7482C298.296 69.0901 298.148 67.442 297.915 65.8039C297.915 65.7639 297.841 65.7639 297.852 65.8039C298.042 68.5807 297.979 71.3575 297.894 74.1443C297.852 75.4928 297.788 76.8412 297.703 78.1997C297.661 78.8989 297.618 79.5881 297.576 80.2873C297.534 81.0664 297.438 82.6346 297.438 82.6346C297.046 82.5647 295.68 82.4049 295.193 82.3649C295.087 82.3649 295.087 82.4548 295.193 82.4648C295.606 82.5247 297.682 82.9043 297.693 82.8643C297.724 82.1352 297.894 81.2762 297.979 80.557C298.053 79.8977 298.106 79.2285 298.148 78.5693C298.254 77.1409 298.339 75.7025 298.392 74.2742C298.424 73.4851 298.424 72.706 298.413 71.9169C298.529 71.3176 298.699 70.7282 298.805 70.1189C298.921 69.4397 299.027 68.7605 299.112 68.0813C299.123 67.9814 298.953 67.9714 298.932 68.0613L298.911 68.0413Z" fill="#263238"/>
<path d="M272.206 54.8664C275.829 55.8853 282.46 50.9409 285.214 46.7957C285.405 46.506 285.119 43.3796 284.96 39.5739C284.875 37.2566 284.843 34.6795 284.981 32.3222C285.013 31.8428 269.092 35.0491 269.092 35.0491C269.092 35.0491 270.321 40.0734 270.045 44.1787C270.013 44.5183 269.96 44.8379 269.876 45.1376C269.876 45.1775 269.855 45.2375 269.844 45.2974C269.41 47.1153 268.7 53.8776 272.206 54.8764V54.8664Z" fill="#F48462"/>
<path d="M284.017 32.3323C283.043 36.2778 279.812 45.7469 271.443 45.4672C270.861 45.4473 270.331 45.3873 269.844 45.2974C269.844 45.2275 269.865 45.1875 269.876 45.1376C269.96 44.8379 270.013 44.5183 270.045 44.1787C270.331 40.0634 269.092 35.0392 269.092 35.0392C269.092 35.0392 280.574 32.7318 284.017 32.3323Z" fill="#263238"/>
<path d="M285.903 13.4039C288.032 18.5081 286.369 33.8405 282.714 37.5063C277.407 42.8202 268.075 43.9889 263.128 37.8259C258.329 31.8628 260.872 11.9156 265.024 8.51949C271.136 3.52522 282.757 5.86254 285.903 13.3939V13.4039Z" fill="#F48462"/>
<path d="M263.043 14.5027C268.424 17.9887 275.797 12.7347 275.797 12.7347C277.524 16.7101 281.74 16.2307 281.74 16.2307C281.74 16.2307 282.788 24.8308 285.193 24.8109C288.858 24.7909 290.002 13.0743 288.847 10.7669C287.693 8.45958 284.589 7.87026 284.589 7.87026C284.589 7.87026 284.367 6.08231 282.1 4.45417C279.6 2.64624 270.967 5.07346 270.967 5.07346C270.967 5.07346 270.374 3.5552 268.763 2.25669C267.736 1.43763 266.369 1.59744 265.501 2.53637C265.925 3.10572 266.232 3.81491 266.38 4.65394C266.814 7.17106 264.632 7.17106 264.653 4.88368C264.653 3.86485 265.003 3.07575 265.501 2.53637C264.431 1.04807 262.673 0.558633 261.603 1.35772C259.664 2.80606 258.573 11.616 263.043 14.5126V14.5027Z" fill="#263238"/>
<path d="M283.519 25.9795C283.519 25.9795 286.845 20.8854 289.271 21.9741C291.707 23.0629 289.419 30.3046 286.718 31.4333C284.017 32.562 282.862 30.2147 282.862 30.2147L283.519 25.9795Z" fill="#F48462"/>
<path d="M288.561 24.0318C288.561 24.0318 288.614 24.0817 288.583 24.1017C286.687 24.9507 285.776 26.6987 285.172 28.4967C285.701 27.7875 286.464 27.378 287.47 27.9673C287.523 27.9973 287.47 28.0772 287.428 28.0672C286.623 27.9473 286.062 28.1171 285.564 28.7464C285.214 29.1959 284.981 29.7452 284.748 30.2447C284.663 30.4145 284.346 30.3446 284.398 30.1548C284.398 30.1448 284.399 30.1248 284.409 30.1148C284.218 27.7875 285.934 24.4214 288.572 24.0318H288.561Z" fill="#263238"/>
<path d="M266.51 34.8116C266.435 34.806 266.557 34.6631 266.571 34.6479C266.93 34.2494 267.457 33.8716 268.05 33.5927C269.003 33.1434 270.083 32.9327 271.287 32.9038C273.516 32.8504 275.038 33.7664 276.019 34.8993" stroke="#263238" stroke-linecap="round"/>
<path d="M60.209 336.008C52.8928 336.008 46.9502 330.053 46.9502 322.722C46.9502 315.391 52.8928 309.436 60.209 309.436C67.5253 309.436 73.4679 315.391 73.4679 322.722C73.4679 330.053 67.5253 336.008 60.209 336.008Z" fill="#D3D3D3"/>
<path d="M60.2089 312.428C65.8827 312.428 70.4815 317.066 70.4815 322.722C70.4815 328.377 65.8827 333.015 60.2089 333.015C54.5351 333.015 49.9363 328.407 49.9363 322.722C49.9363 317.036 54.5351 312.428 60.2089 312.428ZM60.2089 306.443C51.2204 306.443 43.9639 313.745 43.9639 322.722C43.9639 331.699 51.2502 339 60.2089 339C69.1676 339 76.454 331.699 76.454 322.722C76.454 313.745 69.1974 306.443 60.2089 306.443Z" fill="#707070"/>
<path d="M158.7 336.008C151.384 336.008 145.441 330.053 145.441 322.722C145.441 315.391 151.384 309.436 158.7 309.436C166.016 309.436 171.959 315.391 171.959 322.722C171.959 330.053 166.016 336.008 158.7 336.008Z" fill="#D3D3D3"/>
<path d="M158.699 312.428C164.373 312.428 168.972 317.066 168.972 322.722C168.972 328.377 164.373 333.015 158.699 333.015C153.025 333.015 148.427 328.407 148.427 322.722C148.427 317.036 153.025 312.428 158.699 312.428ZM158.699 306.443C149.711 306.443 142.454 313.745 142.454 322.722C142.454 331.699 149.74 339 158.699 339C167.658 339 174.944 331.699 174.944 322.722C174.944 313.745 167.658 306.443 158.699 306.443Z" fill="#707070"/>
</svg>
