<svg width="25" height="23" viewBox="0 0 25 24" fill="none" xmlns="http://www.w3.org/2000/svg">
<path d="M9.5 22.0003H15.5C20.5 22.0003 22.5 20.0003 22.5 15.0003V9.00034C22.5 4.00034 20.5 2.00034 15.5 2.00034H9.5C4.5 2.00034 2.5 4.00034 2.5 9.00034V15.0003C2.5 20.0003 4.5 22.0003 9.5 22.0003Z" stroke="#707070" stroke-width="1.5" stroke-linecap="round" stroke-linejoin="round"/>
<path d="M12.5 15.5003C14.433 15.5003 16 13.9333 16 12.0003C16 10.0673 14.433 8.50034 12.5 8.50034C10.567 8.50034 9 10.0673 9 12.0003C9 13.9333 10.567 15.5003 12.5 15.5003Z" stroke="#707070" stroke-width="1.5" stroke-linecap="round" stroke-linejoin="round"/>
<path d="M18.1361 7.00034H18.1477" stroke="#707070" stroke-width="2" stroke-linecap="round" stroke-linejoin="round"/>
</svg>
