<svg width="141" height="44" viewBox="0 0 141 44" fill="none" xmlns="http://www.w3.org/2000/svg">
<path d="M10.8759 9.90629H21.8935V11.0002C21.8935 17.8372 17.5494 22.0002 11.3166 22.0002C5.17826 22.0002 0 17.1687 0 11.0002C0 4.83171 4.87921 0.000213623 11.3166 0.000213623C16.0384 0.000213623 20.3195 2.23364 21.6889 8.11347H14.5747C14.1182 6.53336 13.0322 5.57618 11.1592 5.57618C8.89275 5.57618 6.73645 7.71845 6.73645 11.0002C6.73645 14.1756 8.65666 16.4242 11.474 16.4242C13.347 16.4242 14.5432 15.4975 15.1728 14.0997H10.8759V9.90629Z" fill="#1B09F9"/>
<path d="M25.0782 21.6356V0.364853H39.7473V5.77369H31.8147V8.29579H38.9919V13.5831H31.8147V16.2267H40.0307V21.6356H25.0782Z" fill="#1B09F9"/>
<path d="M43.3999 21.6356V0.364853H50.7659L55.6766 12.7019V0.364853H61.7835V21.6356H54.4174L49.5067 9.29856V21.6356H43.3999Z" fill="#1B09F9"/>
<path d="M65.9945 21.6356V0.364853H80.6636V5.77369H72.7309V8.29579H79.9081V13.5831H72.7309V16.2267H80.9469V21.6356H65.9945Z" fill="#1B09F9"/>
<path d="M91.3673 14.5251H90.9266V21.6356H84.3161V0.364853H93.1931C97.6631 0.364853 101.126 3.25159 101.126 7.44497C101.126 10.0734 99.7564 12.2005 97.6474 13.416L101.85 21.6356H94.6097L91.3673 14.5251ZM90.9266 10.0278H92.2802C93.6023 10.0278 94.5782 9.05546 94.5782 7.65767C94.5782 6.25988 93.6023 5.28751 92.2802 5.28751H90.9266V10.0278Z" fill="#1B09F9"/>
<path d="M109.863 0.364853H117.166L124.343 21.6356H117.481L116.458 17.898H110.555L109.548 21.6356H102.686L109.863 0.364853ZM113.514 7.01955L111.862 13.0969H115.167L113.514 7.01955Z" fill="#1B09F9"/>
<path d="M126.677 21.6356V0.364853H133.414V16.0444H141V21.6356H126.677Z" fill="#1B09F9"/>
<path d="M2.55986 34.166V43.8345H0V34.166H2.55986Z" fill="#FF8301"/>
<path d="M11.3358 43.8345V34.166H14.1349L16.001 39.7737V34.166H18.3216V43.8345H15.5225L13.6565 38.2267V43.8345H11.3358Z" fill="#FF8301"/>
<path d="M26.8179 41.9353L27.8047 40.6024C28.5284 41.293 29.1684 41.5969 29.9101 41.5969C30.4005 41.5969 30.6756 41.3345 30.6756 41.003C30.6756 40.637 30.4603 40.3814 29.3718 40.1052C27.9603 39.7461 26.8956 38.6687 26.8956 37.1079C26.8956 35.34 28.0918 34.0002 29.922 34.0002C31.6864 34.0002 33.056 35.2295 33.056 37.1425H30.6577C30.6577 36.6798 30.4364 36.3483 30.0416 36.3483C29.6588 36.3483 29.4555 36.5831 29.4555 36.8593C29.4555 37.1632 29.623 37.5361 30.568 37.7847C32.1828 38.2129 33.2355 39.1798 33.2355 40.782C33.2355 42.5638 31.9974 44.0002 30.1014 44.0002C28.8694 44.0002 27.7569 43.3649 26.8179 41.9353Z" fill="#FF8301"/>
<path d="M42.6471 43.8345V36.7074H40.793V34.166H47.0611V36.7074H45.207V43.8345H42.6471Z" fill="#FF8301"/>
<path d="M57.9638 40.6024H57.7964V43.8345H55.2844V34.166H58.6576C60.3562 34.166 61.6721 35.4781 61.6721 37.3842C61.6721 38.5789 61.1517 39.5458 60.3503 40.0983L61.9472 43.8345H59.1959L57.9638 40.6024ZM57.7964 38.5582H58.3107C58.8131 38.5582 59.184 38.1162 59.184 37.4809C59.184 36.8455 58.8131 36.4035 58.3107 36.4035H57.7964V38.5582Z" fill="#FF8301"/>
<path d="M72.6359 34.166V40.6024C72.6359 41.0858 72.9588 41.445 73.4134 41.445C73.8679 41.445 74.1909 41.0858 74.1909 40.6024V34.166H76.7508V40.8234C76.7508 42.5914 75.2794 43.9864 73.4134 43.9864C71.5473 43.9864 70.076 42.5914 70.076 40.8234V34.166H72.6359Z" fill="#FF8301"/>
<path d="M90.767 42.3289H89.2837L87.7646 38.3649V43.8345H85.4439V34.166H88.1354L90.0254 39.1521L91.9154 34.166H94.6068V43.8345H92.2862V38.3649L90.767 42.3289Z" fill="#FF8301"/>
<path d="M103.392 43.8345V34.166H108.966V36.6245H105.951V37.7709H108.679V40.1742H105.951V41.3759H109.073V43.8345H103.392Z" fill="#FF8301"/>
<path d="M117.531 43.8345V34.166H120.33L122.196 39.7737V34.166H124.517V43.8345H121.718L119.852 38.2267V43.8345H117.531Z" fill="#FF8301"/>
<path d="M134.586 43.8345V36.7074H132.732V34.166H139V36.7074H137.146V43.8345H134.586Z" fill="#FF8301"/>
</svg>
