<svg width="24" height="24" viewBox="0 0 24 24" fill="none" xmlns="http://www.w3.org/2000/svg">
<mask id="path-1-outside-1_417_66" maskUnits="userSpaceOnUse" x="3.77999" y="6.02002" width="15" height="13" fill="black">
<rect fill="white" x="3.77999" y="6.02002" width="15" height="13"/>
<path fill-rule="evenodd" clip-rule="evenodd" d="M12.3583 9.38246C11.3857 9.78702 9.44176 10.6244 6.52656 11.8945C6.05318 12.0827 5.8052 12.2669 5.78262 12.4469C5.74447 12.7513 6.12558 12.8711 6.64454 13.0343C6.71513 13.0565 6.78828 13.0795 6.86326 13.1039C7.37385 13.2698 8.06067 13.464 8.41772 13.4717C8.7416 13.4787 9.10309 13.3452 9.50218 13.0711C12.2259 11.2325 13.632 10.3032 13.7202 10.2832C13.7825 10.269 13.8688 10.2513 13.9273 10.3032C13.9858 10.3552 13.98 10.4536 13.9738 10.48C13.9361 10.641 12.4401 12.0318 11.6659 12.7515C11.4246 12.9759 11.2534 13.135 11.2184 13.1714C11.14 13.2528 11.0601 13.3298 10.9833 13.4039C10.509 13.8611 10.1532 14.204 11.003 14.764C11.4113 15.0331 11.7381 15.2556 12.0641 15.4776C12.4201 15.7201 12.7752 15.9619 13.2347 16.2631C13.3517 16.3398 13.4635 16.4195 13.5724 16.4971C13.9867 16.7925 14.3589 17.0579 14.8188 17.0156C15.086 16.991 15.362 16.7397 15.5022 15.9903C15.8335 14.2193 16.4847 10.3821 16.6352 8.80083C16.6483 8.6623 16.6318 8.485 16.6184 8.40717C16.6051 8.32934 16.5773 8.21844 16.4761 8.13635C16.3563 8.03913 16.1713 8.01863 16.0886 8.02009C15.7125 8.02672 15.1354 8.22737 12.3583 9.38246Z"/>
</mask>
<path d="M6.52656 11.8945L7.08084 13.2883L7.10342 13.2793L7.12569 13.2696L6.52656 11.8945ZM12.3583 9.38246L11.7823 7.99749L11.7823 7.99749L12.3583 9.38246ZM5.78262 12.4469L4.29427 12.2604L4.29427 12.2604L5.78262 12.4469ZM6.64454 13.0343L6.1946 14.4652L6.1946 14.4652L6.64454 13.0343ZM6.86326 13.1039L6.39955 14.5304L6.39956 14.5304L6.86326 13.1039ZM8.41772 13.4717L8.45012 11.9721L8.45012 11.9721L8.41772 13.4717ZM9.50218 13.0711L8.66292 11.8278L8.65308 11.8346L9.50218 13.0711ZM13.7202 10.2832L14.0522 11.746L14.0522 11.746L13.7202 10.2832ZM13.9273 10.3032L14.9238 9.18208L14.9238 9.18207L13.9273 10.3032ZM13.9738 10.48L15.4342 10.8226L15.4342 10.8226L13.9738 10.48ZM11.6659 12.7515L12.6873 13.8501L12.6873 13.8501L11.6659 12.7515ZM11.2184 13.1714L10.1378 12.131L10.1378 12.131L11.2184 13.1714ZM10.9833 13.4039L12.0243 14.4838L12.0243 14.4838L10.9833 13.4039ZM11.003 14.764L10.1776 16.0165L10.1776 16.0165L11.003 14.764ZM12.0641 15.4776L11.2198 16.7175L11.2198 16.7175L12.0641 15.4776ZM13.2347 16.2631L14.057 15.0086L14.057 15.0086L13.2347 16.2631ZM13.5724 16.4971L14.4431 15.2757L14.4431 15.2757L13.5724 16.4971ZM14.8188 17.0156L14.6814 15.5219L14.6813 15.5219L14.8188 17.0156ZM15.5022 15.9903L16.9766 16.2661L16.9766 16.2661L15.5022 15.9903ZM16.6352 8.80083L18.1284 8.94295L18.1284 8.94295L16.6352 8.80083ZM16.4761 8.13635L15.531 9.30113L15.531 9.30113L16.4761 8.13635ZM16.0886 8.02009L16.0622 6.52032L16.0622 6.52032L16.0886 8.02009ZM7.12569 13.2696C10.0429 11.9986 11.9753 11.1664 12.9344 10.7674L11.7823 7.99749C10.7961 8.40767 8.84066 9.25006 5.92743 10.5193L7.12569 13.2696ZM7.27097 12.6335C7.23737 12.9016 7.12828 13.0947 7.04597 13.2056C6.96708 13.3118 6.89627 13.3658 6.87986 13.378C6.85366 13.3975 6.8978 13.3611 7.08084 13.2883L5.97228 10.5006C5.68194 10.6161 5.36539 10.7659 5.09121 10.9695C4.85618 11.1441 4.38243 11.5571 4.29427 12.2604L7.27097 12.6335ZM7.09449 11.6034C6.95718 11.5602 6.86734 11.5317 6.79384 11.5052C6.7171 11.4776 6.71466 11.4717 6.74641 11.4898C6.77153 11.5041 6.92776 11.5935 7.06864 11.8007C7.14413 11.9118 7.20921 12.0481 7.2467 12.2057C7.28408 12.3629 7.28653 12.5095 7.27097 12.6335L4.29427 12.2604C4.24006 12.6928 4.34094 13.1245 4.58781 13.4876C4.80563 13.8079 5.08242 13.9946 5.26292 14.0973C5.58991 14.2834 5.99701 14.4031 6.1946 14.4652L7.09449 11.6034ZM7.32697 11.6773C7.24404 11.6504 7.16413 11.6253 7.09448 11.6034L6.1946 14.4652C6.26614 14.4877 6.33252 14.5086 6.39955 14.5304L7.32697 11.6773ZM8.45012 11.9721C8.47099 11.9725 8.44656 11.9732 8.3596 11.9577C8.28097 11.9436 8.181 11.9218 8.06291 11.8922C7.8264 11.8329 7.56171 11.7536 7.32697 11.6773L6.39956 14.5304C6.6754 14.6201 7.00941 14.7209 7.33322 14.8021C7.62222 14.8746 8.02469 14.9636 8.38533 14.9714L8.45012 11.9721ZM8.65308 11.8346C8.531 11.9184 8.45109 11.9553 8.412 11.9697C8.37511 11.9834 8.39182 11.9708 8.45012 11.9721L8.38532 14.9714C9.14396 14.9878 9.81448 14.6763 10.3513 14.3077L8.65308 11.8346ZM13.3882 8.82037C13.2313 8.85598 13.1135 8.91037 13.092 8.92007C13.0473 8.94023 13.0103 8.95929 12.9874 8.97137C12.9405 8.99616 12.8959 9.02202 12.8611 9.04263C12.7886 9.08551 12.7004 9.14047 12.6026 9.20259C12.4042 9.32865 12.126 9.5101 11.7724 9.74383C11.0632 10.2126 10.0258 10.9079 8.66295 11.8279L10.3414 14.3144C11.7023 13.3958 12.7299 12.7071 13.4266 12.2465C13.776 12.0156 14.0362 11.8461 14.2113 11.7348C14.3003 11.6782 14.3577 11.6429 14.3897 11.624C14.4071 11.6137 14.4044 11.6157 14.3891 11.6238C14.382 11.6275 14.3583 11.64 14.3242 11.6553C14.3133 11.6602 14.2036 11.7116 14.0522 11.746L13.3882 8.82037ZM14.9238 9.18207C14.5305 8.83251 14.0904 8.77043 13.8369 8.76845C13.6046 8.76664 13.4101 8.8154 13.3882 8.82037L14.0522 11.746C14.0926 11.7368 13.9725 11.7696 13.8135 11.7684C13.6334 11.767 13.2656 11.722 12.9308 11.4244L14.9238 9.18207ZM15.4342 10.8226C15.4831 10.6142 15.4898 10.3916 15.4586 10.1814C15.4276 9.97201 15.3228 9.5367 14.9238 9.18208L12.9308 11.4244C12.5903 11.1217 12.5118 10.7616 12.491 10.6211C12.4782 10.5346 12.4761 10.4582 12.4784 10.3945C12.4803 10.3419 12.4867 10.2515 12.5134 10.1375L15.4342 10.8226ZM12.6873 13.8501C13.0724 13.492 13.6498 12.9553 14.1364 12.4868C14.3781 12.2541 14.6098 12.0263 14.7884 11.8403C14.8756 11.7494 14.9667 11.6513 15.0445 11.5587C15.082 11.514 15.1342 11.4495 15.1857 11.3747C15.199 11.3554 15.3609 11.135 15.4342 10.8226L12.5135 10.1375C12.5555 9.95822 12.6215 9.83191 12.6447 9.78877C12.6751 9.73215 12.702 9.69192 12.7146 9.6736C12.7397 9.63717 12.7551 9.61983 12.7467 9.62994C12.7323 9.64703 12.6944 9.68956 12.6239 9.76298C12.4872 9.90548 12.2895 10.1005 12.0557 10.3256C11.5913 10.7727 11.0336 11.2913 10.6446 11.6529L12.6873 13.8501ZM12.299 14.2118C12.2811 14.2303 12.2745 14.2359 12.303 14.2088C12.3233 14.1895 12.3521 14.1624 12.3897 14.1272C12.4648 14.0569 12.5658 13.963 12.6873 13.8501L10.6446 11.6529C10.4344 11.8483 10.2109 12.0551 10.1378 12.131L12.299 14.2118ZM12.0243 14.4838C12.0983 14.4125 12.1981 14.3165 12.299 14.2118L10.1378 12.131C10.0819 12.1891 10.0219 12.2471 9.94225 12.3239L12.0243 14.4838ZM11.8284 13.5115C11.6925 13.422 11.7423 13.4268 11.8226 13.5472C11.8697 13.6179 11.9288 13.7308 11.9626 13.8832C11.9974 14.0397 11.9959 14.1955 11.9682 14.3358C11.9184 14.5884 11.7987 14.7156 11.8239 14.685C11.8453 14.6591 11.8888 14.6145 12.0243 14.4838L9.94225 12.3239C9.84066 12.4219 9.66177 12.5916 9.50962 12.7761C9.36131 12.9559 9.11682 13.2896 9.02498 13.7551C8.78893 14.9515 9.68184 15.6898 10.1776 16.0165L11.8284 13.5115ZM12.9084 14.2378C12.5824 14.0158 12.2472 13.7876 11.8284 13.5115L10.1776 16.0165C10.5754 16.2787 10.8938 16.4954 11.2198 16.7175L12.9084 14.2378ZM14.057 15.0086C13.6097 14.7154 13.2642 14.4801 12.9084 14.2378L11.2198 16.7175C11.576 16.9601 11.9408 17.2085 12.4123 17.5176L14.057 15.0086ZM14.4431 15.2757C14.3377 15.2006 14.2025 15.104 14.057 15.0086L12.4123 17.5176C12.5009 17.5757 12.5893 17.6384 12.7016 17.7185L14.4431 15.2757ZM14.6813 15.5219C14.7317 15.5172 14.7784 15.5218 14.8134 15.5296C14.8449 15.5366 14.8533 15.5431 14.8322 15.5329C14.8094 15.5219 14.7685 15.4993 14.6994 15.4541C14.628 15.4073 14.5515 15.353 14.4431 15.2757L12.7016 17.7185C13.0036 17.9338 13.8432 18.6117 14.9563 18.5092L14.6813 15.5219ZM14.0278 15.7145C13.9804 15.9676 13.9378 15.9684 14.0091 15.8735C14.0509 15.8178 14.1297 15.7332 14.2565 15.6584C14.3862 15.5819 14.533 15.5355 14.6814 15.5219L14.9563 18.5092C16.2986 18.3857 16.8097 17.1584 16.9766 16.2661L14.0278 15.7145ZM15.1419 8.65871C14.9987 10.1636 14.3601 13.9382 14.0278 15.7145L16.9766 16.2661C17.3069 14.5004 17.9707 10.6006 18.1284 8.94295L15.1419 8.65871ZM15.1399 8.6602C15.1381 8.64965 15.1373 8.64338 15.1371 8.64211C15.1369 8.64043 15.137 8.64098 15.1373 8.64364C15.1379 8.64935 15.1387 8.65837 15.1393 8.66859C15.1396 8.67344 15.1398 8.67778 15.1399 8.68142C15.14 8.68511 15.14 8.68737 15.14 8.68816C15.14 8.68902 15.14 8.6873 15.1402 8.68313C15.1403 8.67909 15.1408 8.67078 15.1419 8.65872L18.1284 8.94295C18.1578 8.63384 18.1249 8.31749 18.0969 8.15413L15.1399 8.6602ZM15.531 9.30113C15.1942 9.02789 15.1426 8.67593 15.1399 8.6602L18.0969 8.15413C18.0676 7.98274 17.9603 7.409 17.4213 6.97157L15.531 9.30113ZM16.115 9.51986C16.0382 9.52121 15.9787 9.5142 15.9199 9.50016C15.8707 9.4884 15.7094 9.44592 15.531 9.30113L17.4213 6.97157C17.123 6.72957 16.8094 6.62823 16.617 6.58228C16.4151 6.53404 16.2218 6.51751 16.0622 6.52032L16.115 9.51986ZM12.9344 10.7674C14.3284 10.1876 15.135 9.86224 15.6355 9.68064C16.1618 9.48965 16.1965 9.51842 16.115 9.51986L16.0622 6.52032C15.6046 6.52838 15.1627 6.66079 14.6122 6.86057C14.0358 7.06971 13.1654 7.42221 11.7823 7.99749L12.9344 10.7674Z" fill="#707070" mask="url(#path-1-outside-1_417_66)"/>
<path d="M22 12C22 17.5228 17.5228 22 12 22C6.47715 22 2 17.5228 2 12C2 6.47715 6.47715 2 12 2C17.5228 2 22 6.47715 22 12Z" stroke="#707070" stroke-width="1.5"/>
</svg>
