<svg width="24" height="25" viewBox="0 0 20 20" fill="none" xmlns="http://www.w3.org/2000/svg">
<path opacity="0.4" d="M13.4917 7.38332C13.1667 7.38332 12.9083 7.12499 12.9083 6.79999V5.73332C12.9083 4.91666 12.5583 4.13332 11.9583 3.58332C11.3417 3.02499 10.55 2.76665 9.71667 2.84165C8.31667 2.97499 7.09167 4.39999 7.09167 5.88332V6.63332C7.09167 6.95832 6.83334 7.21665 6.50834 7.21665C6.18334 7.21665 5.925 6.95832 5.925 6.63332V5.88332C5.925 3.79999 7.60834 1.87499 9.6 1.68332C10.7583 1.57499 11.875 1.94165 12.7333 2.72499C13.5833 3.49165 14.0667 4.59166 14.0667 5.73332V6.79999C14.0667 7.12499 13.8083 7.38332 13.4917 7.38332Z" fill="#1B09F9"/>
<path d="M16.6333 7.46668C15.9333 6.69168 14.7833 6.31668 13.1 6.31668H6.9C5.21666 6.31668 4.06666 6.69168 3.36666 7.46668C2.55833 8.36668 2.58333 9.56668 2.675 10.4L3.25833 15.0417C3.43333 16.6667 4.09166 18.3333 7.675 18.3333H12.325C15.9083 18.3333 16.5667 16.6667 16.7417 15.05L17.325 10.3917C17.4167 9.56668 17.4333 8.36668 16.6333 7.46668ZM7.01666 10.9583H7.00833C6.55 10.9583 6.175 10.5833 6.175 10.125C6.175 9.66668 6.55 9.29168 7.00833 9.29168C7.475 9.29168 7.85 9.66668 7.85 10.125C7.85 10.5833 7.475 10.9583 7.01666 10.9583ZM12.85 10.9583H12.8417C12.3833 10.9583 12.0083 10.5833 12.0083 10.125C12.0083 9.66668 12.3833 9.29168 12.8417 9.29168C13.3083 9.29168 13.6833 9.66668 13.6833 10.125C13.6833 10.5833 13.3083 10.9583 12.85 10.9583Z" fill="#1B09F9"/>
</svg>
