<svg width="20" height="20" viewBox="0 0 20 20" fill="none" xmlns="http://www.w3.org/2000/svg">
<path opacity="0.4" d="M11.6132 2.73449L11.6135 2.73468L16.4134 6.09295C16.4134 6.09297 16.4134 6.09299 16.4135 6.09301C16.791 6.35731 17.1532 6.79463 17.4215 7.30848C17.6897 7.82236 17.8418 8.3701 17.8418 8.83333V14.4833C17.8418 16.3322 16.3406 17.8333 14.4918 17.8333H5.50845C3.661 17.8333 2.15845 16.3253 2.15845 14.475V8.725C2.15845 8.29556 2.29592 7.77565 2.54036 7.2792C2.78466 6.78302 3.11452 6.35354 3.45763 6.08592L3.45774 6.08583L7.63136 2.82857C7.63158 2.8284 7.63179 2.82823 7.63201 2.82807C8.71719 1.98777 10.4846 1.94374 11.6132 2.73449Z" fill="#1B09F9" stroke="#1B09F9"/>
<path d="M10 15.125C9.96985 15.125 9.93857 15.1127 9.91293 15.0871C9.88728 15.0614 9.875 15.0301 9.875 15V12.5C9.875 12.4699 9.88728 12.4386 9.91293 12.4129C9.93857 12.3873 9.96985 12.375 10 12.375C10.0301 12.375 10.0614 12.3873 10.0871 12.4129C10.1127 12.4386 10.125 12.4699 10.125 12.5V15C10.125 15.0301 10.1127 15.0614 10.0871 15.0871C10.0614 15.1127 10.0301 15.125 10 15.125Z" fill="#1B09F9" stroke="#1B09F9"/>
</svg>
