<svg width="20" height="21" viewBox="0 0 20 21" fill="none" xmlns="http://www.w3.org/2000/svg">
<path d="M18.3077 15.7752C18.3077 16.0752 18.241 16.3835 18.0993 16.6835C17.9577 16.9835 17.7744 17.2669 17.5327 17.5335C17.1244 17.9835 16.6743 18.3085 16.166 18.5169C15.666 18.7252 15.1244 18.8335 14.541 18.8335C13.691 18.8335 12.7827 18.6335 11.8243 18.2252C10.866 17.8169 9.90768 17.2669 8.95768 16.5752C7.99935 15.8752 7.09102 15.1002 6.22435 14.2419C5.36602 13.3752 4.59102 12.4669 3.89935 11.5169C3.21602 10.5669 2.66602 9.61687 2.26602 8.6752C1.86602 7.7252 1.66602 6.81687 1.66602 5.9502C1.66602 5.38354 1.76602 4.84187 1.96602 4.34187C2.16602 3.83354 2.48268 3.36687 2.92435 2.9502C3.45768 2.4252 4.04102 2.16687 4.65768 2.16687C4.89102 2.16687 5.12435 2.21687 5.33268 2.31687C5.54935 2.41687 5.74102 2.56687 5.89102 2.78354L7.82435 5.50854C7.97435 5.71687 8.08268 5.90854 8.15768 6.09187C8.23268 6.26687 8.27435 6.44187 8.27435 6.6002C8.27435 6.8002 8.21602 7.0002 8.09935 7.19187C7.99102 7.38354 7.83268 7.58354 7.63268 7.78354L6.99935 8.44187C6.90768 8.53354 6.86602 8.64187 6.86602 8.7752C6.86602 8.84187 6.87435 8.9002 6.89102 8.96687C6.91602 9.03354 6.94102 9.08354 6.95768 9.13354C7.10768 9.40854 7.36602 9.76687 7.73268 10.2002C8.10768 10.6335 8.50768 11.0752 8.94102 11.5169C9.39102 11.9585 9.82435 12.3669 10.266 12.7419C10.6993 13.1085 11.0577 13.3585 11.341 13.5085C11.3827 13.5252 11.4327 13.5502 11.491 13.5752C11.5577 13.6002 11.6243 13.6085 11.6993 13.6085C11.841 13.6085 11.9493 13.5585 12.041 13.4669L12.6743 12.8419C12.8827 12.6335 13.0827 12.4752 13.2743 12.3752C13.466 12.2585 13.6577 12.2002 13.866 12.2002C14.0243 12.2002 14.191 12.2335 14.3743 12.3085C14.5577 12.3835 14.7494 12.4919 14.9577 12.6335L17.716 14.5919C17.9327 14.7419 18.0827 14.9169 18.1743 15.1252C18.2577 15.3335 18.3077 15.5419 18.3077 15.7752Z" stroke="#303030" stroke-width="1.5" stroke-miterlimit="10"/>
</svg>
