<svg width="21" height="20" viewBox="0 0 21 20" fill="none" xmlns="http://www.w3.org/2000/svg">
<path opacity="0.4" d="M13.9917 1.66699H7.00841C3.97508 1.66699 2.16675 3.47533 2.16675 6.50866V13.4837C2.16675 16.5253 3.97508 18.3337 7.00841 18.3337H13.9834C17.0167 18.3337 18.8251 16.5253 18.8251 13.492V6.50866C18.8334 3.47533 17.0251 1.66699 13.9917 1.66699Z" fill="#707070"/>
<path d="M10.4999 13.2333C12.2857 13.2333 13.7333 11.7857 13.7333 9.99994C13.7333 8.21421 12.2857 6.7666 10.4999 6.7666C8.71421 6.7666 7.2666 8.21421 7.2666 9.99994C7.2666 11.7857 8.71421 13.2333 10.4999 13.2333Z" fill="#707070"/>
<path d="M14.6666 6.25041C14.4416 6.25041 14.2333 6.16707 14.0749 6.00874C13.9999 5.92541 13.9416 5.83374 13.8999 5.73374C13.8583 5.63374 13.8333 5.52541 13.8333 5.41707C13.8333 5.30874 13.8583 5.20041 13.8999 5.10041C13.9416 4.99207 13.9999 4.90874 14.0749 4.82541C14.2666 4.63374 14.5583 4.54208 14.8249 4.60041C14.8833 4.60874 14.9333 4.62541 14.9833 4.65041C15.0333 4.66708 15.0833 4.69208 15.1333 4.72541C15.1749 4.75041 15.2166 4.79208 15.2583 4.82541C15.3333 4.90874 15.3916 4.99207 15.4333 5.10041C15.4749 5.20041 15.4999 5.30874 15.4999 5.41707C15.4999 5.52541 15.4749 5.63374 15.4333 5.73374C15.3916 5.83374 15.3333 5.92541 15.2583 6.00874C15.1749 6.08374 15.0833 6.14207 14.9833 6.18374C14.8833 6.22541 14.7749 6.25041 14.6666 6.25041Z" fill="#707070"/>
</svg>
