<svg width="21" height="20" viewBox="0 0 21 20" fill="none" xmlns="http://www.w3.org/2000/svg">
<path opacity="0.4" d="M6.42492 4.96673L13.9416 2.4584C17.3166 1.3334 19.1499 3.17507 18.0333 6.55007L15.5249 14.0667C13.8416 19.1251 11.0749 19.1251 9.39159 14.0667L8.64992 11.8334L6.41659 11.0917C1.36659 9.41674 1.36659 6.6584 6.42492 4.96673Z" fill="#707070"/>
<path d="M10.6001 9.69212L13.7751 6.50879L10.6001 9.69212Z" fill="#707070"/>
<path d="M10.6 10.317C10.4416 10.317 10.2833 10.2587 10.1583 10.1337C9.91663 9.89199 9.91663 9.49199 10.1583 9.25033L13.325 6.06699C13.5666 5.82533 13.9666 5.82533 14.2083 6.06699C14.45 6.30866 14.45 6.70866 14.2083 6.95033L11.0416 10.1337C10.9166 10.2503 10.7583 10.317 10.6 10.317Z" fill="#707070"/>
</svg>
