<svg width="21" height="20" viewBox="0 0 21 20" fill="none" xmlns="http://www.w3.org/2000/svg">
<path opacity="0.4" d="M14.6667 17.0837H6.33342C3.83341 17.0837 2.16675 15.8337 2.16675 12.917V7.08366C2.16675 4.16699 3.83341 2.91699 6.33342 2.91699H14.6667C17.1667 2.91699 18.8334 4.16699 18.8334 7.08366V12.917C18.8334 15.8337 17.1667 17.0837 14.6667 17.0837Z" fill="#707070"/>
<path d="M10.5 10.725C9.79998 10.725 9.09165 10.5083 8.54998 10.0666L5.94164 7.98331C5.67498 7.76664 5.62498 7.37497 5.84165 7.10831C6.05831 6.84164 6.44998 6.79164 6.71665 7.00831L9.32497 9.09165C9.95831 9.59998 11.0333 9.59998 11.6666 9.09165L14.275 7.00831C14.5416 6.79164 14.9416 6.83331 15.15 7.10831C15.3666 7.37497 15.325 7.77498 15.05 7.98331L12.4416 10.0666C11.9083 10.5083 11.2 10.725 10.5 10.725Z" fill="#707070"/>
</svg>
