<svg width="21" height="20" viewBox="0 0 21 20" fill="none" xmlns="http://www.w3.org/2000/svg">
<path opacity="0.58" d="M20.5 0H0.5V20H20.5V0Z" fill="white"/>
<path opacity="0.4" d="M6.28342 17.1914C7.52509 17.9164 8.96675 18.3331 10.5001 18.3331C15.1918 18.3331 19.0917 14.1914 18.8167 9.50806C18.5334 4.67473 14.1417 0.949724 9.08341 1.78306C5.60008 2.35806 2.80841 5.18306 2.26675 8.66639C1.95008 10.6831 2.36677 12.5914 3.2751 14.1664L2.53342 16.9247C2.36675 17.5497 2.94174 18.1164 3.5584 17.9414L6.28342 17.1914Z" fill="#707070"/>
<path d="M14.6666 12.6414C14.6666 12.7914 14.6332 12.9497 14.5582 13.0997C14.4832 13.2497 14.3916 13.3914 14.2749 13.5247C14.0666 13.7497 13.8416 13.9164 13.5916 14.0164C13.3416 14.1247 13.0666 14.1747 12.7749 14.1747C12.3499 14.1747 11.8916 14.0747 11.4166 13.8664C10.9332 13.6581 10.4583 13.3831 9.98326 13.0414C9.49992 12.6914 9.04991 12.2997 8.61658 11.8747C8.18324 11.4414 7.79994 10.9831 7.44994 10.5081C7.10827 10.0331 6.83324 9.55807 6.63324 9.08307C6.43324 8.60807 6.33325 8.14974 6.33325 7.71641C6.33325 7.43307 6.38325 7.15807 6.48325 6.90807C6.58325 6.64974 6.74159 6.4164 6.96659 6.20807C7.23326 5.9414 7.52491 5.81641 7.83324 5.81641C7.94991 5.81641 8.0666 5.8414 8.17494 5.8914C8.28327 5.9414 8.38324 6.0164 8.45824 6.12474L9.4166 7.49974C9.4916 7.60807 9.54994 7.69974 9.58327 7.7914C9.62494 7.88307 9.64156 7.96641 9.64156 8.04974C9.64156 8.14974 9.60824 8.24973 9.54991 8.34973C9.49157 8.44973 9.4166 8.54973 9.3166 8.64973L8.99993 8.98307C8.94993 9.03307 8.93325 9.08307 8.93325 9.14974C8.93325 9.18307 8.9416 9.2164 8.94993 9.24974C8.9666 9.28307 8.97491 9.30807 8.98325 9.33307C9.05825 9.47473 9.19161 9.64973 9.37494 9.8664C9.56661 10.0831 9.76659 10.3081 9.98326 10.5247C10.2083 10.7497 10.4249 10.9497 10.6499 11.1414C10.8666 11.3247 11.0499 11.4497 11.1916 11.5247C11.2166 11.5331 11.2416 11.5497 11.2666 11.5581C11.2999 11.5747 11.3332 11.5747 11.3749 11.5747C11.4499 11.5747 11.4999 11.5497 11.5499 11.4997L11.8666 11.1831C11.9749 11.0747 12.0749 10.9997 12.1666 10.9497C12.2666 10.8914 12.3582 10.8581 12.4666 10.8581C12.5499 10.8581 12.6332 10.8747 12.7249 10.9164C12.8166 10.9581 12.9166 11.0081 13.0166 11.0831L14.3999 12.0664C14.5082 12.1414 14.5833 12.2331 14.6333 12.3331C14.6416 12.4247 14.6666 12.5247 14.6666 12.6414Z" fill="#707070"/>
</svg>
