<svg width="10" height="10" viewBox="0 0 10 10" fill="none" xmlns="http://www.w3.org/2000/svg">
<path fill-rule="evenodd" clip-rule="evenodd" d="M0.206337 0.206337C0.481452 -0.0687788 0.927503 -0.0687788 1.20262 0.206337L4.93134 3.93506L8.66007 0.206337C8.93518 -0.0687789 9.38124 -0.0687789 9.65635 0.206337C9.93147 0.481452 9.93147 0.927503 9.65635 1.20262L5.92762 4.93134L9.65635 8.66007C9.93147 8.93518 9.93147 9.38124 9.65635 9.65635C9.38124 9.93147 8.93518 9.93147 8.66007 9.65635L4.93134 5.92762L1.20262 9.65635C0.927503 9.93147 0.481452 9.93147 0.206337 9.65635C-0.0687788 9.38124 -0.0687788 8.93518 0.206337 8.66007L3.93506 4.93134L0.206337 1.20262C-0.0687789 0.927503 -0.0687789 0.481452 0.206337 0.206337Z" fill="#17224D"/>
</svg>
